  0
SECTION
  2
HEADER
  9
$ACADVER
  1
AC1032
  9
$ACADMAINTVER
 90
      329
  9
$DWGCODEPAGE
  3
ANSI_1252
  9
$LASTSAVEDBY
  1
Pedro
  9
$REQUIREDVERSIONS
160
                 0
  9
$INSBASE
 10
0.0
 20
0.0
 30
0.0
  9
$EXTMIN
 10
2.999999999999998
 20
3.0
 30
0.0
  9
$EXTMAX
 10
306.0
 20
269.0
 30
0.0
  9
$LIMMIN
 10
0.0
 20
0.0
  9
$LIMMAX
 10
12.0
 20
9.0
  9
$ORTHOMODE
 70
     0
  9
$REGENMODE
 70
     1
  9
$FILLMODE
 70
     1
  9
$QTEXTMODE
 70
     0
  9
$MIRRTEXT
 70
     0
  9
$LTSCALE
 40
1.0
  9
$ATTMODE
 70
     1
  9
$TEXTSIZE
 40
1.0
  9
$TRACEWID
 40
0.05
  9
$TEXTSTYLE
  7
Standard
  9
$CLAYER
  8
0
  9
$CELTYPE
  6
Continuous
  9
$CECOLOR
 62
   256
  9
$CELTSCALE
 40
1.0
  9
$DISPSILH
 70
     0
  9
$DIMSCALE
 40
1.0
  9
$DIMASZ
 40
0.18
  9
$DIMEXO
 40
0.0625
  9
$DIMDLI
 40
0.38
  9
$DIMRND
 40
0.0
  9
$DIMDLE
 40
0.0
  9
$DIMEXE
 40
0.18
  9
$DIMTP
 40
0.0
  9
$DIMTM
 40
0.0
  9
$DIMTXT
 40
0.18
  9
$DIMCEN
 40
0.09
  9
$DIMTSZ
 40
0.0
  9
$DIMTOL
 70
     0
  9
$DIMLIM
 70
     0
  9
$DIMTIH
 70
     1
  9
$DIMTOH
 70
     1
  9
$DIMSE1
 70
     0
  9
$DIMSE2
 70
     0
  9
$DIMTAD
 70
     0
  9
$DIMZIN
 70
     0
  9
$DIMBLK
  1

  9
$DIMASO
 70
     1
  9
$DIMSHO
 70
     1
  9
$DIMPOST
  1

  9
$DIMAPOST
  1

  9
$DIMALT
 70
     0
  9
$DIMALTD
 70
     2
  9
$DIMALTF
 40
25.4
  9
$DIMLFAC
 40
1.0
  9
$DIMTOFL
 70
     0
  9
$DIMTVP
 40
0.0
  9
$DIMTIX
 70
     0
  9
$DIMSOXD
 70
     0
  9
$DIMSAH
 70
     0
  9
$DIMBLK1
  1

  9
$DIMBLK2
  1

  9
$DIMSTYLE
  2
Standard
  9
$DIMCLRD
 70
     0
  9
$DIMCLRE
 70
     0
  9
$DIMCLRT
 70
     0
  9
$DIMTFAC
 40
1.0
  9
$DIMGAP
 40
0.09
  9
$DIMJUST
 70
     0
  9
$DIMSD1
 70
     0
  9
$DIMSD2
 70
     0
  9
$DIMTOLJ
 70
     1
  9
$DIMTZIN
 70
     0
  9
$DIMALTZ
 70
     0
  9
$DIMALTTZ
 70
     0
  9
$DIMUPT
 70
     0
  9
$DIMDEC
 70
     4
  9
$DIMTDEC
 70
     4
  9
$DIMALTU
 70
     2
  9
$DIMALTTD
 70
     2
  9
$DIMTXSTY
  7
Standard
  9
$DIMAUNIT
 70
     0
  9
$DIMADEC
 70
     0
  9
$DIMALTRND
 40
0.0
  9
$DIMAZIN
 70
     0
  9
$DIMDSEP
 70
    46
  9
$DIMATFIT
 70
     3
  9
$DIMFRAC
 70
     0
  9
$DIMLDRBLK
  1

  9
$DIMLUNIT
 70
     2
  9
$DIMLWD
 70
    -2
  9
$DIMLWE
 70
    -2
  9
$DIMTMOVE
 70
     0
  9
$DIMFXL
 40
1.0
  9
$DIMFXLON
 70
     0
  9
$DIMJOGANG
 40
0.7853981633974483
  9
$DIMTFILL
 70
     0
  9
$DIMTFILLCLR
 70
     0
  9
$DIMARCSYM
 70
     0
  9
$DIMLTYPE
  6

  9
$DIMLTEX1
  6

  9
$DIMLTEX2
  6

  9
$DIMTXTDIRECTION
 70
     0
  9
$LUNITS
 70
     2
  9
$LUPREC
 70
     4
  9
$SKETCHINC
 40
0.1
  9
$FILLETRAD
 40
0.0
  9
$AUNITS
 70
     0
  9
$AUPREC
 70
     0
  9
$MENU
  1
.
  9
$ELEVATION
 40
0.0
  9
$PELEVATION
 40
0.0
  9
$THICKNESS
 40
0.0
  9
$LIMCHECK
 70
     0
  9
$CHAMFERA
 40
0.0
  9
$CHAMFERB
 40
0.0
  9
$CHAMFERC
 40
0.0
  9
$CHAMFERD
 40
0.0
  9
$SKPOLY
 70
     0
  9
$TDCREATE
 40
2461008.488078704
  9
$TDUCREATE
 40
2461008.613078704
  9
$TDUPDATE
 40
2461008.529988426
  9
$TDUUPDATE
 40
2461008.654988426
  9
$TDINDWG
 40
0.0419097222
  9
$TDUSRTIMER
 40
0.0419097222
  9
$USRTIMER
 70
     1
  9
$ANGBASE
 50
0.0
  9
$ANGDIR
 70
     0
  9
$PDMODE
 70
     0
  9
$PDSIZE
 40
0.0
  9
$PLINEWID
 40
0.0
  9
$SPLFRAME
 70
     0
  9
$SPLINETYPE
 70
     6
  9
$SPLINESEGS
 70
     8
  9
$HANDSEED
  5
10598
  9
$SURFTAB1
 70
     6
  9
$SURFTAB2
 70
     6
  9
$SURFTYPE
 70
     6
  9
$SURFU
 70
     6
  9
$SURFV
 70
     6
  9
$UCSBASE
  2

  9
$UCSNAME
  2

  9
$UCSORG
 10
0.0
 20
0.0
 30
0.0
  9
$UCSXDIR
 10
1.0
 20
0.0
 30
0.0
  9
$UCSYDIR
 10
0.0
 20
1.0
 30
0.0
  9
$UCSORTHOREF
  2

  9
$UCSORTHOVIEW
 70
     0
  9
$UCSORGTOP
 10
0.0
 20
0.0
 30
0.0
  9
$UCSORGBOTTOM
 10
0.0
 20
0.0
 30
0.0
  9
$UCSORGLEFT
 10
0.0
 20
0.0
 30
0.0
  9
$UCSORGRIGHT
 10
0.0
 20
0.0
 30
0.0
  9
$UCSORGFRONT
 10
0.0
 20
0.0
 30
0.0
  9
$UCSORGBACK
 10
0.0
 20
0.0
 30
0.0
  9
$PUCSBASE
  2

  9
$PUCSNAME
  2

  9
$PUCSORG
 10
0.0
 20
0.0
 30
0.0
  9
$PUCSXDIR
 10
1.0
 20
0.0
 30
0.0
  9
$PUCSYDIR
 10
0.0
 20
1.0
 30
0.0
  9
$PUCSORTHOREF
  2

  9
$PUCSORTHOVIEW
 70
     0
  9
$PUCSORGTOP
 10
0.0
 20
0.0
 30
0.0
  9
$PUCSORGBOTTOM
 10
0.0
 20
0.0
 30
0.0
  9
$PUCSORGLEFT
 10
0.0
 20
0.0
 30
0.0
  9
$PUCSORGRIGHT
 10
0.0
 20
0.0
 30
0.0
  9
$PUCSORGFRONT
 10
0.0
 20
0.0
 30
0.0
  9
$PUCSORGBACK
 10
0.0
 20
0.0
 30
0.0
  9
$USERI1
 70
     0
  9
$USERI2
 70
     0
  9
$USERI3
 70
     0
  9
$USERI4
 70
     0
  9
$USERI5
 70
     0
  9
$USERR1
 40
0.0
  9
$USERR2
 40
0.0
  9
$USERR3
 40
0.0
  9
$USERR4
 40
0.0
  9
$USERR5
 40
0.0
  9
$WORLDVIEW
 70
     1
  9
$SHADEDGE
 70
     3
  9
$SHADEDIF
 70
    70
  9
$TILEMODE
 70
     1
  9
$MAXACTVP
 70
    64
  9
$PINSBASE
 10
0.0
 20
0.0
 30
0.0
  9
$PLIMCHECK
 70
     0
  9
$PEXTMIN
 10
1.000000000000000E+20
 20
1.000000000000000E+20
 30
1.000000000000000E+20
  9
$PEXTMAX
 10
-1.000000000000000E+20
 20
-1.000000000000000E+20
 30
-1.000000000000000E+20
  9
$PLIMMIN
 10
0.0
 20
0.0
  9
$PLIMMAX
 10
12.0
 20
9.0
  9
$UNITMODE
 70
     0
  9
$VISRETAIN
 70
     1
  9
$PLINEGEN
 70
     0
  9
$PSLTSCALE
 70
     1
  9
$TREEDEPTH
 70
  3020
  9
$CMLSTYLE
  2
Standard
  9
$CMLJUST
 70
     0
  9
$CMLSCALE
 40
1.0
  9
$PROXYGRAPHICS
 70
     1
  9
$MEASUREMENT
 70
     0
  9
$CELWEIGHT
370
    -1
  9
$ENDCAPS
280
     0
  9
$JOINSTYLE
280
     0
  9
$LWDISPLAY
290
     0
  9
$INSUNITS
 70
     0
  9
$HYPERLINKBASE
  1

  9
$STYLESHEET
  1

  9
$XEDIT
290
     1
  9
$CEPSNTYPE
380
     0
  9
$PSTYLEMODE
290
     1
  9
$FINGERPRINTGUID
  2
{3550C5B6-734E-0749-9743-EA705A8460E2}
  9
$VERSIONGUID
  2
{A6AD438D-361A-7548-8F52-7F38B3604CEE}
  9
$EXTNAMES
290
     1
  9
$PSVPSCALE
 40
0.0
  9
$OLESTARTUP
290
     0
  9
$SORTENTS
280
   127
  9
$INDEXCTL
280
     0
  9
$HIDETEXT
280
     0
  9
$XCLIPFRAME
280
     2
  9
$HALOGAP
280
     0
  9
$OBSCOLOR
 70
   257
  9
$OBSLTYPE
280
     0
  9
$INTERSECTIONDISPLAY
280
     0
  9
$INTERSECTIONCOLOR
 70
   257
  9
$DIMASSOC
280
     1
  9
$PROJECTNAME
  1

  9
$CAMERADISPLAY
290
     0
  9
$LENSLENGTH
 40
50.0
  9
$CAMERAHEIGHT
 40
0.0
  9
$STEPSPERSEC
 40
2.0
  9
$STEPSIZE
 40
6.0
  9
$3DDWFPREC
 40
2.0
  9
$PSOLWIDTH
 40
0.25
  9
$PSOLHEIGHT
 40
4.0
  9
$LOFTANG1
 40
1.570796326794896
  9
$LOFTANG2
 40
1.570796326794896
  9
$LOFTMAG1
 40
0.0
  9
$LOFTMAG2
 40
0.0
  9
$LOFTPARAM
 70
     7
  9
$LOFTNORMALS
280
     1
  9
$LATITUDE
 40
37.795
  9
$LONGITUDE
 40
-122.394
  9
$NORTHDIRECTION
 40
0.0
  9
$TIMEZONE
 70
 -8000
  9
$LIGHTGLYPHDISPLAY
280
     1
  9
$TILEMODELIGHTSYNCH
280
     1
  9
$CMATERIAL
347
10024
  9
$SOLIDHIST
280
     0
  9
$SHOWHIST
280
     1
  9
$DWFFRAME
280
     2
  9
$DGNFRAME
280
     0
  9
$REALWORLDSCALE
290
     1
  9
$INTERFERECOLOR
 62
     1
  9
$INTERFEREOBJVS
345
10046
  9
$INTERFEREVPVS
346
10043
  9
$CSHADOW
280
     0
  9
$SHADOWPLANELOCATION
 40
0.0
  0
ENDSEC
  0
SECTION
  2
CLASSES
  0
CLASS
  1
ACDBDICTIONARYWDFLT
  2
AcDbDictionaryWithDefault
  3
ObjectDBX Classes
 90
        0
 91
        1
280
     0
281
     0
  0
CLASS
  1
MATERIAL
  2
AcDbMaterial
  3
ObjectDBX Classes
 90
     1153
 91
        3
280
     0
281
     0
  0
CLASS
  1
VISUALSTYLE
  2
AcDbVisualStyle
  3
ObjectDBX Classes
 90
     4095
 91
       24
280
     0
281
     0
  0
CLASS
  1
TABLESTYLE
  2
AcDbTableStyle
  3
ObjectDBX Classes
 90
     4095
 91
        1
280
     0
281
     0
  0
CLASS
  1
SCALE
  2
AcDbScale
  3
ObjectDBX Classes
 90
     1153
 91
       17
280
     0
281
     0
  0
CLASS
  1
MLEADERSTYLE
  2
AcDbMLeaderStyle
  3
ACDB_MLEADERSTYLE_CLASS
 90
     4095
 91
        1
280
     0
281
     0
  0
CLASS
  1
ACDBSECTIONVIEWSTYLE
  2
AcDbSectionViewStyle
  3
ObjectDBX Classes
 90
     1025
 91
        1
280
     0
281
     0
  0
CLASS
  1
ACDBDETAILVIEWSTYLE
  2
AcDbDetailViewStyle
  3
ObjectDBX Classes
 90
     1025
 91
        1
280
     0
281
     0
  0
CLASS
  1
DICTIONARYVAR
  2
AcDbDictionaryVar
  3
ObjectDBX Classes
 90
        0
 91
       18
280
     0
281
     0
  0
CLASS
  1
SORTENTSTABLE
  2
AcDbSortentsTable
  3
ObjectDBX Classes
 90
        0
 91
        1
280
     0
281
     0
  0
CLASS
  1
CELLSTYLEMAP
  2
AcDbCellStyleMap
  3
ObjectDBX Classes
 90
     1152
 91
        1
280
     0
281
     0
  0
ENDSEC
  0
SECTION
  2
TABLES
  0
TABLE
  2
VPORT
  5
1
330
0
100
AcDbSymbolTable
 70
     1
  0
VPORT
  5
19
330
1
100
AcDbSymbolTableRecord
100
AcDbViewportTableRecord
  2
*Active
 70
     0
 10
0.0
 20
0.0
 11
1.0
 21
1.0
 12
200.3046439828438
 22
-1.785604445292847
 13
0.0
 23
0.0
 14
10.0
 24
10.0
 15
10.0
 25
10.0
 16
0.0
 26
0.0
 36
1.0
 17
0.0
 27
0.0
 37
0.0
 40
305.1770301283105
 41
2.056363636363636
 42
50.0
 43
0.0
 44
0.0
 50
0.0
 51
0.0
 71
     0
 72
   100
 73
     1
 74
     3
 75
     0
 76
     1
 77
     0
 78
     0
281
     0
 65
     1
110
0.0
120
0.0
130
0.0
111
1.0
121
0.0
131
0.0
112
0.0
122
1.0
132
0.0
 79
     0
146
0.0
348
10042
 60
     7
 61
     5
292
     1
282
     1
141
0.0
142
0.0
 63
   160
421
  3358443
1001
ACAD_NAV_VCDISPLAY
1070
     3
  0
ENDTAB
  0
TABLE
  2
LTYPE
  5
2
330
0
100
AcDbSymbolTable
 70
     3
  0
LTYPE
  5
12
330
2
100
AcDbSymbolTableRecord
100
AcDbLinetypeTableRecord
  2
ByBlock
 70
     0
  3

 72
    65
 73
     0
 40
0.0
  0
LTYPE
  5
13
330
2
100
AcDbSymbolTableRecord
100
AcDbLinetypeTableRecord
  2
ByLayer
 70
     0
  3

 72
    65
 73
     0
 40
0.0
  0
LTYPE
  5
14
330
2
100
AcDbSymbolTableRecord
100
AcDbLinetypeTableRecord
  2
Continuous
 70
     0
  3
Solid line
 72
    65
 73
     0
 40
0.0
  0
ENDTAB
  0
TABLE
  2
LAYER
  5
3
330
0
100
AcDbSymbolTable
 70
     1
  0
LAYER
  5
15
102
{ACAD_XDICTIONARY
360
10593
102
}
330
3
100
AcDbSymbolTableRecord
100
AcDbLayerTableRecord
  2
0
 70
     0
 62
     7
  6
Continuous
370
     0
390
10022
347
10034
348
0
  0
ENDTAB
  0
TABLE
  2
STYLE
  5
4
330
0
100
AcDbSymbolTable
 70
     1
  0
STYLE
  5
16
330
4
100
AcDbSymbolTableRecord
100
AcDbTextStyleTableRecord
  2
Standard
 70
     0
 40
0.0
 41
1.0
 50
0.0
 71
     0
 42
1.0
  3
txt
  4

  0
ENDTAB
  0
TABLE
  2
VIEW
  5
5
330
0
100
AcDbSymbolTable
 70
     0
  0
ENDTAB
  0
TABLE
  2
UCS
  5
6
330
0
100
AcDbSymbolTable
 70
     0
  0
ENDTAB
  0
TABLE
  2
APPID
  5
7
330
0
100
AcDbSymbolTable
 70
     3
  0
APPID
  5
17
330
7
100
AcDbSymbolTableRecord
100
AcDbRegAppTableRecord
  2
ACAD
 70
     0
  0
APPID
  5
10079
330
7
100
AcDbSymbolTableRecord
100
AcDbRegAppTableRecord
  2
ACAD_EXEMPT_FROM_CAD_STANDARDS
 70
     0
  0
APPID
  5
1010A
330
7
100
AcDbSymbolTableRecord
100
AcDbRegAppTableRecord
  2
ACAD_NAV_VCDISPLAY
 70
     0
  0
ENDTAB
  0
TABLE
  2
DIMSTYLE
  5
8
330
0
100
AcDbSymbolTable
 70
     2
100
AcDbDimStyleTable
 71
     1
340
18
  0
DIMSTYLE
105
18
330
8
100
AcDbSymbolTableRecord
100
AcDbDimStyleTableRecord
  2
Standard
 70
     0
340
16
  0
ENDTAB
  0
TABLE
  2
BLOCK_RECORD
  5
9
330
0
100
AcDbSymbolTable
 70
     2
  0
BLOCK_RECORD
  5
C
102
{ACAD_XDICTIONARY
360
10563
102
}
330
9
100
AcDbSymbolTableRecord
100
AcDbBlockTableRecord
  2
*Model_Space
340
10074
 70
     0
280
     1
281
     0
  0
BLOCK_RECORD
  5
F
330
9
100
AcDbSymbolTableRecord
100
AcDbBlockTableRecord
  2
*Paper_Space
340
10075
 70
     0
280
     1
281
     0
  0
BLOCK_RECORD
  5
10129
330
9
100
AcDbSymbolTableRecord
100
AcDbBlockTableRecord
  2
A$Cf2c86739
340
0
 70
     0
280
     1
281
     0
  0
ENDTAB
  0
ENDSEC
  0
SECTION
  2
BLOCKS
  0
BLOCK
  5
D
330
C
100
AcDbEntity
  8
0
100
AcDbBlockBegin
  2
*Model_Space
 70
     0
 10
0.0
 20
0.0
 30
0.0
  3
*Model_Space
  1

  0
ENDBLK
  5
E
330
C
100
AcDbEntity
  8
0
100
AcDbBlockEnd
  0
BLOCK
  5
10
330
F
100
AcDbEntity
 67
     1
  8
0
100
AcDbBlockBegin
  2
*Paper_Space
 70
     0
 10
0.0
 20
0.0
 30
0.0
  3
*Paper_Space
  1

  0
ENDBLK
  5
11
330
F
100
AcDbEntity
 67
     1
  8
0
100
AcDbBlockEnd
  0
BLOCK
  5
10340
330
10129
100
AcDbEntity
  8
0
100
AcDbBlockBegin
  2
A$Cf2c86739
 70
     0
 10
0.0
 20
0.0
 30
0.0
  3
A$Cf2c86739
  1

  0
LINE
  5
1012A
330
10129
100
AcDbEntity
  8
0
100
AcDbLine
 10
100.0
 20
60.0
 30
0.0
 11
97.0
 21
60.0
 31
0.0
  0
LINE
  5
1012B
330
10129
100
AcDbEntity
  8
0
100
AcDbLine
 10
97.0
 20
60.0
 30
0.0
 11
87.5
 21
60.0
 31
0.0
  0
LINE
  5
1012C
330
10129
100
AcDbEntity
  8
0
100
AcDbLine
 10
87.5
 20
60.0
 30
0.0
 11
87.5
 21
57.0
 31
0.0
  0
LINE
  5
1012D
330
10129
100
AcDbEntity
  8
0
100
AcDbLine
 10
87.5
 20
57.0
 30
0.0
 11
72.5
 21
57.0
 31
0.0
  0
LINE
  5
1012E
330
10129
100
AcDbEntity
  8
0
100
AcDbLine
 10
72.5
 20
57.0
 30
0.0
 11
72.5
 21
60.0
 31
0.0
  0
LINE
  5
1012F
330
10129
100
AcDbEntity
  8
0
100
AcDbLine
 10
72.5
 20
60.0
 30
0.0
 11
57.5
 21
60.0
 31
0.0
  0
LINE
  5
10130
330
10129
100
AcDbEntity
  8
0
100
AcDbLine
 10
57.5
 20
60.0
 30
0.0
 11
57.5
 21
57.0
 31
0.0
  0
LINE
  5
10131
330
10129
100
AcDbEntity
  8
0
100
AcDbLine
 10
57.5
 20
57.0
 30
0.0
 11
42.5
 21
57.0
 31
0.0
  0
LINE
  5
10132
330
10129
100
AcDbEntity
  8
0
100
AcDbLine
 10
42.5
 20
57.0
 30
0.0
 11
42.5
 21
60.0
 31
0.0
  0
LINE
  5
10133
330
10129
100
AcDbEntity
  8
0
100
AcDbLine
 10
42.5
 20
60.0
 30
0.0
 11
27.5
 21
60.0
 31
0.0
  0
LINE
  5
10134
330
10129
100
AcDbEntity
  8
0
100
AcDbLine
 10
27.5
 20
60.0
 30
0.0
 11
27.5
 21
57.0
 31
0.0
  0
LINE
  5
10135
330
10129
100
AcDbEntity
  8
0
100
AcDbLine
 10
27.5
 20
57.0
 30
0.0
 11
12.5
 21
57.0
 31
0.0
  0
LINE
  5
10136
330
10129
100
AcDbEntity
  8
0
100
AcDbLine
 10
12.5
 20
57.0
 30
0.0
 11
12.5
 21
60.0
 31
0.0
  0
LINE
  5
10137
330
10129
100
AcDbEntity
  8
0
100
AcDbLine
 10
12.5
 20
60.0
 30
0.0
 11
3.0
 21
60.0
 31
0.0
  0
LINE
  5
10138
330
10129
100
AcDbEntity
  8
0
100
AcDbLine
 10
3.0
 20
60.0
 30
0.0
 11
0.0
 21
60.0
 31
0.0
  0
LINE
  5
10139
330
10129
100
AcDbEntity
  8
0
100
AcDbLine
 10
0.0
 20
60.0
 30
0.0
 11
0.0
 21
57.0
 31
0.0
  0
LINE
  5
1013A
330
10129
100
AcDbEntity
  8
0
100
AcDbLine
 10
0.0
 20
57.0
 30
0.0
 11
0.0
 21
52.5
 31
0.0
  0
LINE
  5
1013B
330
10129
100
AcDbEntity
  8
0
100
AcDbLine
 10
0.0
 20
52.5
 30
0.0
 11
3.0
 21
52.5
 31
0.0
  0
LINE
  5
1013C
330
10129
100
AcDbEntity
  8
0
100
AcDbLine
 10
3.0
 20
52.5
 30
0.0
 11
3.0
 21
37.5
 31
0.0
  0
LINE
  5
1013D
330
10129
100
AcDbEntity
  8
0
100
AcDbLine
 10
3.0
 20
37.5
 30
0.0
 11
0.0
 21
37.5
 31
0.0
  0
LINE
  5
1013E
330
10129
100
AcDbEntity
  8
0
100
AcDbLine
 10
0.0
 20
37.5
 30
0.0
 11
0.0
 21
22.5
 31
0.0
  0
LINE
  5
1013F
330
10129
100
AcDbEntity
  8
0
100
AcDbLine
 10
0.0
 20
22.5
 30
0.0
 11
3.0
 21
22.5
 31
0.0
  0
LINE
  5
10140
330
10129
100
AcDbEntity
  8
0
100
AcDbLine
 10
3.0
 20
22.5
 30
0.0
 11
3.0
 21
7.5
 31
0.0
  0
LINE
  5
10141
330
10129
100
AcDbEntity
  8
0
100
AcDbLine
 10
3.0
 20
7.5
 30
0.0
 11
0.0
 21
7.5
 31
0.0
  0
LINE
  5
10142
330
10129
100
AcDbEntity
  8
0
100
AcDbLine
 10
0.0
 20
7.5
 30
0.0
 11
0.0
 21
3.0
 31
0.0
  0
LINE
  5
10143
330
10129
100
AcDbEntity
  8
0
100
AcDbLine
 10
0.0
 20
3.0
 30
0.0
 11
0.0
 21
0.0
 31
0.0
  0
LINE
  5
10144
330
10129
100
AcDbEntity
  8
0
100
AcDbLine
 10
0.0
 20
0.0
 30
0.0
 11
3.0
 21
0.0
 31
0.0
  0
LINE
  5
10145
330
10129
100
AcDbEntity
  8
0
100
AcDbLine
 10
3.0
 20
0.0
 30
0.0
 11
12.5
 21
0.0
 31
0.0
  0
LINE
  5
10146
330
10129
100
AcDbEntity
  8
0
100
AcDbLine
 10
12.5
 20
0.0
 30
0.0
 11
12.5
 21
3.0
 31
0.0
  0
LINE
  5
10147
330
10129
100
AcDbEntity
  8
0
100
AcDbLine
 10
12.5
 20
3.0
 30
0.0
 11
27.5
 21
3.0
 31
0.0
  0
LINE
  5
10148
330
10129
100
AcDbEntity
  8
0
100
AcDbLine
 10
27.5
 20
3.0
 30
0.0
 11
27.5
 21
0.0
 31
0.0
  0
LINE
  5
10149
330
10129
100
AcDbEntity
  8
0
100
AcDbLine
 10
27.5
 20
0.0
 30
0.0
 11
42.5
 21
0.0
 31
0.0
  0
LINE
  5
1014A
330
10129
100
AcDbEntity
  8
0
100
AcDbLine
 10
42.5
 20
0.0
 30
0.0
 11
42.5
 21
3.0
 31
0.0
  0
LINE
  5
1014B
330
10129
100
AcDbEntity
  8
0
100
AcDbLine
 10
42.5
 20
3.0
 30
0.0
 11
57.5
 21
3.0
 31
0.0
  0
LINE
  5
1014C
330
10129
100
AcDbEntity
  8
0
100
AcDbLine
 10
57.5
 20
3.0
 30
0.0
 11
57.5
 21
0.0
 31
0.0
  0
LINE
  5
1014D
330
10129
100
AcDbEntity
  8
0
100
AcDbLine
 10
57.5
 20
0.0
 30
0.0
 11
72.5
 21
0.0
 31
0.0
  0
LINE
  5
1014E
330
10129
100
AcDbEntity
  8
0
100
AcDbLine
 10
72.5
 20
0.0
 30
0.0
 11
72.5
 21
3.0
 31
0.0
  0
LINE
  5
1014F
330
10129
100
AcDbEntity
  8
0
100
AcDbLine
 10
72.5
 20
3.0
 30
0.0
 11
87.5
 21
3.0
 31
0.0
  0
LINE
  5
10150
330
10129
100
AcDbEntity
  8
0
100
AcDbLine
 10
87.5
 20
3.0
 30
0.0
 11
87.5
 21
0.0
 31
0.0
  0
LINE
  5
10151
330
10129
100
AcDbEntity
  8
0
100
AcDbLine
 10
87.5
 20
0.0
 30
0.0
 11
97.0
 21
0.0
 31
0.0
  0
LINE
  5
10152
330
10129
100
AcDbEntity
  8
0
100
AcDbLine
 10
97.0
 20
0.0
 30
0.0
 11
100.0
 21
0.0
 31
0.0
  0
LINE
  5
10153
330
10129
100
AcDbEntity
  8
0
100
AcDbLine
 10
100.0
 20
0.0
 30
0.0
 11
100.0
 21
3.0
 31
0.0
  0
LINE
  5
10154
330
10129
100
AcDbEntity
  8
0
100
AcDbLine
 10
100.0
 20
3.0
 30
0.0
 11
100.0
 21
7.5
 31
0.0
  0
LINE
  5
10155
330
10129
100
AcDbEntity
  8
0
100
AcDbLine
 10
100.0
 20
7.5
 30
0.0
 11
97.0
 21
7.5
 31
0.0
  0
LINE
  5
10156
330
10129
100
AcDbEntity
  8
0
100
AcDbLine
 10
97.0
 20
7.5
 30
0.0
 11
97.0
 21
22.5
 31
0.0
  0
LINE
  5
10157
330
10129
100
AcDbEntity
  8
0
100
AcDbLine
 10
97.0
 20
22.5
 30
0.0
 11
100.0
 21
22.5
 31
0.0
  0
LINE
  5
10158
330
10129
100
AcDbEntity
  8
0
100
AcDbLine
 10
100.0
 20
22.5
 30
0.0
 11
100.0
 21
37.5
 31
0.0
  0
LINE
  5
10159
330
10129
100
AcDbEntity
  8
0
100
AcDbLine
 10
100.0
 20
37.5
 30
0.0
 11
97.0
 21
37.5
 31
0.0
  0
LINE
  5
1015A
330
10129
100
AcDbEntity
  8
0
100
AcDbLine
 10
97.0
 20
37.5
 30
0.0
 11
97.0
 21
52.5
 31
0.0
  0
LINE
  5
1015B
330
10129
100
AcDbEntity
  8
0
100
AcDbLine
 10
97.0
 20
52.5
 30
0.0
 11
100.0
 21
52.5
 31
0.0
  0
LINE
  5
1015C
330
10129
100
AcDbEntity
  8
0
100
AcDbLine
 10
100.0
 20
52.5
 30
0.0
 11
100.0
 21
57.0
 31
0.0
  0
LINE
  5
1015D
330
10129
100
AcDbEntity
  8
0
100
AcDbLine
 10
100.0
 20
57.0
 30
0.0
 11
100.0
 21
60.0
 31
0.0
  0
LINE
  5
1015E
330
10129
100
AcDbEntity
  8
0
100
AcDbLine
 10
41.015
 20
33.40200000000002
 30
0.0
 11
41.951
 21
33.40200000000002
 31
0.0
  0
LINE
  5
1015F
330
10129
100
AcDbEntity
  8
0
100
AcDbLine
 10
41.951
 20
33.40200000000002
 30
0.0
 11
41.951
 21
26.68200000000002
 31
0.0
  0
LINE
  5
10160
330
10129
100
AcDbEntity
  8
0
100
AcDbLine
 10
41.951
 20
26.68200000000002
 30
0.0
 11
45.31100000000001
 21
26.68200000000002
 31
0.0
  0
LINE
  5
10161
330
10129
100
AcDbEntity
  8
0
100
AcDbLine
 10
45.31100000000001
 20
26.68200000000002
 30
0.0
 11
45.31100000000001
 21
25.86599999999999
 31
0.0
  0
LINE
  5
10162
330
10129
100
AcDbEntity
  8
0
100
AcDbLine
 10
45.31100000000001
 20
25.86599999999999
 30
0.0
 11
41.015
 21
25.86599999999999
 31
0.0
  0
LINE
  5
10163
330
10129
100
AcDbEntity
  8
0
100
AcDbLine
 10
41.015
 20
25.86599999999999
 30
0.0
 11
41.015
 21
33.40200000000002
 31
0.0
  0
LINE
  5
10164
330
10129
100
AcDbEntity
  8
0
100
AcDbLine
 10
41.015
 20
33.40200000000002
 30
0.0
 11
41.015
 21
33.40200000000002
 31
0.0
  0
LINE
  5
10165
330
10129
100
AcDbEntity
  8
0
100
AcDbLine
 10
48.61699999999999
 20
25.72200000000001
 30
0.0
 11
48.61699999999999
 21
25.72200000000001
 31
0.0
  0
LINE
  5
10166
330
10129
100
AcDbEntity
  8
0
100
AcDbLine
 10
48.61699999999999
 20
25.72200000000001
 30
0.0
 11
48.47
 21
25.726
 31
0.0
  0
LINE
  5
10167
330
10129
100
AcDbEntity
  8
0
100
AcDbLine
 10
48.47
 20
25.726
 30
0.0
 11
48.326
 21
25.737
 31
0.0
  0
LINE
  5
10168
330
10129
100
AcDbEntity
  8
0
100
AcDbLine
 10
48.326
 20
25.737
 30
0.0
 11
48.185
 21
25.75599999999997
 31
0.0
  0
LINE
  5
10169
330
10129
100
AcDbEntity
  8
0
100
AcDbLine
 10
48.185
 20
25.75599999999997
 30
0.0
 11
48.047
 21
25.78299999999999
 31
0.0
  0
LINE
  5
1016A
330
10129
100
AcDbEntity
  8
0
100
AcDbLine
 10
48.047
 20
25.78299999999999
 30
0.0
 11
47.913
 21
25.81700000000001
 31
0.0
  0
LINE
  5
1016B
330
10129
100
AcDbEntity
  8
0
100
AcDbLine
 10
47.913
 20
25.81700000000001
 30
0.0
 11
47.78100000000001
 21
25.85900000000001
 31
0.0
  0
LINE
  5
1016C
330
10129
100
AcDbEntity
  8
0
100
AcDbLine
 10
47.78100000000001
 20
25.85900000000001
 30
0.0
 11
47.65299999999999
 21
25.90900000000002
 31
0.0
  0
LINE
  5
1016D
330
10129
100
AcDbEntity
  8
0
100
AcDbLine
 10
47.65299999999999
 20
25.90900000000002
 30
0.0
 11
47.52799999999999
 21
25.96599999999998
 31
0.0
  0
LINE
  5
1016E
330
10129
100
AcDbEntity
  8
0
100
AcDbLine
 10
47.52799999999999
 20
25.96599999999998
 30
0.0
 11
47.40699999999999
 21
26.03099999999998
 31
0.0
  0
LINE
  5
1016F
330
10129
100
AcDbEntity
  8
0
100
AcDbLine
 10
47.40699999999999
 20
26.03099999999998
 30
0.0
 11
47.288
 21
26.10299999999998
 31
0.0
  0
LINE
  5
10170
330
10129
100
AcDbEntity
  8
0
100
AcDbLine
 10
47.288
 20
26.10299999999998
 30
0.0
 11
47.173
 21
26.18200000000002
 31
0.0
  0
LINE
  5
10171
330
10129
100
AcDbEntity
  8
0
100
AcDbLine
 10
47.173
 20
26.18200000000002
 30
0.0
 11
47.06399999999999
 21
26.267
 31
0.0
  0
LINE
  5
10172
330
10129
100
AcDbEntity
  8
0
100
AcDbLine
 10
47.06399999999999
 20
26.267
 30
0.0
 11
46.95899999999999
 21
26.35800000000001
 31
0.0
  0
LINE
  5
10173
330
10129
100
AcDbEntity
  8
0
100
AcDbLine
 10
46.95899999999999
 20
26.35800000000001
 30
0.0
 11
46.85899999999999
 21
26.45500000000001
 31
0.0
  0
LINE
  5
10174
330
10129
100
AcDbEntity
  8
0
100
AcDbLine
 10
46.85899999999999
 20
26.45500000000001
 30
0.0
 11
46.764
 21
26.55799999999999
 31
0.0
  0
LINE
  5
10175
330
10129
100
AcDbEntity
  8
0
100
AcDbLine
 10
46.764
 20
26.55799999999999
 30
0.0
 11
46.67499999999999
 21
26.667
 31
0.0
  0
LINE
  5
10176
330
10129
100
AcDbEntity
  8
0
100
AcDbLine
 10
46.67499999999999
 20
26.667
 30
0.0
 11
46.59
 21
26.78200000000001
 31
0.0
  0
LINE
  5
10177
330
10129
100
AcDbEntity
  8
0
100
AcDbLine
 10
46.59
 20
26.78200000000001
 30
0.0
 11
46.50899999999999
 21
26.90299999999999
 31
0.0
  0
LINE
  5
10178
330
10129
100
AcDbEntity
  8
0
100
AcDbLine
 10
46.50899999999999
 20
26.90299999999999
 30
0.0
 11
46.43399999999999
 21
27.02900000000003
 31
0.0
  0
LINE
  5
10179
330
10129
100
AcDbEntity
  8
0
100
AcDbLine
 10
46.43399999999999
 20
27.02900000000003
 30
0.0
 11
46.364
 21
27.16200000000001
 31
0.0
  0
LINE
  5
1017A
330
10129
100
AcDbEntity
  8
0
100
AcDbLine
 10
46.364
 20
27.16200000000001
 30
0.0
 11
46.29999999999999
 21
27.30000000000001
 31
0.0
  0
LINE
  5
1017B
330
10129
100
AcDbEntity
  8
0
100
AcDbLine
 10
46.29999999999999
 20
27.30000000000001
 30
0.0
 11
46.242
 21
27.44099999999998
 31
0.0
  0
LINE
  5
1017C
330
10129
100
AcDbEntity
  8
0
100
AcDbLine
 10
46.242
 20
27.44099999999998
 30
0.0
 11
46.191
 21
27.58700000000002
 31
0.0
  0
LINE
  5
1017D
330
10129
100
AcDbEntity
  8
0
100
AcDbLine
 10
46.191
 20
27.58700000000002
 30
0.0
 11
46.147
 21
27.737
 31
0.0
  0
LINE
  5
1017E
330
10129
100
AcDbEntity
  8
0
100
AcDbLine
 10
46.147
 20
27.737
 30
0.0
 11
46.10999999999999
 21
27.89099999999999
 31
0.0
  0
LINE
  5
1017F
330
10129
100
AcDbEntity
  8
0
100
AcDbLine
 10
46.10999999999999
 20
27.89099999999999
 30
0.0
 11
46.07899999999999
 21
28.04900000000001
 31
0.0
  0
LINE
  5
10180
330
10129
100
AcDbEntity
  8
0
100
AcDbLine
 10
46.07899999999999
 20
28.04900000000001
 30
0.0
 11
46.056
 21
28.21099999999999
 31
0.0
  0
LINE
  5
10181
330
10129
100
AcDbEntity
  8
0
100
AcDbLine
 10
46.056
 20
28.21099999999999
 30
0.0
 11
46.03899999999999
 21
28.37700000000001
 31
0.0
  0
LINE
  5
10182
330
10129
100
AcDbEntity
  8
0
100
AcDbLine
 10
46.03899999999999
 20
28.37700000000001
 30
0.0
 11
46.028
 21
28.548
 31
0.0
  0
LINE
  5
10183
330
10129
100
AcDbEntity
  8
0
100
AcDbLine
 10
46.028
 20
28.548
 30
0.0
 11
46.025
 21
28.72200000000001
 31
0.0
  0
LINE
  5
10184
330
10129
100
AcDbEntity
  8
0
100
AcDbLine
 10
46.025
 20
28.72200000000001
 30
0.0
 11
46.025
 21
28.72200000000001
 31
0.0
  0
LINE
  5
10185
330
10129
100
AcDbEntity
  8
0
100
AcDbLine
 10
46.025
 20
28.72200000000001
 30
0.0
 11
46.028
 21
28.90799999999999
 31
0.0
  0
LINE
  5
10186
330
10129
100
AcDbEntity
  8
0
100
AcDbLine
 10
46.028
 20
28.90799999999999
 30
0.0
 11
46.038
 21
29.08799999999999
 31
0.0
  0
LINE
  5
10187
330
10129
100
AcDbEntity
  8
0
100
AcDbLine
 10
46.038
 20
29.08799999999999
 30
0.0
 11
46.055
 21
29.26300000000001
 31
0.0
  0
LINE
  5
10188
330
10129
100
AcDbEntity
  8
0
100
AcDbLine
 10
46.055
 20
29.26300000000001
 30
0.0
 11
46.07899999999999
 21
29.43299999999999
 31
0.0
  0
LINE
  5
10189
330
10129
100
AcDbEntity
  8
0
100
AcDbLine
 10
46.07899999999999
 20
29.43299999999999
 30
0.0
 11
46.10899999999999
 21
29.59799999999999
 31
0.0
  0
LINE
  5
1018A
330
10129
100
AcDbEntity
  8
0
100
AcDbLine
 10
46.10899999999999
 20
29.59799999999999
 30
0.0
 11
46.146
 21
29.75700000000001
 31
0.0
  0
LINE
  5
1018B
330
10129
100
AcDbEntity
  8
0
100
AcDbLine
 10
46.146
 20
29.75700000000001
 30
0.0
 11
46.18999999999999
 21
29.91099999999998
 31
0.0
  0
LINE
  5
1018C
330
10129
100
AcDbEntity
  8
0
100
AcDbLine
 10
46.18999999999999
 20
29.91099999999998
 30
0.0
 11
46.24
 21
30.06
 31
0.0
  0
LINE
  5
1018D
330
10129
100
AcDbEntity
  8
0
100
AcDbLine
 10
46.24
 20
30.06
 30
0.0
 11
46.29699999999999
 21
30.20400000000001
 31
0.0
  0
LINE
  5
1018E
330
10129
100
AcDbEntity
  8
0
100
AcDbLine
 10
46.29699999999999
 20
30.20400000000001
 30
0.0
 11
46.361
 21
30.34200000000002
 31
0.0
  0
LINE
  5
1018F
330
10129
100
AcDbEntity
  8
0
100
AcDbLine
 10
46.361
 20
30.34200000000002
 30
0.0
 11
46.431
 21
30.47400000000002
 31
0.0
  0
LINE
  5
10190
330
10129
100
AcDbEntity
  8
0
100
AcDbLine
 10
46.431
 20
30.47400000000002
 30
0.0
 11
46.505
 21
30.601
 31
0.0
  0
LINE
  5
10191
330
10129
100
AcDbEntity
  8
0
100
AcDbLine
 10
46.505
 20
30.601
 30
0.0
 11
46.585
 21
30.72
 31
0.0
  0
LINE
  5
10192
330
10129
100
AcDbEntity
  8
0
100
AcDbLine
 10
46.585
 20
30.72
 30
0.0
 11
46.67
 21
30.83400000000001
 31
0.0
  0
LINE
  5
10193
330
10129
100
AcDbEntity
  8
0
100
AcDbLine
 10
46.67
 20
30.83400000000001
 30
0.0
 11
46.75899999999999
 21
30.94099999999997
 31
0.0
  0
LINE
  5
10194
330
10129
100
AcDbEntity
  8
0
100
AcDbLine
 10
46.75899999999999
 20
30.94099999999997
 30
0.0
 11
46.854
 21
31.042
 31
0.0
  0
LINE
  5
10195
330
10129
100
AcDbEntity
  8
0
100
AcDbLine
 10
46.854
 20
31.042
 30
0.0
 11
46.953
 21
31.137
 31
0.0
  0
LINE
  5
10196
330
10129
100
AcDbEntity
  8
0
100
AcDbLine
 10
46.953
 20
31.137
 30
0.0
 11
47.05799999999999
 21
31.225
 31
0.0
  0
LINE
  5
10197
330
10129
100
AcDbEntity
  8
0
100
AcDbLine
 10
47.05799999999999
 20
31.225
 30
0.0
 11
47.167
 21
31.30700000000002
 31
0.0
  0
LINE
  5
10198
330
10129
100
AcDbEntity
  8
0
100
AcDbLine
 10
47.167
 20
31.30700000000002
 30
0.0
 11
47.282
 21
31.38299999999998
 31
0.0
  0
LINE
  5
10199
330
10129
100
AcDbEntity
  8
0
100
AcDbLine
 10
47.282
 20
31.38299999999998
 30
0.0
 11
47.401
 21
31.452
 31
0.0
  0
LINE
  5
1019A
330
10129
100
AcDbEntity
  8
0
100
AcDbLine
 10
47.401
 20
31.452
 30
0.0
 11
47.523
 21
31.51400000000001
 31
0.0
  0
LINE
  5
1019B
330
10129
100
AcDbEntity
  8
0
100
AcDbLine
 10
47.523
 20
31.51400000000001
 30
0.0
 11
47.648
 21
31.56799999999999
 31
0.0
  0
LINE
  5
1019C
330
10129
100
AcDbEntity
  8
0
100
AcDbLine
 10
47.648
 20
31.56799999999999
 30
0.0
 11
47.776
 21
31.61500000000001
 31
0.0
  0
LINE
  5
1019D
330
10129
100
AcDbEntity
  8
0
100
AcDbLine
 10
47.776
 20
31.61500000000001
 30
0.0
 11
47.90799999999999
 21
31.655
 31
0.0
  0
LINE
  5
1019E
330
10129
100
AcDbEntity
  8
0
100
AcDbLine
 10
47.90799999999999
 20
31.655
 30
0.0
 11
48.043
 21
31.68799999999999
 31
0.0
  0
LINE
  5
1019F
330
10129
100
AcDbEntity
  8
0
100
AcDbLine
 10
48.043
 20
31.68799999999999
 30
0.0
 11
48.182
 21
31.713
 31
0.0
  0
LINE
  5
101A0
330
10129
100
AcDbEntity
  8
0
100
AcDbLine
 10
48.182
 20
31.713
 30
0.0
 11
48.32399999999999
 21
31.731
 31
0.0
  0
LINE
  5
101A1
330
10129
100
AcDbEntity
  8
0
100
AcDbLine
 10
48.32399999999999
 20
31.731
 30
0.0
 11
48.46899999999999
 21
31.74200000000002
 31
0.0
  0
LINE
  5
101A2
330
10129
100
AcDbEntity
  8
0
100
AcDbLine
 10
48.46899999999999
 20
31.74200000000002
 30
0.0
 11
48.61699999999999
 21
31.74599999999998
 31
0.0
  0
LINE
  5
101A3
330
10129
100
AcDbEntity
  8
0
100
AcDbLine
 10
48.61699999999999
 20
31.74599999999998
 30
0.0
 11
48.61699999999999
 21
31.74599999999998
 31
0.0
  0
LINE
  5
101A4
330
10129
100
AcDbEntity
  8
0
100
AcDbLine
 10
48.61699999999999
 20
31.74599999999998
 30
0.0
 11
48.746
 21
31.743
 31
0.0
  0
LINE
  5
101A5
330
10129
100
AcDbEntity
  8
0
100
AcDbLine
 10
48.746
 20
31.743
 30
0.0
 11
48.871
 21
31.73500000000001
 31
0.0
  0
LINE
  5
101A6
330
10129
100
AcDbEntity
  8
0
100
AcDbLine
 10
48.871
 20
31.73500000000001
 30
0.0
 11
48.992
 21
31.72200000000001
 31
0.0
  0
LINE
  5
101A7
330
10129
100
AcDbEntity
  8
0
100
AcDbLine
 10
48.992
 20
31.72200000000001
 30
0.0
 11
49.10899999999999
 21
31.70400000000001
 31
0.0
  0
LINE
  5
101A8
330
10129
100
AcDbEntity
  8
0
100
AcDbLine
 10
49.10899999999999
 20
31.70400000000001
 30
0.0
 11
49.22299999999999
 21
31.68000000000001
 31
0.0
  0
LINE
  5
101A9
330
10129
100
AcDbEntity
  8
0
100
AcDbLine
 10
49.22299999999999
 20
31.68000000000001
 30
0.0
 11
49.333
 21
31.65099999999998
 31
0.0
  0
LINE
  5
101AA
330
10129
100
AcDbEntity
  8
0
100
AcDbLine
 10
49.333
 20
31.65099999999998
 30
0.0
 11
49.43899999999999
 21
31.61700000000002
 31
0.0
  0
LINE
  5
101AB
330
10129
100
AcDbEntity
  8
0
100
AcDbLine
 10
49.43899999999999
 20
31.61700000000002
 30
0.0
 11
49.541
 21
31.577
 31
0.0
  0
LINE
  5
101AC
330
10129
100
AcDbEntity
  8
0
100
AcDbLine
 10
49.541
 20
31.577
 30
0.0
 11
49.63899999999999
 21
31.53200000000001
 31
0.0
  0
LINE
  5
101AD
330
10129
100
AcDbEntity
  8
0
100
AcDbLine
 10
49.63899999999999
 20
31.53200000000001
 30
0.0
 11
49.733
 21
31.482
 31
0.0
  0
LINE
  5
101AE
330
10129
100
AcDbEntity
  8
0
100
AcDbLine
 10
49.733
 20
31.482
 30
0.0
 11
49.824
 21
31.42700000000002
 31
0.0
  0
LINE
  5
101AF
330
10129
100
AcDbEntity
  8
0
100
AcDbLine
 10
49.824
 20
31.42700000000002
 30
0.0
 11
49.911
 21
31.36900000000003
 31
0.0
  0
LINE
  5
101B0
330
10129
100
AcDbEntity
  8
0
100
AcDbLine
 10
49.911
 20
31.36900000000003
 30
0.0
 11
49.994
 21
31.30700000000002
 31
0.0
  0
LINE
  5
101B1
330
10129
100
AcDbEntity
  8
0
100
AcDbLine
 10
49.994
 20
31.30700000000002
 30
0.0
 11
50.074
 21
31.24099999999998
 31
0.0
  0
LINE
  5
101B2
330
10129
100
AcDbEntity
  8
0
100
AcDbLine
 10
50.074
 20
31.24099999999998
 30
0.0
 11
50.15
 21
31.172
 31
0.0
  0
LINE
  5
101B3
330
10129
100
AcDbEntity
  8
0
100
AcDbLine
 10
50.15
 20
31.172
 30
0.0
 11
50.223
 21
31.09799999999999
 31
0.0
  0
LINE
  5
101B4
330
10129
100
AcDbEntity
  8
0
100
AcDbLine
 10
50.223
 20
31.09799999999999
 30
0.0
 11
50.292
 21
31.02099999999999
 31
0.0
  0
LINE
  5
101B5
330
10129
100
AcDbEntity
  8
0
100
AcDbLine
 10
50.292
 20
31.02099999999999
 30
0.0
 11
50.357
 21
30.94099999999997
 31
0.0
  0
LINE
  5
101B6
330
10129
100
AcDbEntity
  8
0
100
AcDbLine
 10
50.357
 20
30.94099999999997
 30
0.0
 11
50.419
 21
30.85599999999999
 31
0.0
  0
LINE
  5
101B7
330
10129
100
AcDbEntity
  8
0
100
AcDbLine
 10
50.419
 20
30.85599999999999
 30
0.0
 11
50.47699999999999
 21
30.768
 31
0.0
  0
LINE
  5
101B8
330
10129
100
AcDbEntity
  8
0
100
AcDbLine
 10
50.47699999999999
 20
30.768
 30
0.0
 11
50.532
 21
30.67700000000002
 31
0.0
  0
LINE
  5
101B9
330
10129
100
AcDbEntity
  8
0
100
AcDbLine
 10
50.532
 20
30.67700000000002
 30
0.0
 11
50.583
 21
30.583
 31
0.0
  0
LINE
  5
101BA
330
10129
100
AcDbEntity
  8
0
100
AcDbLine
 10
50.583
 20
30.583
 30
0.0
 11
50.631
 21
30.487
 31
0.0
  0
LINE
  5
101BB
330
10129
100
AcDbEntity
  8
0
100
AcDbLine
 10
50.631
 20
30.487
 30
0.0
 11
50.67499999999999
 21
30.38900000000001
 31
0.0
  0
LINE
  5
101BC
330
10129
100
AcDbEntity
  8
0
100
AcDbLine
 10
50.67499999999999
 20
30.38900000000001
 30
0.0
 11
50.716
 21
30.28900000000002
 31
0.0
  0
LINE
  5
101BD
330
10129
100
AcDbEntity
  8
0
100
AcDbLine
 10
50.716
 20
30.28900000000002
 30
0.0
 11
50.754
 21
30.18599999999998
 31
0.0
  0
LINE
  5
101BE
330
10129
100
AcDbEntity
  8
0
100
AcDbLine
 10
50.754
 20
30.18599999999998
 30
0.0
 11
50.78800000000001
 21
30.08099999999999
 31
0.0
  0
LINE
  5
101BF
330
10129
100
AcDbEntity
  8
0
100
AcDbLine
 10
50.78800000000001
 20
30.08099999999999
 30
0.0
 11
50.819
 21
29.97299999999999
 31
0.0
  0
LINE
  5
101C0
330
10129
100
AcDbEntity
  8
0
100
AcDbLine
 10
50.819
 20
29.97299999999999
 30
0.0
 11
50.846
 21
29.863
 31
0.0
  0
LINE
  5
101C1
330
10129
100
AcDbEntity
  8
0
100
AcDbLine
 10
50.846
 20
29.863
 30
0.0
 11
50.86999999999999
 21
29.75099999999997
 31
0.0
  0
LINE
  5
101C2
330
10129
100
AcDbEntity
  8
0
100
AcDbLine
 10
50.86999999999999
 20
29.75099999999997
 30
0.0
 11
50.89100000000001
 21
29.637
 31
0.0
  0
LINE
  5
101C3
330
10129
100
AcDbEntity
  8
0
100
AcDbLine
 10
50.89100000000001
 20
29.637
 30
0.0
 11
50.908
 21
29.523
 31
0.0
  0
LINE
  5
101C4
330
10129
100
AcDbEntity
  8
0
100
AcDbLine
 10
50.908
 20
29.523
 30
0.0
 11
50.922
 21
29.40700000000001
 31
0.0
  0
LINE
  5
101C5
330
10129
100
AcDbEntity
  8
0
100
AcDbLine
 10
50.922
 20
29.40700000000001
 30
0.0
 11
50.933
 21
29.291
 31
0.0
  0
LINE
  5
101C6
330
10129
100
AcDbEntity
  8
0
100
AcDbLine
 10
50.933
 20
29.291
 30
0.0
 11
50.941
 21
29.17400000000001
 31
0.0
  0
LINE
  5
101C7
330
10129
100
AcDbEntity
  8
0
100
AcDbLine
 10
50.941
 20
29.17400000000001
 30
0.0
 11
50.946
 21
29.05700000000002
 31
0.0
  0
LINE
  5
101C8
330
10129
100
AcDbEntity
  8
0
100
AcDbLine
 10
50.946
 20
29.05700000000002
 30
0.0
 11
50.94699999999999
 21
28.93799999999999
 31
0.0
  0
LINE
  5
101C9
330
10129
100
AcDbEntity
  8
0
100
AcDbLine
 10
50.94699999999999
 20
28.93799999999999
 30
0.0
 11
50.946
 21
28.81900000000002
 31
0.0
  0
LINE
  5
101CA
330
10129
100
AcDbEntity
  8
0
100
AcDbLine
 10
50.946
 20
28.81900000000002
 30
0.0
 11
50.941
 21
28.69900000000001
 31
0.0
  0
LINE
  5
101CB
330
10129
100
AcDbEntity
  8
0
100
AcDbLine
 10
50.941
 20
28.69900000000001
 30
0.0
 11
50.933
 21
28.57800000000001
 31
0.0
  0
LINE
  5
101CC
330
10129
100
AcDbEntity
  8
0
100
AcDbLine
 10
50.933
 20
28.57800000000001
 30
0.0
 11
50.933
 21
28.57800000000001
 31
0.0
  0
LINE
  5
101CD
330
10129
100
AcDbEntity
  8
0
100
AcDbLine
 10
50.933
 20
28.57800000000001
 30
0.0
 11
46.781
 21
28.57800000000001
 31
0.0
  0
LINE
  5
101CE
330
10129
100
AcDbEntity
  8
0
100
AcDbLine
 10
46.781
 20
28.57800000000001
 30
0.0
 11
46.781
 21
29.15400000000003
 31
0.0
  0
LINE
  5
101CF
330
10129
100
AcDbEntity
  8
0
100
AcDbLine
 10
46.781
 20
29.15400000000003
 30
0.0
 11
50.315
 21
29.15400000000003
 31
0.0
  0
LINE
  5
101D0
330
10129
100
AcDbEntity
  8
0
100
AcDbLine
 10
50.315
 20
29.15400000000003
 30
0.0
 11
50.03899999999999
 21
28.97400000000002
 31
0.0
  0
LINE
  5
101D1
330
10129
100
AcDbEntity
  8
0
100
AcDbLine
 10
50.03899999999999
 20
28.97400000000002
 30
0.0
 11
50.042
 21
29.04499999999999
 31
0.0
  0
LINE
  5
101D2
330
10129
100
AcDbEntity
  8
0
100
AcDbLine
 10
50.042
 20
29.04499999999999
 30
0.0
 11
50.043
 21
29.11599999999999
 31
0.0
  0
LINE
  5
101D3
330
10129
100
AcDbEntity
  8
0
100
AcDbLine
 10
50.043
 20
29.11599999999999
 30
0.0
 11
50.043
 21
29.18599999999998
 31
0.0
  0
LINE
  5
101D4
330
10129
100
AcDbEntity
  8
0
100
AcDbLine
 10
50.043
 20
29.18599999999998
 30
0.0
 11
50.04100000000001
 21
29.25700000000001
 31
0.0
  0
LINE
  5
101D5
330
10129
100
AcDbEntity
  8
0
100
AcDbLine
 10
50.04100000000001
 20
29.25700000000001
 30
0.0
 11
50.038
 21
29.328
 31
0.0
  0
LINE
  5
101D6
330
10129
100
AcDbEntity
  8
0
100
AcDbLine
 10
50.038
 20
29.328
 30
0.0
 11
50.034
 21
29.399
 31
0.0
  0
LINE
  5
101D7
330
10129
100
AcDbEntity
  8
0
100
AcDbLine
 10
50.034
 20
29.399
 30
0.0
 11
50.027
 21
29.47
 31
0.0
  0
LINE
  5
101D8
330
10129
100
AcDbEntity
  8
0
100
AcDbLine
 10
50.027
 20
29.47
 30
0.0
 11
50.02
 21
29.53999999999999
 31
0.0
  0
LINE
  5
101D9
330
10129
100
AcDbEntity
  8
0
100
AcDbLine
 10
50.02
 20
29.53999999999999
 30
0.0
 11
50.011
 21
29.61099999999999
 31
0.0
  0
LINE
  5
101DA
330
10129
100
AcDbEntity
  8
0
100
AcDbLine
 10
50.011
 20
29.61099999999999
 30
0.0
 11
50.0
 21
29.68200000000002
 31
0.0
  0
LINE
  5
101DB
330
10129
100
AcDbEntity
  8
0
100
AcDbLine
 10
50.0
 20
29.68200000000002
 30
0.0
 11
49.988
 21
29.75200000000001
 31
0.0
  0
LINE
  5
101DC
330
10129
100
AcDbEntity
  8
0
100
AcDbLine
 10
49.988
 20
29.75200000000001
 30
0.0
 11
49.973
 21
29.821
 31
0.0
  0
LINE
  5
101DD
330
10129
100
AcDbEntity
  8
0
100
AcDbLine
 10
49.973
 20
29.821
 30
0.0
 11
49.957
 21
29.88900000000001
 31
0.0
  0
LINE
  5
101DE
330
10129
100
AcDbEntity
  8
0
100
AcDbLine
 10
49.957
 20
29.88900000000001
 30
0.0
 11
49.939
 21
29.95599999999999
 31
0.0
  0
LINE
  5
101DF
330
10129
100
AcDbEntity
  8
0
100
AcDbLine
 10
49.939
 20
29.95599999999999
 30
0.0
 11
49.918
 21
30.02200000000002
 31
0.0
  0
LINE
  5
101E0
330
10129
100
AcDbEntity
  8
0
100
AcDbLine
 10
49.918
 20
30.02200000000002
 30
0.0
 11
49.896
 21
30.08599999999999
 31
0.0
  0
LINE
  5
101E1
330
10129
100
AcDbEntity
  8
0
100
AcDbLine
 10
49.896
 20
30.08599999999999
 30
0.0
 11
49.872
 21
30.15000000000001
 31
0.0
  0
LINE
  5
101E2
330
10129
100
AcDbEntity
  8
0
100
AcDbLine
 10
49.872
 20
30.15000000000001
 30
0.0
 11
49.845
 21
30.21200000000002
 31
0.0
  0
LINE
  5
101E3
330
10129
100
AcDbEntity
  8
0
100
AcDbLine
 10
49.845
 20
30.21200000000002
 30
0.0
 11
49.817
 21
30.273
 31
0.0
  0
LINE
  5
101E4
330
10129
100
AcDbEntity
  8
0
100
AcDbLine
 10
49.817
 20
30.273
 30
0.0
 11
49.78699999999999
 21
30.333
 31
0.0
  0
LINE
  5
101E5
330
10129
100
AcDbEntity
  8
0
100
AcDbLine
 10
49.78699999999999
 20
30.333
 30
0.0
 11
49.755
 21
30.39099999999999
 31
0.0
  0
LINE
  5
101E6
330
10129
100
AcDbEntity
  8
0
100
AcDbLine
 10
49.755
 20
30.39099999999999
 30
0.0
 11
49.72
 21
30.44700000000001
 31
0.0
  0
LINE
  5
101E7
330
10129
100
AcDbEntity
  8
0
100
AcDbLine
 10
49.72
 20
30.44700000000001
 30
0.0
 11
49.68199999999999
 21
30.50099999999998
 31
0.0
  0
LINE
  5
101E8
330
10129
100
AcDbEntity
  8
0
100
AcDbLine
 10
49.68199999999999
 20
30.50099999999998
 30
0.0
 11
49.64199999999999
 21
30.55200000000002
 31
0.0
  0
LINE
  5
101E9
330
10129
100
AcDbEntity
  8
0
100
AcDbLine
 10
49.64199999999999
 20
30.55200000000002
 30
0.0
 11
49.599
 21
30.601
 31
0.0
  0
LINE
  5
101EA
330
10129
100
AcDbEntity
  8
0
100
AcDbLine
 10
49.599
 20
30.601
 30
0.0
 11
49.554
 21
30.64700000000002
 31
0.0
  0
LINE
  5
101EB
330
10129
100
AcDbEntity
  8
0
100
AcDbLine
 10
49.554
 20
30.64700000000002
 30
0.0
 11
49.507
 21
30.69099999999997
 31
0.0
  0
LINE
  5
101EC
330
10129
100
AcDbEntity
  8
0
100
AcDbLine
 10
49.507
 20
30.69099999999997
 30
0.0
 11
49.457
 21
30.73300000000001
 31
0.0
  0
LINE
  5
101ED
330
10129
100
AcDbEntity
  8
0
100
AcDbLine
 10
49.457
 20
30.73300000000001
 30
0.0
 11
49.404
 21
30.773
 31
0.0
  0
LINE
  5
101EE
330
10129
100
AcDbEntity
  8
0
100
AcDbLine
 10
49.404
 20
30.773
 30
0.0
 11
49.34899999999999
 21
30.81
 31
0.0
  0
LINE
  5
101EF
330
10129
100
AcDbEntity
  8
0
100
AcDbLine
 10
49.34899999999999
 20
30.81
 30
0.0
 11
49.291
 21
30.84400000000002
 31
0.0
  0
LINE
  5
101F0
330
10129
100
AcDbEntity
  8
0
100
AcDbLine
 10
49.291
 20
30.84400000000002
 30
0.0
 11
49.23
 21
30.875
 31
0.0
  0
LINE
  5
101F1
330
10129
100
AcDbEntity
  8
0
100
AcDbLine
 10
49.23
 20
30.875
 30
0.0
 11
49.166
 21
30.90200000000002
 31
0.0
  0
LINE
  5
101F2
330
10129
100
AcDbEntity
  8
0
100
AcDbLine
 10
49.166
 20
30.90200000000002
 30
0.0
 11
49.098
 21
30.92500000000001
 31
0.0
  0
LINE
  5
101F3
330
10129
100
AcDbEntity
  8
0
100
AcDbLine
 10
49.098
 20
30.92500000000001
 30
0.0
 11
49.028
 21
30.945
 31
0.0
  0
LINE
  5
101F4
330
10129
100
AcDbEntity
  8
0
100
AcDbLine
 10
49.028
 20
30.945
 30
0.0
 11
48.95399999999999
 21
30.96099999999998
 31
0.0
  0
LINE
  5
101F5
330
10129
100
AcDbEntity
  8
0
100
AcDbLine
 10
48.95399999999999
 20
30.96099999999998
 30
0.0
 11
48.878
 21
30.97400000000002
 31
0.0
  0
LINE
  5
101F6
330
10129
100
AcDbEntity
  8
0
100
AcDbLine
 10
48.878
 20
30.97400000000002
 30
0.0
 11
48.798
 21
30.983
 31
0.0
  0
LINE
  5
101F7
330
10129
100
AcDbEntity
  8
0
100
AcDbLine
 10
48.798
 20
30.983
 30
0.0
 11
48.71500000000001
 21
30.988
 31
0.0
  0
LINE
  5
101F8
330
10129
100
AcDbEntity
  8
0
100
AcDbLine
 10
48.71500000000001
 20
30.988
 30
0.0
 11
48.62899999999999
 21
30.99000000000001
 31
0.0
  0
LINE
  5
101F9
330
10129
100
AcDbEntity
  8
0
100
AcDbLine
 10
48.62899999999999
 20
30.99000000000001
 30
0.0
 11
48.62899999999999
 21
30.99000000000001
 31
0.0
  0
LINE
  5
101FA
330
10129
100
AcDbEntity
  8
0
100
AcDbLine
 10
48.62899999999999
 20
30.99000000000001
 30
0.0
 11
48.52
 21
30.987
 31
0.0
  0
LINE
  5
101FB
330
10129
100
AcDbEntity
  8
0
100
AcDbLine
 10
48.52
 20
30.987
 30
0.0
 11
48.41499999999999
 21
30.97900000000001
 31
0.0
  0
LINE
  5
101FC
330
10129
100
AcDbEntity
  8
0
100
AcDbLine
 10
48.41499999999999
 20
30.97900000000001
 30
0.0
 11
48.31399999999999
 21
30.96500000000001
 31
0.0
  0
LINE
  5
101FD
330
10129
100
AcDbEntity
  8
0
100
AcDbLine
 10
48.31399999999999
 20
30.96500000000001
 30
0.0
 11
48.216
 21
30.945
 31
0.0
  0
LINE
  5
101FE
330
10129
100
AcDbEntity
  8
0
100
AcDbLine
 10
48.216
 20
30.945
 30
0.0
 11
48.122
 21
30.91900000000001
 31
0.0
  0
LINE
  5
101FF
330
10129
100
AcDbEntity
  8
0
100
AcDbLine
 10
48.122
 20
30.91900000000001
 30
0.0
 11
48.031
 21
30.88800000000001
 31
0.0
  0
LINE
  5
10200
330
10129
100
AcDbEntity
  8
0
100
AcDbLine
 10
48.031
 20
30.88800000000001
 30
0.0
 11
47.94399999999999
 21
30.852
 31
0.0
  0
LINE
  5
10201
330
10129
100
AcDbEntity
  8
0
100
AcDbLine
 10
47.94399999999999
 20
30.852
 30
0.0
 11
47.861
 21
30.81
 31
0.0
  0
LINE
  5
10202
330
10129
100
AcDbEntity
  8
0
100
AcDbLine
 10
47.861
 20
30.81
 30
0.0
 11
47.78100000000001
 21
30.762
 31
0.0
  0
LINE
  5
10203
330
10129
100
AcDbEntity
  8
0
100
AcDbLine
 10
47.78100000000001
 20
30.762
 30
0.0
 11
47.705
 21
30.708
 31
0.0
  0
LINE
  5
10204
330
10129
100
AcDbEntity
  8
0
100
AcDbLine
 10
47.705
 20
30.708
 30
0.0
 11
47.632
 21
30.65000000000001
 31
0.0
  0
LINE
  5
10205
330
10129
100
AcDbEntity
  8
0
100
AcDbLine
 10
47.632
 20
30.65000000000001
 30
0.0
 11
47.56399999999999
 21
30.588
 31
0.0
  0
LINE
  5
10206
330
10129
100
AcDbEntity
  8
0
100
AcDbLine
 10
47.56399999999999
 20
30.588
 30
0.0
 11
47.49899999999999
 21
30.523
 31
0.0
  0
LINE
  5
10207
330
10129
100
AcDbEntity
  8
0
100
AcDbLine
 10
47.49899999999999
 20
30.523
 30
0.0
 11
47.43699999999999
 21
30.45400000000001
 31
0.0
  0
LINE
  5
10208
330
10129
100
AcDbEntity
  8
0
100
AcDbLine
 10
47.43699999999999
 20
30.45400000000001
 30
0.0
 11
47.38
 21
30.38200000000001
 31
0.0
  0
LINE
  5
10209
330
10129
100
AcDbEntity
  8
0
100
AcDbLine
 10
47.38
 20
30.38200000000001
 30
0.0
 11
47.326
 21
30.30599999999998
 31
0.0
  0
LINE
  5
1020A
330
10129
100
AcDbEntity
  8
0
100
AcDbLine
 10
47.326
 20
30.30599999999998
 30
0.0
 11
47.275
 21
30.226
 31
0.0
  0
LINE
  5
1020B
330
10129
100
AcDbEntity
  8
0
100
AcDbLine
 10
47.275
 20
30.226
 30
0.0
 11
47.229
 21
30.14400000000001
 31
0.0
  0
LINE
  5
1020C
330
10129
100
AcDbEntity
  8
0
100
AcDbLine
 10
47.229
 20
30.14400000000001
 30
0.0
 11
47.18600000000001
 21
30.05700000000002
 31
0.0
  0
LINE
  5
1020D
330
10129
100
AcDbEntity
  8
0
100
AcDbLine
 10
47.18600000000001
 20
30.05700000000002
 30
0.0
 11
47.14699999999999
 21
29.96700000000002
 31
0.0
  0
LINE
  5
1020E
330
10129
100
AcDbEntity
  8
0
100
AcDbLine
 10
47.14699999999999
 20
29.96700000000002
 30
0.0
 11
47.11199999999999
 21
29.87400000000003
 31
0.0
  0
LINE
  5
1020F
330
10129
100
AcDbEntity
  8
0
100
AcDbLine
 10
47.11199999999999
 20
29.87400000000003
 30
0.0
 11
47.08
 21
29.78
 31
0.0
  0
LINE
  5
10210
330
10129
100
AcDbEntity
  8
0
100
AcDbLine
 10
47.08
 20
29.78
 30
0.0
 11
47.052
 21
29.685
 31
0.0
  0
LINE
  5
10211
330
10129
100
AcDbEntity
  8
0
100
AcDbLine
 10
47.052
 20
29.685
 30
0.0
 11
47.02799999999999
 21
29.588
 31
0.0
  0
LINE
  5
10212
330
10129
100
AcDbEntity
  8
0
100
AcDbLine
 10
47.02799999999999
 20
29.588
 30
0.0
 11
47.008
 21
29.489
 31
0.0
  0
LINE
  5
10213
330
10129
100
AcDbEntity
  8
0
100
AcDbLine
 10
47.008
 20
29.489
 30
0.0
 11
46.991
 21
29.38900000000001
 31
0.0
  0
LINE
  5
10214
330
10129
100
AcDbEntity
  8
0
100
AcDbLine
 10
46.991
 20
29.38900000000001
 30
0.0
 11
46.97799999999999
 21
29.28799999999998
 31
0.0
  0
LINE
  5
10215
330
10129
100
AcDbEntity
  8
0
100
AcDbLine
 10
46.97799999999999
 20
29.28799999999998
 30
0.0
 11
46.968
 21
29.185
 31
0.0
  0
LINE
  5
10216
330
10129
100
AcDbEntity
  8
0
100
AcDbLine
 10
46.968
 20
29.185
 30
0.0
 11
46.96299999999999
 21
29.08000000000001
 31
0.0
  0
LINE
  5
10217
330
10129
100
AcDbEntity
  8
0
100
AcDbLine
 10
46.96299999999999
 20
29.08000000000001
 30
0.0
 11
46.961
 21
28.97400000000002
 31
0.0
  0
LINE
  5
10218
330
10129
100
AcDbEntity
  8
0
100
AcDbLine
 10
46.961
 20
28.97400000000002
 30
0.0
 11
46.961
 21
28.97400000000002
 31
0.0
  0
LINE
  5
10219
330
10129
100
AcDbEntity
  8
0
100
AcDbLine
 10
46.961
 20
28.97400000000002
 30
0.0
 11
46.961
 21
28.59
 31
0.0
  0
LINE
  5
1021A
330
10129
100
AcDbEntity
  8
0
100
AcDbLine
 10
46.961
 20
28.59
 30
0.0
 11
46.96299999999999
 21
28.47099999999997
 31
0.0
  0
LINE
  5
1021B
330
10129
100
AcDbEntity
  8
0
100
AcDbLine
 10
46.96299999999999
 20
28.47099999999997
 30
0.0
 11
46.968
 21
28.35499999999999
 31
0.0
  0
LINE
  5
1021C
330
10129
100
AcDbEntity
  8
0
100
AcDbLine
 10
46.968
 20
28.35499999999999
 30
0.0
 11
46.977
 21
28.24099999999999
 31
0.0
  0
LINE
  5
1021D
330
10129
100
AcDbEntity
  8
0
100
AcDbLine
 10
46.977
 20
28.24099999999999
 30
0.0
 11
46.99
 21
28.13
 31
0.0
  0
LINE
  5
1021E
330
10129
100
AcDbEntity
  8
0
100
AcDbLine
 10
46.99
 20
28.13
 30
0.0
 11
47.007
 21
28.02200000000002
 31
0.0
  0
LINE
  5
1021F
330
10129
100
AcDbEntity
  8
0
100
AcDbLine
 10
47.007
 20
28.02200000000002
 30
0.0
 11
47.027
 21
27.91499999999999
 31
0.0
  0
LINE
  5
10220
330
10129
100
AcDbEntity
  8
0
100
AcDbLine
 10
47.027
 20
27.91499999999999
 30
0.0
 11
47.051
 21
27.81200000000001
 31
0.0
  0
LINE
  5
10221
330
10129
100
AcDbEntity
  8
0
100
AcDbLine
 10
47.051
 20
27.81200000000001
 30
0.0
 11
47.078
 21
27.71099999999999
 31
0.0
  0
LINE
  5
10222
330
10129
100
AcDbEntity
  8
0
100
AcDbLine
 10
47.078
 20
27.71099999999999
 30
0.0
 11
47.10899999999999
 21
27.612
 31
0.0
  0
LINE
  5
10223
330
10129
100
AcDbEntity
  8
0
100
AcDbLine
 10
47.10899999999999
 20
27.612
 30
0.0
 11
47.144
 21
27.51599999999999
 31
0.0
  0
LINE
  5
10224
330
10129
100
AcDbEntity
  8
0
100
AcDbLine
 10
47.144
 20
27.51599999999999
 30
0.0
 11
47.18199999999999
 21
27.423
 31
0.0
  0
LINE
  5
10225
330
10129
100
AcDbEntity
  8
0
100
AcDbLine
 10
47.18199999999999
 20
27.423
 30
0.0
 11
47.225
 21
27.334
 31
0.0
  0
LINE
  5
10226
330
10129
100
AcDbEntity
  8
0
100
AcDbLine
 10
47.225
 20
27.334
 30
0.0
 11
47.27
 21
27.24900000000002
 31
0.0
  0
LINE
  5
10227
330
10129
100
AcDbEntity
  8
0
100
AcDbLine
 10
47.27
 20
27.24900000000002
 30
0.0
 11
47.32
 21
27.16800000000001
 31
0.0
  0
LINE
  5
10228
330
10129
100
AcDbEntity
  8
0
100
AcDbLine
 10
47.32
 20
27.16800000000001
 30
0.0
 11
47.373
 21
27.09099999999998
 31
0.0
  0
LINE
  5
10229
330
10129
100
AcDbEntity
  8
0
100
AcDbLine
 10
47.373
 20
27.09099999999998
 30
0.0
 11
47.42899999999999
 21
27.018
 31
0.0
  0
LINE
  5
1022A
330
10129
100
AcDbEntity
  8
0
100
AcDbLine
 10
47.42899999999999
 20
27.018
 30
0.0
 11
47.49
 21
26.94900000000001
 31
0.0
  0
LINE
  5
1022B
330
10129
100
AcDbEntity
  8
0
100
AcDbLine
 10
47.49
 20
26.94900000000001
 30
0.0
 11
47.55399999999999
 21
26.88400000000001
 31
0.0
  0
LINE
  5
1022C
330
10129
100
AcDbEntity
  8
0
100
AcDbLine
 10
47.55399999999999
 20
26.88400000000001
 30
0.0
 11
47.62199999999999
 21
26.82299999999998
 31
0.0
  0
LINE
  5
1022D
330
10129
100
AcDbEntity
  8
0
100
AcDbLine
 10
47.62199999999999
 20
26.82299999999998
 30
0.0
 11
47.693
 21
26.76599999999999
 31
0.0
  0
LINE
  5
1022E
330
10129
100
AcDbEntity
  8
0
100
AcDbLine
 10
47.693
 20
26.76599999999999
 30
0.0
 11
47.768
 21
26.71400000000003
 31
0.0
  0
LINE
  5
1022F
330
10129
100
AcDbEntity
  8
0
100
AcDbLine
 10
47.768
 20
26.71400000000003
 30
0.0
 11
47.84699999999999
 21
26.667
 31
0.0
  0
LINE
  5
10230
330
10129
100
AcDbEntity
  8
0
100
AcDbLine
 10
47.84699999999999
 20
26.667
 30
0.0
 11
47.93
 21
26.625
 31
0.0
  0
LINE
  5
10231
330
10129
100
AcDbEntity
  8
0
100
AcDbLine
 10
47.93
 20
26.625
 30
0.0
 11
48.017
 21
26.58900000000003
 31
0.0
  0
LINE
  5
10232
330
10129
100
AcDbEntity
  8
0
100
AcDbLine
 10
48.017
 20
26.58900000000003
 30
0.0
 11
48.107
 21
26.55900000000003
 31
0.0
  0
LINE
  5
10233
330
10129
100
AcDbEntity
  8
0
100
AcDbLine
 10
48.107
 20
26.55900000000003
 30
0.0
 11
48.201
 21
26.53400000000002
 31
0.0
  0
LINE
  5
10234
330
10129
100
AcDbEntity
  8
0
100
AcDbLine
 10
48.201
 20
26.53400000000002
 30
0.0
 11
48.299
 21
26.51499999999999
 31
0.0
  0
LINE
  5
10235
330
10129
100
AcDbEntity
  8
0
100
AcDbLine
 10
48.299
 20
26.51499999999999
 30
0.0
 11
48.401
 21
26.50099999999998
 31
0.0
  0
LINE
  5
10236
330
10129
100
AcDbEntity
  8
0
100
AcDbLine
 10
48.401
 20
26.50099999999998
 30
0.0
 11
48.50699999999999
 21
26.493
 31
0.0
  0
LINE
  5
10237
330
10129
100
AcDbEntity
  8
0
100
AcDbLine
 10
48.50699999999999
 20
26.493
 30
0.0
 11
48.61699999999999
 21
26.49000000000001
 31
0.0
  0
LINE
  5
10238
330
10129
100
AcDbEntity
  8
0
100
AcDbLine
 10
48.61699999999999
 20
26.49000000000001
 30
0.0
 11
48.61699999999999
 21
26.49000000000001
 31
0.0
  0
LINE
  5
10239
330
10129
100
AcDbEntity
  8
0
100
AcDbLine
 10
48.61699999999999
 20
26.49000000000001
 30
0.0
 11
48.727
 21
26.493
 31
0.0
  0
LINE
  5
1023A
330
10129
100
AcDbEntity
  8
0
100
AcDbLine
 10
48.727
 20
26.493
 30
0.0
 11
48.832
 21
26.50099999999998
 31
0.0
  0
LINE
  5
1023B
330
10129
100
AcDbEntity
  8
0
100
AcDbLine
 10
48.832
 20
26.50099999999998
 30
0.0
 11
48.93399999999999
 21
26.51400000000001
 31
0.0
  0
LINE
  5
1023C
330
10129
100
AcDbEntity
  8
0
100
AcDbLine
 10
48.93399999999999
 20
26.51400000000001
 30
0.0
 11
49.032
 21
26.53299999999999
 31
0.0
  0
LINE
  5
1023D
330
10129
100
AcDbEntity
  8
0
100
AcDbLine
 10
49.032
 20
26.53299999999999
 30
0.0
 11
49.12600000000001
 21
26.55799999999999
 31
0.0
  0
LINE
  5
1023E
330
10129
100
AcDbEntity
  8
0
100
AcDbLine
 10
49.12600000000001
 20
26.55799999999999
 30
0.0
 11
49.215
 21
26.58700000000002
 31
0.0
  0
LINE
  5
1023F
330
10129
100
AcDbEntity
  8
0
100
AcDbLine
 10
49.215
 20
26.58700000000002
 30
0.0
 11
49.301
 21
26.62200000000002
 31
0.0
  0
LINE
  5
10240
330
10129
100
AcDbEntity
  8
0
100
AcDbLine
 10
49.301
 20
26.62200000000002
 30
0.0
 11
49.383
 21
26.66299999999998
 31
0.0
  0
LINE
  5
10241
330
10129
100
AcDbEntity
  8
0
100
AcDbLine
 10
49.383
 20
26.66299999999998
 30
0.0
 11
49.46100000000001
 21
26.709
 31
0.0
  0
LINE
  5
10242
330
10129
100
AcDbEntity
  8
0
100
AcDbLine
 10
49.46100000000001
 20
26.709
 30
0.0
 11
49.535
 21
26.75999999999999
 31
0.0
  0
LINE
  5
10243
330
10129
100
AcDbEntity
  8
0
100
AcDbLine
 10
49.535
 20
26.75999999999999
 30
0.0
 11
49.60399999999999
 21
26.81700000000001
 31
0.0
  0
LINE
  5
10244
330
10129
100
AcDbEntity
  8
0
100
AcDbLine
 10
49.60399999999999
 20
26.81700000000001
 30
0.0
 11
49.668
 21
26.87799999999999
 31
0.0
  0
LINE
  5
10245
330
10129
100
AcDbEntity
  8
0
100
AcDbLine
 10
49.668
 20
26.87799999999999
 30
0.0
 11
49.726
 21
26.945
 31
0.0
  0
LINE
  5
10246
330
10129
100
AcDbEntity
  8
0
100
AcDbLine
 10
49.726
 20
26.945
 30
0.0
 11
49.778
 21
27.017
 31
0.0
  0
LINE
  5
10247
330
10129
100
AcDbEntity
  8
0
100
AcDbLine
 10
49.778
 20
27.017
 30
0.0
 11
49.825
 21
27.095
 31
0.0
  0
LINE
  5
10248
330
10129
100
AcDbEntity
  8
0
100
AcDbLine
 10
49.825
 20
27.095
 30
0.0
 11
49.865
 21
27.17700000000002
 31
0.0
  0
LINE
  5
10249
330
10129
100
AcDbEntity
  8
0
100
AcDbLine
 10
49.865
 20
27.17700000000002
 30
0.0
 11
49.901
 21
27.26400000000001
 31
0.0
  0
LINE
  5
1024A
330
10129
100
AcDbEntity
  8
0
100
AcDbLine
 10
49.901
 20
27.26400000000001
 30
0.0
 11
49.931
 21
27.357
 31
0.0
  0
LINE
  5
1024B
330
10129
100
AcDbEntity
  8
0
100
AcDbLine
 10
49.931
 20
27.357
 30
0.0
 11
49.95499999999999
 21
27.45500000000002
 31
0.0
  0
LINE
  5
1024C
330
10129
100
AcDbEntity
  8
0
100
AcDbLine
 10
49.95499999999999
 20
27.45500000000002
 30
0.0
 11
49.973
 21
27.55799999999999
 31
0.0
  0
LINE
  5
1024D
330
10129
100
AcDbEntity
  8
0
100
AcDbLine
 10
49.973
 20
27.55799999999999
 30
0.0
 11
49.973
 21
27.55799999999999
 31
0.0
  0
LINE
  5
1024E
330
10129
100
AcDbEntity
  8
0
100
AcDbLine
 10
49.973
 20
27.55799999999999
 30
0.0
 11
50.945
 21
27.55799999999999
 31
0.0
  0
LINE
  5
1024F
330
10129
100
AcDbEntity
  8
0
100
AcDbLine
 10
50.945
 20
27.55799999999999
 30
0.0
 11
50.925
 21
27.446
 31
0.0
  0
LINE
  5
10250
330
10129
100
AcDbEntity
  8
0
100
AcDbLine
 10
50.925
 20
27.446
 30
0.0
 11
50.89999999999999
 21
27.33599999999999
 31
0.0
  0
LINE
  5
10251
330
10129
100
AcDbEntity
  8
0
100
AcDbLine
 10
50.89999999999999
 20
27.33599999999999
 30
0.0
 11
50.86999999999999
 21
27.22999999999999
 31
0.0
  0
LINE
  5
10252
330
10129
100
AcDbEntity
  8
0
100
AcDbLine
 10
50.86999999999999
 20
27.22999999999999
 30
0.0
 11
50.837
 21
27.12700000000001
 31
0.0
  0
LINE
  5
10253
330
10129
100
AcDbEntity
  8
0
100
AcDbLine
 10
50.837
 20
27.12700000000001
 30
0.0
 11
50.798
 21
27.02799999999999
 31
0.0
  0
LINE
  5
10254
330
10129
100
AcDbEntity
  8
0
100
AcDbLine
 10
50.798
 20
27.02799999999999
 30
0.0
 11
50.755
 21
26.93099999999998
 31
0.0
  0
LINE
  5
10255
330
10129
100
AcDbEntity
  8
0
100
AcDbLine
 10
50.755
 20
26.93099999999998
 30
0.0
 11
50.707
 21
26.838
 31
0.0
  0
LINE
  5
10256
330
10129
100
AcDbEntity
  8
0
100
AcDbLine
 10
50.707
 20
26.838
 30
0.0
 11
50.655
 21
26.74799999999999
 31
0.0
  0
LINE
  5
10257
330
10129
100
AcDbEntity
  8
0
100
AcDbLine
 10
50.655
 20
26.74799999999999
 30
0.0
 11
50.598
 21
26.66099999999997
 31
0.0
  0
LINE
  5
10258
330
10129
100
AcDbEntity
  8
0
100
AcDbLine
 10
50.598
 20
26.66099999999997
 30
0.0
 11
50.537
 21
26.577
 31
0.0
  0
LINE
  5
10259
330
10129
100
AcDbEntity
  8
0
100
AcDbLine
 10
50.537
 20
26.577
 30
0.0
 11
50.472
 21
26.49700000000001
 31
0.0
  0
LINE
  5
1025A
330
10129
100
AcDbEntity
  8
0
100
AcDbLine
 10
50.472
 20
26.49700000000001
 30
0.0
 11
50.403
 21
26.41999999999999
 31
0.0
  0
LINE
  5
1025B
330
10129
100
AcDbEntity
  8
0
100
AcDbLine
 10
50.403
 20
26.41999999999999
 30
0.0
 11
50.33100000000001
 21
26.34700000000001
 31
0.0
  0
LINE
  5
1025C
330
10129
100
AcDbEntity
  8
0
100
AcDbLine
 10
50.33100000000001
 20
26.34700000000001
 30
0.0
 11
50.255
 21
26.27799999999999
 31
0.0
  0
LINE
  5
1025D
330
10129
100
AcDbEntity
  8
0
100
AcDbLine
 10
50.255
 20
26.27799999999999
 30
0.0
 11
50.175
 21
26.213
 31
0.0
  0
LINE
  5
1025E
330
10129
100
AcDbEntity
  8
0
100
AcDbLine
 10
50.175
 20
26.213
 30
0.0
 11
50.093
 21
26.15200000000001
 31
0.0
  0
LINE
  5
1025F
330
10129
100
AcDbEntity
  8
0
100
AcDbLine
 10
50.093
 20
26.15200000000001
 30
0.0
 11
50.007
 21
26.09400000000003
 31
0.0
  0
LINE
  5
10260
330
10129
100
AcDbEntity
  8
0
100
AcDbLine
 10
50.007
 20
26.09400000000003
 30
0.0
 11
49.917
 21
26.03999999999999
 31
0.0
  0
LINE
  5
10261
330
10129
100
AcDbEntity
  8
0
100
AcDbLine
 10
49.917
 20
26.03999999999999
 30
0.0
 11
49.824
 21
25.99000000000001
 31
0.0
  0
LINE
  5
10262
330
10129
100
AcDbEntity
  8
0
100
AcDbLine
 10
49.824
 20
25.99000000000001
 30
0.0
 11
49.72699999999999
 21
25.94400000000002
 31
0.0
  0
LINE
  5
10263
330
10129
100
AcDbEntity
  8
0
100
AcDbLine
 10
49.72699999999999
 20
25.94400000000002
 30
0.0
 11
49.62699999999999
 21
25.90200000000002
 31
0.0
  0
LINE
  5
10264
330
10129
100
AcDbEntity
  8
0
100
AcDbLine
 10
49.62699999999999
 20
25.90200000000002
 30
0.0
 11
49.525
 21
25.86400000000001
 31
0.0
  0
LINE
  5
10265
330
10129
100
AcDbEntity
  8
0
100
AcDbLine
 10
49.525
 20
25.86400000000001
 30
0.0
 11
49.42
 21
25.83099999999999
 31
0.0
  0
LINE
  5
10266
330
10129
100
AcDbEntity
  8
0
100
AcDbLine
 10
49.42
 20
25.83099999999999
 30
0.0
 11
49.313
 21
25.80200000000002
 31
0.0
  0
LINE
  5
10267
330
10129
100
AcDbEntity
  8
0
100
AcDbLine
 10
49.313
 20
25.80200000000002
 30
0.0
 11
49.20300000000001
 21
25.77799999999999
 31
0.0
  0
LINE
  5
10268
330
10129
100
AcDbEntity
  8
0
100
AcDbLine
 10
49.20300000000001
 20
25.77799999999999
 30
0.0
 11
49.091
 21
25.75799999999998
 31
0.0
  0
LINE
  5
10269
330
10129
100
AcDbEntity
  8
0
100
AcDbLine
 10
49.091
 20
25.75799999999998
 30
0.0
 11
48.976
 21
25.74200000000002
 31
0.0
  0
LINE
  5
1026A
330
10129
100
AcDbEntity
  8
0
100
AcDbLine
 10
48.976
 20
25.74200000000002
 30
0.0
 11
48.85899999999999
 21
25.731
 31
0.0
  0
LINE
  5
1026B
330
10129
100
AcDbEntity
  8
0
100
AcDbLine
 10
48.85899999999999
 20
25.731
 30
0.0
 11
48.73899999999999
 21
25.72400000000002
 31
0.0
  0
LINE
  5
1026C
330
10129
100
AcDbEntity
  8
0
100
AcDbLine
 10
48.73899999999999
 20
25.72400000000002
 30
0.0
 11
48.61699999999999
 21
25.72200000000001
 31
0.0
  0
LINE
  5
1026D
330
10129
100
AcDbEntity
  8
0
100
AcDbLine
 10
48.61699999999999
 20
25.72200000000001
 30
0.0
 11
48.61699999999999
 21
25.72200000000001
 31
0.0
  0
LINE
  5
1026E
330
10129
100
AcDbEntity
  8
0
100
AcDbLine
 10
54.035
 20
25.86599999999999
 30
0.0
 11
53.09899999999999
 21
25.86599999999999
 31
0.0
  0
LINE
  5
1026F
330
10129
100
AcDbEntity
  8
0
100
AcDbLine
 10
53.09899999999999
 20
25.86599999999999
 30
0.0
 11
53.09899999999999
 21
32.49000000000001
 31
0.0
  0
LINE
  5
10270
330
10129
100
AcDbEntity
  8
0
100
AcDbLine
 10
53.09899999999999
 20
32.49000000000001
 30
0.0
 11
53.10100000000001
 21
32.60200000000001
 31
0.0
  0
LINE
  5
10271
330
10129
100
AcDbEntity
  8
0
100
AcDbLine
 10
53.10100000000001
 20
32.60200000000001
 30
0.0
 11
53.108
 21
32.71000000000001
 31
0.0
  0
LINE
  5
10272
330
10129
100
AcDbEntity
  8
0
100
AcDbLine
 10
53.108
 20
32.71000000000001
 30
0.0
 11
53.119
 21
32.81299999999999
 31
0.0
  0
LINE
  5
10273
330
10129
100
AcDbEntity
  8
0
100
AcDbLine
 10
53.119
 20
32.81299999999999
 30
0.0
 11
53.13399999999999
 21
32.91299999999998
 31
0.0
  0
LINE
  5
10274
330
10129
100
AcDbEntity
  8
0
100
AcDbLine
 10
53.13399999999999
 20
32.91299999999998
 30
0.0
 11
53.154
 21
33.00799999999998
 31
0.0
  0
LINE
  5
10275
330
10129
100
AcDbEntity
  8
0
100
AcDbLine
 10
53.154
 20
33.00799999999998
 30
0.0
 11
53.178
 21
33.09900000000002
 31
0.0
  0
LINE
  5
10276
330
10129
100
AcDbEntity
  8
0
100
AcDbLine
 10
53.178
 20
33.09900000000002
 30
0.0
 11
53.206
 21
33.18700000000001
 31
0.0
  0
LINE
  5
10277
330
10129
100
AcDbEntity
  8
0
100
AcDbLine
 10
53.206
 20
33.18700000000001
 30
0.0
 11
53.239
 21
33.27000000000001
 31
0.0
  0
LINE
  5
10278
330
10129
100
AcDbEntity
  8
0
100
AcDbLine
 10
53.239
 20
33.27000000000001
 30
0.0
 11
53.276
 21
33.34799999999999
 31
0.0
  0
LINE
  5
10279
330
10129
100
AcDbEntity
  8
0
100
AcDbLine
 10
53.276
 20
33.34799999999999
 30
0.0
 11
53.31800000000001
 21
33.423
 31
0.0
  0
LINE
  5
1027A
330
10129
100
AcDbEntity
  8
0
100
AcDbLine
 10
53.31800000000001
 20
33.423
 30
0.0
 11
53.363
 21
33.49400000000003
 31
0.0
  0
LINE
  5
1027B
330
10129
100
AcDbEntity
  8
0
100
AcDbLine
 10
53.363
 20
33.49400000000003
 30
0.0
 11
53.412
 21
33.56099999999998
 31
0.0
  0
LINE
  5
1027C
330
10129
100
AcDbEntity
  8
0
100
AcDbLine
 10
53.412
 20
33.56099999999998
 30
0.0
 11
53.463
 21
33.62400000000003
 31
0.0
  0
LINE
  5
1027D
330
10129
100
AcDbEntity
  8
0
100
AcDbLine
 10
53.463
 20
33.62400000000003
 30
0.0
 11
53.517
 21
33.683
 31
0.0
  0
LINE
  5
1027E
330
10129
100
AcDbEntity
  8
0
100
AcDbLine
 10
53.517
 20
33.683
 30
0.0
 11
53.575
 21
33.73900000000001
 31
0.0
  0
LINE
  5
1027F
330
10129
100
AcDbEntity
  8
0
100
AcDbLine
 10
53.575
 20
33.73900000000001
 30
0.0
 11
53.635
 21
33.791
 31
0.0
  0
LINE
  5
10280
330
10129
100
AcDbEntity
  8
0
100
AcDbLine
 10
53.635
 20
33.791
 30
0.0
 11
53.698
 21
33.83900000000003
 31
0.0
  0
LINE
  5
10281
330
10129
100
AcDbEntity
  8
0
100
AcDbLine
 10
53.698
 20
33.83900000000003
 30
0.0
 11
53.764
 21
33.88299999999998
 31
0.0
  0
LINE
  5
10282
330
10129
100
AcDbEntity
  8
0
100
AcDbLine
 10
53.764
 20
33.88299999999998
 30
0.0
 11
53.83399999999999
 21
33.923
 31
0.0
  0
LINE
  5
10283
330
10129
100
AcDbEntity
  8
0
100
AcDbLine
 10
53.83399999999999
 20
33.923
 30
0.0
 11
53.906
 21
33.96000000000001
 31
0.0
  0
LINE
  5
10284
330
10129
100
AcDbEntity
  8
0
100
AcDbLine
 10
53.906
 20
33.96000000000001
 30
0.0
 11
53.981
 21
33.993
 31
0.0
  0
LINE
  5
10285
330
10129
100
AcDbEntity
  8
0
100
AcDbLine
 10
53.981
 20
33.993
 30
0.0
 11
54.05699999999999
 21
34.023
 31
0.0
  0
LINE
  5
10286
330
10129
100
AcDbEntity
  8
0
100
AcDbLine
 10
54.05699999999999
 20
34.023
 30
0.0
 11
54.13499999999999
 21
34.04900000000001
 31
0.0
  0
LINE
  5
10287
330
10129
100
AcDbEntity
  8
0
100
AcDbLine
 10
54.13499999999999
 20
34.04900000000001
 30
0.0
 11
54.215
 21
34.071
 31
0.0
  0
LINE
  5
10288
330
10129
100
AcDbEntity
  8
0
100
AcDbLine
 10
54.215
 20
34.071
 30
0.0
 11
54.297
 21
34.09000000000001
 31
0.0
  0
LINE
  5
10289
330
10129
100
AcDbEntity
  8
0
100
AcDbLine
 10
54.297
 20
34.09000000000001
 30
0.0
 11
54.38
 21
34.106
 31
0.0
  0
LINE
  5
1028A
330
10129
100
AcDbEntity
  8
0
100
AcDbLine
 10
54.38
 20
34.106
 30
0.0
 11
54.465
 21
34.11799999999999
 31
0.0
  0
LINE
  5
1028B
330
10129
100
AcDbEntity
  8
0
100
AcDbLine
 10
54.465
 20
34.11799999999999
 30
0.0
 11
54.552
 21
34.12700000000001
 31
0.0
  0
LINE
  5
1028C
330
10129
100
AcDbEntity
  8
0
100
AcDbLine
 10
54.552
 20
34.12700000000001
 30
0.0
 11
54.64100000000001
 21
34.13200000000001
 31
0.0
  0
LINE
  5
1028D
330
10129
100
AcDbEntity
  8
0
100
AcDbLine
 10
54.64100000000001
 20
34.13200000000001
 30
0.0
 11
54.731
 21
34.13400000000001
 31
0.0
  0
LINE
  5
1028E
330
10129
100
AcDbEntity
  8
0
100
AcDbLine
 10
54.731
 20
34.13400000000001
 30
0.0
 11
54.731
 21
34.13400000000001
 31
0.0
  0
LINE
  5
1028F
330
10129
100
AcDbEntity
  8
0
100
AcDbLine
 10
54.731
 20
34.13400000000001
 30
0.0
 11
54.78
 21
34.13400000000001
 31
0.0
  0
LINE
  5
10290
330
10129
100
AcDbEntity
  8
0
100
AcDbLine
 10
54.78
 20
34.13400000000001
 30
0.0
 11
54.83
 21
34.13299999999998
 31
0.0
  0
LINE
  5
10291
330
10129
100
AcDbEntity
  8
0
100
AcDbLine
 10
54.83
 20
34.13299999999998
 30
0.0
 11
54.87899999999999
 21
34.13099999999997
 31
0.0
  0
LINE
  5
10292
330
10129
100
AcDbEntity
  8
0
100
AcDbLine
 10
54.87899999999999
 20
34.13099999999997
 30
0.0
 11
54.92899999999999
 21
34.12799999999999
 31
0.0
  0
LINE
  5
10293
330
10129
100
AcDbEntity
  8
0
100
AcDbLine
 10
54.92899999999999
 20
34.12799999999999
 30
0.0
 11
54.979
 21
34.125
 31
0.0
  0
LINE
  5
10294
330
10129
100
AcDbEntity
  8
0
100
AcDbLine
 10
54.979
 20
34.125
 30
0.0
 11
55.029
 21
34.12099999999998
 31
0.0
  0
LINE
  5
10295
330
10129
100
AcDbEntity
  8
0
100
AcDbLine
 10
55.029
 20
34.12099999999998
 30
0.0
 11
55.08
 21
34.11599999999999
 31
0.0
  0
LINE
  5
10296
330
10129
100
AcDbEntity
  8
0
100
AcDbLine
 10
55.08
 20
34.11599999999999
 30
0.0
 11
55.13
 21
34.11099999999999
 31
0.0
  0
LINE
  5
10297
330
10129
100
AcDbEntity
  8
0
100
AcDbLine
 10
55.13
 20
34.11099999999999
 30
0.0
 11
55.181
 21
34.10499999999999
 31
0.0
  0
LINE
  5
10298
330
10129
100
AcDbEntity
  8
0
100
AcDbLine
 10
55.181
 20
34.10499999999999
 30
0.0
 11
55.232
 21
34.09799999999999
 31
0.0
  0
LINE
  5
10299
330
10129
100
AcDbEntity
  8
0
100
AcDbLine
 10
55.232
 20
34.09799999999999
 30
0.0
 11
55.283
 21
34.09000000000001
 31
0.0
  0
LINE
  5
1029A
330
10129
100
AcDbEntity
  8
0
100
AcDbLine
 10
55.283
 20
34.09000000000001
 30
0.0
 11
55.334
 21
34.08199999999999
 31
0.0
  0
LINE
  5
1029B
330
10129
100
AcDbEntity
  8
0
100
AcDbLine
 10
55.334
 20
34.08199999999999
 30
0.0
 11
55.38499999999999
 21
34.07299999999998
 31
0.0
  0
LINE
  5
1029C
330
10129
100
AcDbEntity
  8
0
100
AcDbLine
 10
55.38499999999999
 20
34.07299999999998
 30
0.0
 11
55.43600000000001
 21
34.06299999999999
 31
0.0
  0
LINE
  5
1029D
330
10129
100
AcDbEntity
  8
0
100
AcDbLine
 10
55.43600000000001
 20
34.06299999999999
 30
0.0
 11
55.486
 21
34.053
 31
0.0
  0
LINE
  5
1029E
330
10129
100
AcDbEntity
  8
0
100
AcDbLine
 10
55.486
 20
34.053
 30
0.0
 11
55.537
 21
34.042
 31
0.0
  0
LINE
  5
1029F
330
10129
100
AcDbEntity
  8
0
100
AcDbLine
 10
55.537
 20
34.042
 30
0.0
 11
55.588
 21
34.03
 31
0.0
  0
LINE
  5
102A0
330
10129
100
AcDbEntity
  8
0
100
AcDbLine
 10
55.588
 20
34.03
 30
0.0
 11
55.638
 21
34.017
 31
0.0
  0
LINE
  5
102A1
330
10129
100
AcDbEntity
  8
0
100
AcDbLine
 10
55.638
 20
34.017
 30
0.0
 11
55.68899999999999
 21
34.00400000000002
 31
0.0
  0
LINE
  5
102A2
330
10129
100
AcDbEntity
  8
0
100
AcDbLine
 10
55.68899999999999
 20
34.00400000000002
 30
0.0
 11
55.739
 21
33.99000000000001
 31
0.0
  0
LINE
  5
102A3
330
10129
100
AcDbEntity
  8
0
100
AcDbLine
 10
55.739
 20
33.99000000000001
 30
0.0
 11
55.739
 21
33.99000000000001
 31
0.0
  0
LINE
  5
102A4
330
10129
100
AcDbEntity
  8
0
100
AcDbLine
 10
55.739
 20
33.99000000000001
 30
0.0
 11
55.559
 21
33.24599999999998
 31
0.0
  0
LINE
  5
102A5
330
10129
100
AcDbEntity
  8
0
100
AcDbLine
 10
55.559
 20
33.24599999999998
 30
0.0
 11
55.523
 21
33.25999999999999
 31
0.0
  0
LINE
  5
102A6
330
10129
100
AcDbEntity
  8
0
100
AcDbLine
 10
55.523
 20
33.25999999999999
 30
0.0
 11
55.487
 21
33.273
 31
0.0
  0
LINE
  5
102A7
330
10129
100
AcDbEntity
  8
0
100
AcDbLine
 10
55.487
 20
33.273
 30
0.0
 11
55.451
 21
33.28599999999998
 31
0.0
  0
LINE
  5
102A8
330
10129
100
AcDbEntity
  8
0
100
AcDbLine
 10
55.451
 20
33.28599999999998
 30
0.0
 11
55.415
 21
33.298
 31
0.0
  0
LINE
  5
102A9
330
10129
100
AcDbEntity
  8
0
100
AcDbLine
 10
55.415
 20
33.298
 30
0.0
 11
55.38
 21
33.30900000000003
 31
0.0
  0
LINE
  5
102AA
330
10129
100
AcDbEntity
  8
0
100
AcDbLine
 10
55.38
 20
33.30900000000003
 30
0.0
 11
55.34399999999999
 21
33.31900000000002
 31
0.0
  0
LINE
  5
102AB
330
10129
100
AcDbEntity
  8
0
100
AcDbLine
 10
55.34399999999999
 20
33.31900000000002
 30
0.0
 11
55.308
 21
33.32900000000001
 31
0.0
  0
LINE
  5
102AC
330
10129
100
AcDbEntity
  8
0
100
AcDbLine
 10
55.308
 20
33.32900000000001
 30
0.0
 11
55.273
 21
33.338
 31
0.0
  0
LINE
  5
102AD
330
10129
100
AcDbEntity
  8
0
100
AcDbLine
 10
55.273
 20
33.338
 30
0.0
 11
55.23699999999999
 21
33.34599999999998
 31
0.0
  0
LINE
  5
102AE
330
10129
100
AcDbEntity
  8
0
100
AcDbLine
 10
55.23699999999999
 20
33.34599999999998
 30
0.0
 11
55.20199999999999
 21
33.35400000000002
 31
0.0
  0
LINE
  5
102AF
330
10129
100
AcDbEntity
  8
0
100
AcDbLine
 10
55.20199999999999
 20
33.35400000000002
 30
0.0
 11
55.167
 21
33.36099999999999
 31
0.0
  0
LINE
  5
102B0
330
10129
100
AcDbEntity
  8
0
100
AcDbLine
 10
55.167
 20
33.36099999999999
 30
0.0
 11
55.132
 21
33.36700000000002
 31
0.0
  0
LINE
  5
102B1
330
10129
100
AcDbEntity
  8
0
100
AcDbLine
 10
55.132
 20
33.36700000000002
 30
0.0
 11
55.097
 21
33.37200000000001
 31
0.0
  0
LINE
  5
102B2
330
10129
100
AcDbEntity
  8
0
100
AcDbLine
 10
55.097
 20
33.37200000000001
 30
0.0
 11
55.063
 21
33.37700000000001
 31
0.0
  0
LINE
  5
102B3
330
10129
100
AcDbEntity
  8
0
100
AcDbLine
 10
55.063
 20
33.37700000000001
 30
0.0
 11
55.029
 21
33.38099999999997
 31
0.0
  0
LINE
  5
102B4
330
10129
100
AcDbEntity
  8
0
100
AcDbLine
 10
55.029
 20
33.38099999999997
 30
0.0
 11
54.995
 21
33.38400000000002
 31
0.0
  0
LINE
  5
102B5
330
10129
100
AcDbEntity
  8
0
100
AcDbLine
 10
54.995
 20
33.38400000000002
 30
0.0
 11
54.96199999999999
 21
33.387
 31
0.0
  0
LINE
  5
102B6
330
10129
100
AcDbEntity
  8
0
100
AcDbLine
 10
54.96199999999999
 20
33.387
 30
0.0
 11
54.928
 21
33.38900000000001
 31
0.0
  0
LINE
  5
102B7
330
10129
100
AcDbEntity
  8
0
100
AcDbLine
 10
54.928
 20
33.38900000000001
 30
0.0
 11
54.896
 21
33.38999999999999
 31
0.0
  0
LINE
  5
102B8
330
10129
100
AcDbEntity
  8
0
100
AcDbLine
 10
54.896
 20
33.38999999999999
 30
0.0
 11
54.86299999999999
 21
33.38999999999999
 31
0.0
  0
LINE
  5
102B9
330
10129
100
AcDbEntity
  8
0
100
AcDbLine
 10
54.86299999999999
 20
33.38999999999999
 30
0.0
 11
54.86299999999999
 21
33.38999999999999
 31
0.0
  0
LINE
  5
102BA
330
10129
100
AcDbEntity
  8
0
100
AcDbLine
 10
54.86299999999999
 20
33.38999999999999
 30
0.0
 11
54.825
 21
33.38900000000001
 31
0.0
  0
LINE
  5
102BB
330
10129
100
AcDbEntity
  8
0
100
AcDbLine
 10
54.825
 20
33.38900000000001
 30
0.0
 11
54.786
 21
33.387
 31
0.0
  0
LINE
  5
102BC
330
10129
100
AcDbEntity
  8
0
100
AcDbLine
 10
54.786
 20
33.387
 30
0.0
 11
54.748
 21
33.38400000000002
 31
0.0
  0
LINE
  5
102BD
330
10129
100
AcDbEntity
  8
0
100
AcDbLine
 10
54.748
 20
33.38400000000002
 30
0.0
 11
54.709
 21
33.37799999999999
 31
0.0
  0
LINE
  5
102BE
330
10129
100
AcDbEntity
  8
0
100
AcDbLine
 10
54.709
 20
33.37799999999999
 30
0.0
 11
54.67100000000001
 21
33.37200000000001
 31
0.0
  0
LINE
  5
102BF
330
10129
100
AcDbEntity
  8
0
100
AcDbLine
 10
54.67100000000001
 20
33.37200000000001
 30
0.0
 11
54.633
 21
33.36400000000001
 31
0.0
  0
LINE
  5
102C0
330
10129
100
AcDbEntity
  8
0
100
AcDbLine
 10
54.633
 20
33.36400000000001
 30
0.0
 11
54.59399999999999
 21
33.35499999999999
 31
0.0
  0
LINE
  5
102C1
330
10129
100
AcDbEntity
  8
0
100
AcDbLine
 10
54.59399999999999
 20
33.35499999999999
 30
0.0
 11
54.556
 21
33.34400000000002
 31
0.0
  0
LINE
  5
102C2
330
10129
100
AcDbEntity
  8
0
100
AcDbLine
 10
54.556
 20
33.34400000000002
 30
0.0
 11
54.51699999999999
 21
33.332
 31
0.0
  0
LINE
  5
102C3
330
10129
100
AcDbEntity
  8
0
100
AcDbLine
 10
54.51699999999999
 20
33.332
 30
0.0
 11
54.479
 21
33.31799999999998
 31
0.0
  0
LINE
  5
102C4
330
10129
100
AcDbEntity
  8
0
100
AcDbLine
 10
54.479
 20
33.31799999999998
 30
0.0
 11
54.441
 21
33.30200000000002
 31
0.0
  0
LINE
  5
102C5
330
10129
100
AcDbEntity
  8
0
100
AcDbLine
 10
54.441
 20
33.30200000000002
 30
0.0
 11
54.405
 21
33.28400000000002
 31
0.0
  0
LINE
  5
102C6
330
10129
100
AcDbEntity
  8
0
100
AcDbLine
 10
54.405
 20
33.28400000000002
 30
0.0
 11
54.37
 21
33.26300000000001
 31
0.0
  0
LINE
  5
102C7
330
10129
100
AcDbEntity
  8
0
100
AcDbLine
 10
54.37
 20
33.26300000000001
 30
0.0
 11
54.33600000000001
 21
33.24000000000001
 31
0.0
  0
LINE
  5
102C8
330
10129
100
AcDbEntity
  8
0
100
AcDbLine
 10
54.33600000000001
 20
33.24000000000001
 30
0.0
 11
54.303
 21
33.21400000000003
 31
0.0
  0
LINE
  5
102C9
330
10129
100
AcDbEntity
  8
0
100
AcDbLine
 10
54.303
 20
33.21400000000003
 30
0.0
 11
54.272
 21
33.18599999999998
 31
0.0
  0
LINE
  5
102CA
330
10129
100
AcDbEntity
  8
0
100
AcDbLine
 10
54.272
 20
33.18599999999998
 30
0.0
 11
54.243
 21
33.155
 31
0.0
  0
LINE
  5
102CB
330
10129
100
AcDbEntity
  8
0
100
AcDbLine
 10
54.243
 20
33.155
 30
0.0
 11
54.214
 21
33.12200000000002
 31
0.0
  0
LINE
  5
102CC
330
10129
100
AcDbEntity
  8
0
100
AcDbLine
 10
54.214
 20
33.12200000000002
 30
0.0
 11
54.187
 21
33.08599999999998
 31
0.0
  0
LINE
  5
102CD
330
10129
100
AcDbEntity
  8
0
100
AcDbLine
 10
54.187
 20
33.08599999999998
 30
0.0
 11
54.161
 21
33.048
 31
0.0
  0
LINE
  5
102CE
330
10129
100
AcDbEntity
  8
0
100
AcDbLine
 10
54.161
 20
33.048
 30
0.0
 11
54.137
 21
33.00700000000001
 31
0.0
  0
LINE
  5
102CF
330
10129
100
AcDbEntity
  8
0
100
AcDbLine
 10
54.137
 20
33.00700000000001
 30
0.0
 11
54.116
 21
32.96200000000002
 31
0.0
  0
LINE
  5
102D0
330
10129
100
AcDbEntity
  8
0
100
AcDbLine
 10
54.116
 20
32.96200000000002
 30
0.0
 11
54.097
 21
32.91400000000002
 31
0.0
  0
LINE
  5
102D1
330
10129
100
AcDbEntity
  8
0
100
AcDbLine
 10
54.097
 20
32.91400000000002
 30
0.0
 11
54.08
 21
32.862
 31
0.0
  0
LINE
  5
102D2
330
10129
100
AcDbEntity
  8
0
100
AcDbLine
 10
54.08
 20
32.862
 30
0.0
 11
54.066
 21
32.80599999999998
 31
0.0
  0
LINE
  5
102D3
330
10129
100
AcDbEntity
  8
0
100
AcDbLine
 10
54.066
 20
32.80599999999998
 30
0.0
 11
54.05499999999999
 21
32.74799999999999
 31
0.0
  0
LINE
  5
102D4
330
10129
100
AcDbEntity
  8
0
100
AcDbLine
 10
54.05499999999999
 20
32.74799999999999
 30
0.0
 11
54.04600000000001
 21
32.68599999999998
 31
0.0
  0
LINE
  5
102D5
330
10129
100
AcDbEntity
  8
0
100
AcDbLine
 10
54.04600000000001
 20
32.68599999999998
 30
0.0
 11
54.03999999999999
 21
32.62
 31
0.0
  0
LINE
  5
102D6
330
10129
100
AcDbEntity
  8
0
100
AcDbLine
 10
54.03999999999999
 20
32.62
 30
0.0
 11
54.036
 21
32.55099999999999
 31
0.0
  0
LINE
  5
102D7
330
10129
100
AcDbEntity
  8
0
100
AcDbLine
 10
54.036
 20
32.55099999999999
 30
0.0
 11
54.035
 21
32.47799999999998
 31
0.0
  0
LINE
  5
102D8
330
10129
100
AcDbEntity
  8
0
100
AcDbLine
 10
54.035
 20
32.47799999999998
 30
0.0
 11
54.035
 21
32.47799999999998
 31
0.0
  0
LINE
  5
102D9
330
10129
100
AcDbEntity
  8
0
100
AcDbLine
 10
54.035
 20
32.47799999999998
 30
0.0
 11
54.035
 21
25.86599999999999
 31
0.0
  0
LINE
  5
102DA
330
10129
100
AcDbEntity
  8
0
100
AcDbLine
 10
54.035
 20
25.86599999999999
 30
0.0
 11
54.035
 21
25.86599999999999
 31
0.0
  0
LINE
  5
102DB
330
10129
100
AcDbEntity
  8
0
100
AcDbLine
 10
55.223
 20
30.95400000000001
 30
0.0
 11
52.163
 21
30.95400000000001
 31
0.0
  0
LINE
  5
102DC
330
10129
100
AcDbEntity
  8
0
100
AcDbLine
 10
52.163
 20
30.95400000000001
 30
0.0
 11
52.163
 21
31.60200000000001
 31
0.0
  0
LINE
  5
102DD
330
10129
100
AcDbEntity
  8
0
100
AcDbLine
 10
52.163
 20
31.60200000000001
 30
0.0
 11
55.223
 21
31.60200000000001
 31
0.0
  0
LINE
  5
102DE
330
10129
100
AcDbEntity
  8
0
100
AcDbLine
 10
55.223
 20
31.60200000000001
 30
0.0
 11
55.223
 21
30.95400000000001
 31
0.0
  0
LINE
  5
102DF
330
10129
100
AcDbEntity
  8
0
100
AcDbLine
 10
55.223
 20
30.95400000000001
 30
0.0
 11
55.223
 21
30.95400000000001
 31
0.0
  0
LINE
  5
102E0
330
10129
100
AcDbEntity
  8
0
100
AcDbLine
 10
58.661
 20
25.72200000000001
 30
0.0
 11
58.661
 21
25.72200000000001
 31
0.0
  0
LINE
  5
102E1
330
10129
100
AcDbEntity
  8
0
100
AcDbLine
 10
58.661
 20
25.72200000000001
 30
0.0
 11
58.568
 21
25.72400000000002
 31
0.0
  0
LINE
  5
102E2
330
10129
100
AcDbEntity
  8
0
100
AcDbLine
 10
58.568
 20
25.72400000000002
 30
0.0
 11
58.478
 21
25.72900000000001
 31
0.0
  0
LINE
  5
102E3
330
10129
100
AcDbEntity
  8
0
100
AcDbLine
 10
58.478
 20
25.72900000000001
 30
0.0
 11
58.38899999999999
 21
25.738
 31
0.0
  0
LINE
  5
102E4
330
10129
100
AcDbEntity
  8
0
100
AcDbLine
 10
58.38899999999999
 20
25.738
 30
0.0
 11
58.302
 21
25.75099999999998
 31
0.0
  0
LINE
  5
102E5
330
10129
100
AcDbEntity
  8
0
100
AcDbLine
 10
58.302
 20
25.75099999999998
 30
0.0
 11
58.21699999999999
 21
25.767
 31
0.0
  0
LINE
  5
102E6
330
10129
100
AcDbEntity
  8
0
100
AcDbLine
 10
58.21699999999999
 20
25.767
 30
0.0
 11
58.13399999999999
 21
25.78700000000001
 31
0.0
  0
LINE
  5
102E7
330
10129
100
AcDbEntity
  8
0
100
AcDbLine
 10
58.13399999999999
 20
25.78700000000001
 30
0.0
 11
58.053
 21
25.81
 31
0.0
  0
LINE
  5
102E8
330
10129
100
AcDbEntity
  8
0
100
AcDbLine
 10
58.053
 20
25.81
 30
0.0
 11
57.97399999999999
 21
25.83700000000002
 31
0.0
  0
LINE
  5
102E9
330
10129
100
AcDbEntity
  8
0
100
AcDbLine
 10
57.97399999999999
 20
25.83700000000002
 30
0.0
 11
57.896
 21
25.868
 31
0.0
  0
LINE
  5
102EA
330
10129
100
AcDbEntity
  8
0
100
AcDbLine
 10
57.896
 20
25.868
 30
0.0
 11
57.821
 21
25.90200000000002
 31
0.0
  0
LINE
  5
102EB
330
10129
100
AcDbEntity
  8
0
100
AcDbLine
 10
57.821
 20
25.90200000000002
 30
0.0
 11
57.748
 21
25.94
 31
0.0
  0
LINE
  5
102EC
330
10129
100
AcDbEntity
  8
0
100
AcDbLine
 10
57.748
 20
25.94
 30
0.0
 11
57.67800000000001
 21
25.981
 31
0.0
  0
LINE
  5
102ED
330
10129
100
AcDbEntity
  8
0
100
AcDbLine
 10
57.67800000000001
 20
25.981
 30
0.0
 11
57.61199999999999
 21
26.02599999999998
 31
0.0
  0
LINE
  5
102EE
330
10129
100
AcDbEntity
  8
0
100
AcDbLine
 10
57.61199999999999
 20
26.02599999999998
 30
0.0
 11
57.548
 21
26.07499999999999
 31
0.0
  0
LINE
  5
102EF
330
10129
100
AcDbEntity
  8
0
100
AcDbLine
 10
57.548
 20
26.07499999999999
 30
0.0
 11
57.488
 21
26.12700000000001
 31
0.0
  0
LINE
  5
102F0
330
10129
100
AcDbEntity
  8
0
100
AcDbLine
 10
57.488
 20
26.12700000000001
 30
0.0
 11
57.431
 21
26.183
 31
0.0
  0
LINE
  5
102F1
330
10129
100
AcDbEntity
  8
0
100
AcDbLine
 10
57.431
 20
26.183
 30
0.0
 11
57.377
 21
26.24200000000002
 31
0.0
  0
LINE
  5
102F2
330
10129
100
AcDbEntity
  8
0
100
AcDbLine
 10
57.377
 20
26.24200000000002
 30
0.0
 11
57.326
 21
26.30500000000001
 31
0.0
  0
LINE
  5
102F3
330
10129
100
AcDbEntity
  8
0
100
AcDbLine
 10
57.326
 20
26.30500000000001
 30
0.0
 11
57.278
 21
26.37200000000002
 31
0.0
  0
LINE
  5
102F4
330
10129
100
AcDbEntity
  8
0
100
AcDbLine
 10
57.278
 20
26.37200000000002
 30
0.0
 11
57.233
 21
26.44200000000001
 31
0.0
  0
LINE
  5
102F5
330
10129
100
AcDbEntity
  8
0
100
AcDbLine
 10
57.233
 20
26.44200000000001
 30
0.0
 11
57.192
 21
26.51599999999999
 31
0.0
  0
LINE
  5
102F6
330
10129
100
AcDbEntity
  8
0
100
AcDbLine
 10
57.192
 20
26.51599999999999
 30
0.0
 11
57.155
 21
26.59299999999999
 31
0.0
  0
LINE
  5
102F7
330
10129
100
AcDbEntity
  8
0
100
AcDbLine
 10
57.155
 20
26.59299999999999
 30
0.0
 11
57.123
 21
26.67400000000001
 31
0.0
  0
LINE
  5
102F8
330
10129
100
AcDbEntity
  8
0
100
AcDbLine
 10
57.123
 20
26.67400000000001
 30
0.0
 11
57.095
 21
26.75900000000002
 31
0.0
  0
LINE
  5
102F9
330
10129
100
AcDbEntity
  8
0
100
AcDbLine
 10
57.095
 20
26.75900000000002
 30
0.0
 11
57.071
 21
26.84700000000001
 31
0.0
  0
LINE
  5
102FA
330
10129
100
AcDbEntity
  8
0
100
AcDbLine
 10
57.071
 20
26.84700000000001
 30
0.0
 11
57.052
 21
26.93900000000002
 31
0.0
  0
LINE
  5
102FB
330
10129
100
AcDbEntity
  8
0
100
AcDbLine
 10
57.052
 20
26.93900000000002
 30
0.0
 11
57.036
 21
27.03400000000002
 31
0.0
  0
LINE
  5
102FC
330
10129
100
AcDbEntity
  8
0
100
AcDbLine
 10
57.036
 20
27.03400000000002
 30
0.0
 11
57.026
 21
27.13299999999998
 31
0.0
  0
LINE
  5
102FD
330
10129
100
AcDbEntity
  8
0
100
AcDbLine
 10
57.026
 20
27.13299999999998
 30
0.0
 11
57.019
 21
27.23599999999999
 31
0.0
  0
LINE
  5
102FE
330
10129
100
AcDbEntity
  8
0
100
AcDbLine
 10
57.019
 20
27.23599999999999
 30
0.0
 11
57.01699999999999
 21
27.34200000000001
 31
0.0
  0
LINE
  5
102FF
330
10129
100
AcDbEntity
  8
0
100
AcDbLine
 10
57.01699999999999
 20
27.34200000000001
 30
0.0
 11
57.01699999999999
 21
27.34200000000001
 31
0.0
  0
LINE
  5
10300
330
10129
100
AcDbEntity
  8
0
100
AcDbLine
 10
57.01699999999999
 20
27.34200000000001
 30
0.0
 11
57.01699999999999
 21
33.19799999999998
 31
0.0
  0
LINE
  5
10301
330
10129
100
AcDbEntity
  8
0
100
AcDbLine
 10
57.01699999999999
 20
33.19799999999998
 30
0.0
 11
57.941
 21
33.19799999999998
 31
0.0
  0
LINE
  5
10302
330
10129
100
AcDbEntity
  8
0
100
AcDbLine
 10
57.941
 20
33.19799999999998
 30
0.0
 11
57.941
 21
27.36599999999999
 31
0.0
  0
LINE
  5
10303
330
10129
100
AcDbEntity
  8
0
100
AcDbLine
 10
57.941
 20
27.36599999999999
 30
0.0
 11
57.949
 21
27.197
 31
0.0
  0
LINE
  5
10304
330
10129
100
AcDbEntity
  8
0
100
AcDbLine
 10
57.949
 20
27.197
 30
0.0
 11
57.97399999999999
 21
27.04599999999999
 31
0.0
  0
LINE
  5
10305
330
10129
100
AcDbEntity
  8
0
100
AcDbLine
 10
57.97399999999999
 20
27.04599999999999
 30
0.0
 11
58.016
 21
26.91299999999998
 31
0.0
  0
LINE
  5
10306
330
10129
100
AcDbEntity
  8
0
100
AcDbLine
 10
58.016
 20
26.91299999999998
 30
0.0
 11
58.073
 21
26.798
 31
0.0
  0
LINE
  5
10307
330
10129
100
AcDbEntity
  8
0
100
AcDbLine
 10
58.073
 20
26.798
 30
0.0
 11
58.148
 21
26.69999999999999
 31
0.0
  0
LINE
  5
10308
330
10129
100
AcDbEntity
  8
0
100
AcDbLine
 10
58.148
 20
26.69999999999999
 30
0.0
 11
58.239
 21
26.62000000000001
 31
0.0
  0
LINE
  5
10309
330
10129
100
AcDbEntity
  8
0
100
AcDbLine
 10
58.239
 20
26.62000000000001
 30
0.0
 11
58.347
 21
26.55799999999999
 31
0.0
  0
LINE
  5
1030A
330
10129
100
AcDbEntity
  8
0
100
AcDbLine
 10
58.347
 20
26.55799999999999
 30
0.0
 11
58.47100000000001
 21
26.51400000000001
 31
0.0
  0
LINE
  5
1030B
330
10129
100
AcDbEntity
  8
0
100
AcDbLine
 10
58.47100000000001
 20
26.51400000000001
 30
0.0
 11
58.612
 21
26.487
 31
0.0
  0
LINE
  5
1030C
330
10129
100
AcDbEntity
  8
0
100
AcDbLine
 10
58.612
 20
26.487
 30
0.0
 11
58.769
 21
26.47799999999998
 31
0.0
  0
LINE
  5
1030D
330
10129
100
AcDbEntity
  8
0
100
AcDbLine
 10
58.769
 20
26.47799999999998
 30
0.0
 11
58.769
 21
26.47799999999998
 31
0.0
  0
LINE
  5
1030E
330
10129
100
AcDbEntity
  8
0
100
AcDbLine
 10
58.769
 20
26.47799999999998
 30
0.0
 11
58.81800000000001
 21
26.47900000000002
 31
0.0
  0
LINE
  5
1030F
330
10129
100
AcDbEntity
  8
0
100
AcDbLine
 10
58.81800000000001
 20
26.47900000000002
 30
0.0
 11
58.867
 21
26.47999999999999
 31
0.0
  0
LINE
  5
10310
330
10129
100
AcDbEntity
  8
0
100
AcDbLine
 10
58.867
 20
26.47999999999999
 30
0.0
 11
58.915
 21
26.48300000000001
 31
0.0
  0
LINE
  5
10311
330
10129
100
AcDbEntity
  8
0
100
AcDbLine
 10
58.915
 20
26.48300000000001
 30
0.0
 11
58.963
 21
26.487
 31
0.0
  0
LINE
  5
10312
330
10129
100
AcDbEntity
  8
0
100
AcDbLine
 10
58.963
 20
26.487
 30
0.0
 11
59.011
 21
26.49200000000002
 31
0.0
  0
LINE
  5
10313
330
10129
100
AcDbEntity
  8
0
100
AcDbLine
 10
59.011
 20
26.49200000000002
 30
0.0
 11
59.05899999999999
 21
26.49700000000001
 31
0.0
  0
LINE
  5
10314
330
10129
100
AcDbEntity
  8
0
100
AcDbLine
 10
59.05899999999999
 20
26.49700000000001
 30
0.0
 11
59.106
 21
26.50400000000002
 31
0.0
  0
LINE
  5
10315
330
10129
100
AcDbEntity
  8
0
100
AcDbLine
 10
59.106
 20
26.50400000000002
 30
0.0
 11
59.153
 21
26.51300000000001
 31
0.0
  0
LINE
  5
10316
330
10129
100
AcDbEntity
  8
0
100
AcDbLine
 10
59.153
 20
26.51300000000001
 30
0.0
 11
59.2
 21
26.52200000000002
 31
0.0
  0
LINE
  5
10317
330
10129
100
AcDbEntity
  8
0
100
AcDbLine
 10
59.2
 20
26.52200000000002
 30
0.0
 11
59.246
 21
26.53200000000001
 31
0.0
  0
LINE
  5
10318
330
10129
100
AcDbEntity
  8
0
100
AcDbLine
 10
59.246
 20
26.53200000000001
 30
0.0
 11
59.293
 21
26.54300000000001
 31
0.0
  0
LINE
  5
10319
330
10129
100
AcDbEntity
  8
0
100
AcDbLine
 10
59.293
 20
26.54300000000001
 30
0.0
 11
59.341
 21
26.55599999999998
 31
0.0
  0
LINE
  5
1031A
330
10129
100
AcDbEntity
  8
0
100
AcDbLine
 10
59.341
 20
26.55599999999998
 30
0.0
 11
59.39
 21
26.56900000000002
 31
0.0
  0
LINE
  5
1031B
330
10129
100
AcDbEntity
  8
0
100
AcDbLine
 10
59.39
 20
26.56900000000002
 30
0.0
 11
59.43999999999999
 21
26.584
 31
0.0
  0
LINE
  5
1031C
330
10129
100
AcDbEntity
  8
0
100
AcDbLine
 10
59.43999999999999
 20
26.584
 30
0.0
 11
59.49100000000001
 21
26.6
 31
0.0
  0
LINE
  5
1031D
330
10129
100
AcDbEntity
  8
0
100
AcDbLine
 10
59.49100000000001
 20
26.6
 30
0.0
 11
59.54399999999999
 21
26.61599999999999
 31
0.0
  0
LINE
  5
1031E
330
10129
100
AcDbEntity
  8
0
100
AcDbLine
 10
59.54399999999999
 20
26.61599999999999
 30
0.0
 11
59.597
 21
26.63400000000001
 31
0.0
  0
LINE
  5
1031F
330
10129
100
AcDbEntity
  8
0
100
AcDbLine
 10
59.597
 20
26.63400000000001
 30
0.0
 11
59.652
 21
26.65299999999999
 31
0.0
  0
LINE
  5
10320
330
10129
100
AcDbEntity
  8
0
100
AcDbLine
 10
59.652
 20
26.65299999999999
 30
0.0
 11
59.708
 21
26.673
 31
0.0
  0
LINE
  5
10321
330
10129
100
AcDbEntity
  8
0
100
AcDbLine
 10
59.708
 20
26.673
 30
0.0
 11
59.765
 21
26.69400000000002
 31
0.0
  0
LINE
  5
10322
330
10129
100
AcDbEntity
  8
0
100
AcDbLine
 10
59.765
 20
26.69400000000002
 30
0.0
 11
59.765
 21
26.69400000000002
 31
0.0
  0
LINE
  5
10323
330
10129
100
AcDbEntity
  8
0
100
AcDbLine
 10
59.765
 20
26.69400000000002
 30
0.0
 11
59.897
 21
26.02200000000002
 31
0.0
  0
LINE
  5
10324
330
10129
100
AcDbEntity
  8
0
100
AcDbLine
 10
59.897
 20
26.02200000000002
 30
0.0
 11
59.836
 21
25.99599999999998
 31
0.0
  0
LINE
  5
10325
330
10129
100
AcDbEntity
  8
0
100
AcDbLine
 10
59.836
 20
25.99599999999998
 30
0.0
 11
59.775
 21
25.97099999999997
 31
0.0
  0
LINE
  5
10326
330
10129
100
AcDbEntity
  8
0
100
AcDbLine
 10
59.775
 20
25.97099999999997
 30
0.0
 11
59.714
 21
25.947
 31
0.0
  0
LINE
  5
10327
330
10129
100
AcDbEntity
  8
0
100
AcDbLine
 10
59.714
 20
25.947
 30
0.0
 11
59.653
 21
25.92400000000001
 31
0.0
  0
LINE
  5
10328
330
10129
100
AcDbEntity
  8
0
100
AcDbLine
 10
59.653
 20
25.92400000000001
 30
0.0
 11
59.592
 21
25.90200000000002
 31
0.0
  0
LINE
  5
10329
330
10129
100
AcDbEntity
  8
0
100
AcDbLine
 10
59.592
 20
25.90200000000002
 30
0.0
 11
59.531
 21
25.88099999999997
 31
0.0
  0
LINE
  5
1032A
330
10129
100
AcDbEntity
  8
0
100
AcDbLine
 10
59.531
 20
25.88099999999997
 30
0.0
 11
59.47
 21
25.86099999999999
 31
0.0
  0
LINE
  5
1032B
330
10129
100
AcDbEntity
  8
0
100
AcDbLine
 10
59.47
 20
25.86099999999999
 30
0.0
 11
59.409
 21
25.84200000000001
 31
0.0
  0
LINE
  5
1032C
330
10129
100
AcDbEntity
  8
0
100
AcDbLine
 10
59.409
 20
25.84200000000001
 30
0.0
 11
59.34899999999999
 21
25.82299999999998
 31
0.0
  0
LINE
  5
1032D
330
10129
100
AcDbEntity
  8
0
100
AcDbLine
 10
59.34899999999999
 20
25.82299999999998
 30
0.0
 11
59.288
 21
25.80599999999999
 31
0.0
  0
LINE
  5
1032E
330
10129
100
AcDbEntity
  8
0
100
AcDbLine
 10
59.288
 20
25.80599999999999
 30
0.0
 11
59.22699999999999
 21
25.78999999999999
 31
0.0
  0
LINE
  5
1032F
330
10129
100
AcDbEntity
  8
0
100
AcDbLine
 10
59.22699999999999
 20
25.78999999999999
 30
0.0
 11
59.166
 21
25.77599999999999
 31
0.0
  0
LINE
  5
10330
330
10129
100
AcDbEntity
  8
0
100
AcDbLine
 10
59.166
 20
25.77599999999999
 30
0.0
 11
59.104
 21
25.76300000000001
 31
0.0
  0
LINE
  5
10331
330
10129
100
AcDbEntity
  8
0
100
AcDbLine
 10
59.104
 20
25.76300000000001
 30
0.0
 11
59.042
 21
25.75200000000001
 31
0.0
  0
LINE
  5
10332
330
10129
100
AcDbEntity
  8
0
100
AcDbLine
 10
59.042
 20
25.75200000000001
 30
0.0
 11
58.97999999999999
 21
25.743
 31
0.0
  0
LINE
  5
10333
330
10129
100
AcDbEntity
  8
0
100
AcDbLine
 10
58.97999999999999
 20
25.743
 30
0.0
 11
58.917
 21
25.73500000000001
 31
0.0
  0
LINE
  5
10334
330
10129
100
AcDbEntity
  8
0
100
AcDbLine
 10
58.917
 20
25.73500000000001
 30
0.0
 11
58.854
 21
25.72999999999999
 31
0.0
  0
LINE
  5
10335
330
10129
100
AcDbEntity
  8
0
100
AcDbLine
 10
58.854
 20
25.72999999999999
 30
0.0
 11
58.79
 21
25.725
 31
0.0
  0
LINE
  5
10336
330
10129
100
AcDbEntity
  8
0
100
AcDbLine
 10
58.79
 20
25.725
 30
0.0
 11
58.72600000000001
 21
25.72299999999998
 31
0.0
  0
LINE
  5
10337
330
10129
100
AcDbEntity
  8
0
100
AcDbLine
 10
58.72600000000001
 20
25.72299999999998
 30
0.0
 11
58.661
 21
25.72200000000001
 31
0.0
  0
LINE
  5
10338
330
10129
100
AcDbEntity
  8
0
100
AcDbLine
 10
58.661
 20
25.72200000000001
 30
0.0
 11
58.661
 21
25.72200000000001
 31
0.0
  0
LINE
  5
10339
330
10129
100
AcDbEntity
  8
0
100
AcDbLine
 10
59.753
 20
30.95400000000001
 30
0.0
 11
56.09300000000001
 21
30.95400000000001
 31
0.0
  0
LINE
  5
1033A
330
10129
100
AcDbEntity
  8
0
100
AcDbLine
 10
56.09300000000001
 20
30.95400000000001
 30
0.0
 11
56.09300000000001
 21
31.60200000000001
 31
0.0
  0
LINE
  5
1033B
330
10129
100
AcDbEntity
  8
0
100
AcDbLine
 10
56.09300000000001
 20
31.60200000000001
 30
0.0
 11
59.753
 21
31.60200000000001
 31
0.0
  0
LINE
  5
1033C
330
10129
100
AcDbEntity
  8
0
100
AcDbLine
 10
59.753
 20
31.60200000000001
 30
0.0
 11
59.753
 21
30.95400000000001
 31
0.0
  0
LINE
  5
1033D
330
10129
100
AcDbEntity
  8
0
100
AcDbLine
 10
59.753
 20
30.95400000000001
 30
0.0
 11
59.753
 21
30.95400000000001
 31
0.0
  0
CIRCLE
  5
1033E
330
10129
100
AcDbEntity
  8
0
  6
Continuous
100
AcDbCircle
 10
85.0
 20
15.0
 30
0.0
 40
5.0
  0
CIRCLE
  5
1033F
330
10129
100
AcDbEntity
  8
0
  6
Continuous
100
AcDbCircle
 10
10.0
 20
30.0
 30
0.0
 40
2.009999999999999
  0
ENDBLK
  5
10341
330
10129
100
AcDbEntity
  8
0
100
AcDbBlockEnd
  0
ENDSEC
  0
SECTION
  2
ENTITIES
  0
LINE
  5
1A
330
C
100
AcDbEntity
  8
0
100
AcDbLine
 10
150.0
 20
63.0
 30
0.0
 11
145.5
 21
63.0
 31
0.0
  0
LINE
  5
1B
330
C
100
AcDbEntity
  8
0
100
AcDbLine
 10
145.5
 20
63.0
 30
0.0
 11
145.5
 21
60.0
 31
0.0
  0
LINE
  5
1C
330
C
100
AcDbEntity
  8
0
100
AcDbLine
 10
145.5
 20
60.0
 30
0.0
 11
130.5
 21
60.0
 31
0.0
  0
LINE
  5
1D
330
C
100
AcDbEntity
  8
0
100
AcDbLine
 10
130.5
 20
60.0
 30
0.0
 11
130.5
 21
63.0
 31
0.0
  0
LINE
  5
1E
330
C
100
AcDbEntity
  8
0
100
AcDbLine
 10
130.5
 20
63.0
 30
0.0
 11
115.5
 21
63.0
 31
0.0
  0
LINE
  5
1F
330
C
100
AcDbEntity
  8
0
100
AcDbLine
 10
115.5
 20
63.0
 30
0.0
 11
115.5
 21
60.0
 31
0.0
  0
LINE
  5
20
330
C
100
AcDbEntity
  8
0
100
AcDbLine
 10
115.5
 20
60.0
 30
0.0
 11
100.5
 21
60.0
 31
0.0
  0
LINE
  5
21
330
C
100
AcDbEntity
  8
0
100
AcDbLine
 10
100.5
 20
60.0
 30
0.0
 11
100.5
 21
63.0
 31
0.0
  0
LINE
  5
22
330
C
100
AcDbEntity
  8
0
100
AcDbLine
 10
100.5
 20
63.0
 30
0.0
 11
94.0
 21
63.0
 31
0.0
  0
LINE
  5
26
330
C
100
AcDbEntity
  8
0
100
AcDbLine
 10
59.0
 20
63.0
 30
0.0
 11
55.5
 21
63.0
 31
0.0
  0
LINE
  5
27
330
C
100
AcDbEntity
  8
0
100
AcDbLine
 10
55.5
 20
63.0
 30
0.0
 11
55.5
 21
60.0
 31
0.0
  0
LINE
  5
28
330
C
100
AcDbEntity
  8
0
100
AcDbLine
 10
55.5
 20
60.0
 30
0.0
 11
40.49999999999999
 21
60.0
 31
0.0
  0
LINE
  5
29
330
C
100
AcDbEntity
  8
0
100
AcDbLine
 10
40.49999999999999
 20
60.0
 30
0.0
 11
40.49999999999999
 21
63.0
 31
0.0
  0
LINE
  5
2A
330
C
100
AcDbEntity
  8
0
100
AcDbLine
 10
40.49999999999999
 20
63.0
 30
0.0
 11
25.5
 21
63.0
 31
0.0
  0
LINE
  5
2B
330
C
100
AcDbEntity
  8
0
100
AcDbLine
 10
25.5
 20
63.0
 30
0.0
 11
25.5
 21
60.0
 31
0.0
  0
LINE
  5
2C
330
C
100
AcDbEntity
  8
0
100
AcDbLine
 10
25.5
 20
60.0
 30
0.0
 11
10.5
 21
60.0
 31
0.0
  0
LINE
  5
2D
330
C
100
AcDbEntity
  8
0
100
AcDbLine
 10
10.5
 20
60.0
 30
0.0
 11
10.5
 21
63.0
 31
0.0
  0
LINE
  5
2E
330
C
100
AcDbEntity
  8
0
100
AcDbLine
 10
10.5
 20
63.0
 30
0.0
 11
6.0
 21
63.0
 31
0.0
  0
LINE
  5
2F
330
C
100
AcDbEntity
  8
0
100
AcDbLine
 10
6.0
 20
63.0
 30
0.0
 11
6.0
 21
60.0
 31
0.0
  0
LINE
  5
30
330
C
100
AcDbEntity
  8
0
100
AcDbLine
 10
6.0
 20
60.0
 30
0.0
 11
6.0
 21
55.5
 31
0.0
  0
LINE
  5
31
330
C
100
AcDbEntity
  8
0
100
AcDbLine
 10
6.0
 20
55.5
 30
0.0
 11
3.0
 21
55.5
 31
0.0
  0
LINE
  5
32
330
C
100
AcDbEntity
  8
0
100
AcDbLine
 10
3.0
 20
55.5
 30
0.0
 11
3.0
 21
40.49999999999999
 31
0.0
  0
LINE
  5
33
330
C
100
AcDbEntity
  8
0
100
AcDbLine
 10
3.0
 20
40.49999999999999
 30
0.0
 11
6.0
 21
40.49999999999999
 31
0.0
  0
LINE
  5
34
330
C
100
AcDbEntity
  8
0
100
AcDbLine
 10
6.0
 20
40.49999999999999
 30
0.0
 11
6.0
 21
25.5
 31
0.0
  0
LINE
  5
35
330
C
100
AcDbEntity
  8
0
100
AcDbLine
 10
6.0
 20
25.5
 30
0.0
 11
3.0
 21
25.5
 31
0.0
  0
LINE
  5
36
330
C
100
AcDbEntity
  8
0
100
AcDbLine
 10
3.0
 20
25.5
 30
0.0
 11
3.0
 21
10.5
 31
0.0
  0
LINE
  5
37
330
C
100
AcDbEntity
  8
0
100
AcDbLine
 10
3.0
 20
10.5
 30
0.0
 11
6.0
 21
10.5
 31
0.0
  0
LINE
  5
38
330
C
100
AcDbEntity
  8
0
100
AcDbLine
 10
6.0
 20
10.5
 30
0.0
 11
6.0
 21
6.0
 31
0.0
  0
LINE
  5
39
330
C
100
AcDbEntity
  8
0
100
AcDbLine
 10
6.0
 20
6.0
 30
0.0
 11
6.0
 21
3.0
 31
0.0
  0
LINE
  5
3A
330
C
100
AcDbEntity
  8
0
100
AcDbLine
 10
6.0
 20
3.0
 30
0.0
 11
10.5
 21
3.0
 31
0.0
  0
LINE
  5
3B
330
C
100
AcDbEntity
  8
0
100
AcDbLine
 10
10.5
 20
3.0
 30
0.0
 11
10.5
 21
6.0
 31
0.0
  0
LINE
  5
3C
330
C
100
AcDbEntity
  8
0
100
AcDbLine
 10
10.5
 20
6.0
 30
0.0
 11
25.5
 21
6.0
 31
0.0
  0
LINE
  5
3D
330
C
100
AcDbEntity
  8
0
100
AcDbLine
 10
25.5
 20
6.0
 30
0.0
 11
25.5
 21
3.0
 31
0.0
  0
LINE
  5
3E
330
C
100
AcDbEntity
  8
0
100
AcDbLine
 10
25.5
 20
3.0
 30
0.0
 11
40.49999999999999
 21
3.0
 31
0.0
  0
LINE
  5
3F
330
C
100
AcDbEntity
  8
0
100
AcDbLine
 10
40.49999999999999
 20
3.0
 30
0.0
 11
40.49999999999999
 21
6.0
 31
0.0
  0
LINE
  5
40
330
C
100
AcDbEntity
  8
0
100
AcDbLine
 10
40.49999999999999
 20
6.0
 30
0.0
 11
55.5
 21
6.0
 31
0.0
  0
LINE
  5
41
330
C
100
AcDbEntity
  8
0
100
AcDbLine
 10
55.5
 20
6.0
 30
0.0
 11
55.5
 21
3.0
 31
0.0
  0
LINE
  5
42
330
C
100
AcDbEntity
  8
0
100
AcDbLine
 10
55.5
 20
3.0
 30
0.0
 11
70.5
 21
3.0
 31
0.0
  0
LINE
  5
43
330
C
100
AcDbEntity
  8
0
100
AcDbLine
 10
70.5
 20
3.0
 30
0.0
 11
70.5
 21
6.0
 31
0.0
  0
LINE
  5
44
330
C
100
AcDbEntity
  8
0
100
AcDbLine
 10
70.5
 20
6.0
 30
0.0
 11
85.5
 21
6.0
 31
0.0
  0
LINE
  5
45
330
C
100
AcDbEntity
  8
0
100
AcDbLine
 10
85.5
 20
6.0
 30
0.0
 11
85.5
 21
3.0
 31
0.0
  0
LINE
  5
46
330
C
100
AcDbEntity
  8
0
100
AcDbLine
 10
85.5
 20
3.0
 30
0.0
 11
100.5
 21
3.0
 31
0.0
  0
LINE
  5
47
330
C
100
AcDbEntity
  8
0
100
AcDbLine
 10
100.5
 20
3.0
 30
0.0
 11
100.5
 21
6.0
 31
0.0
  0
LINE
  5
48
330
C
100
AcDbEntity
  8
0
100
AcDbLine
 10
100.5
 20
6.0
 30
0.0
 11
115.5
 21
6.0
 31
0.0
  0
LINE
  5
49
330
C
100
AcDbEntity
  8
0
100
AcDbLine
 10
115.5
 20
6.0
 30
0.0
 11
115.5
 21
3.0
 31
0.0
  0
LINE
  5
4A
330
C
100
AcDbEntity
  8
0
100
AcDbLine
 10
115.5
 20
3.0
 30
0.0
 11
130.5
 21
3.0
 31
0.0
  0
LINE
  5
4B
330
C
100
AcDbEntity
  8
0
100
AcDbLine
 10
130.5
 20
3.0
 30
0.0
 11
130.5
 21
6.0
 31
0.0
  0
LINE
  5
4C
330
C
100
AcDbEntity
  8
0
100
AcDbLine
 10
130.5
 20
6.0
 30
0.0
 11
145.5
 21
6.0
 31
0.0
  0
LINE
  5
4D
330
C
100
AcDbEntity
  8
0
100
AcDbLine
 10
145.5
 20
6.0
 30
0.0
 11
145.5
 21
3.0
 31
0.0
  0
LINE
  5
4E
330
C
100
AcDbEntity
  8
0
100
AcDbLine
 10
145.5
 20
3.0
 30
0.0
 11
150.0
 21
3.0
 31
0.0
  0
LINE
  5
4F
330
C
100
AcDbEntity
  8
0
100
AcDbLine
 10
150.0
 20
3.0
 30
0.0
 11
150.0
 21
6.0
 31
0.0
  0
LINE
  5
50
330
C
100
AcDbEntity
  8
0
100
AcDbLine
 10
150.0
 20
6.0
 30
0.0
 11
150.0
 21
10.5
 31
0.0
  0
LINE
  5
51
330
C
100
AcDbEntity
  8
0
100
AcDbLine
 10
150.0
 20
10.5
 30
0.0
 11
153.0
 21
10.5
 31
0.0
  0
LINE
  5
52
330
C
100
AcDbEntity
  8
0
100
AcDbLine
 10
153.0
 20
10.5
 30
0.0
 11
153.0
 21
25.5
 31
0.0
  0
LINE
  5
53
330
C
100
AcDbEntity
  8
0
100
AcDbLine
 10
153.0
 20
25.5
 30
0.0
 11
150.0
 21
25.5
 31
0.0
  0
LINE
  5
54
330
C
100
AcDbEntity
  8
0
100
AcDbLine
 10
150.0
 20
25.5
 30
0.0
 11
150.0
 21
40.49999999999999
 31
0.0
  0
LINE
  5
55
330
C
100
AcDbEntity
  8
0
100
AcDbLine
 10
150.0
 20
40.49999999999999
 30
0.0
 11
153.0
 21
40.49999999999999
 31
0.0
  0
LINE
  5
56
330
C
100
AcDbEntity
  8
0
100
AcDbLine
 10
153.0
 20
40.49999999999999
 30
0.0
 11
153.0
 21
55.5
 31
0.0
  0
LINE
  5
57
330
C
100
AcDbEntity
  8
0
100
AcDbLine
 10
153.0
 20
55.5
 30
0.0
 11
150.0
 21
55.5
 31
0.0
  0
LINE
  5
58
330
C
100
AcDbEntity
  8
0
100
AcDbLine
 10
150.0
 20
55.5
 30
0.0
 11
150.0
 21
60.0
 31
0.0
  0
LINE
  5
59
330
C
100
AcDbEntity
  8
0
100
AcDbLine
 10
150.0
 20
60.0
 30
0.0
 11
150.0
 21
63.0
 31
0.0
  0
LINE
  5
296
330
C
100
AcDbEntity
  8
0
100
AcDbLine
 10
150.0
 20
126.0
 30
0.0
 11
145.5
 21
126.0
 31
0.0
  0
LINE
  5
297
330
C
100
AcDbEntity
  8
0
100
AcDbLine
 10
145.5
 20
126.0
 30
0.0
 11
145.5
 21
123.0
 31
0.0
  0
LINE
  5
298
330
C
100
AcDbEntity
  8
0
100
AcDbLine
 10
145.5
 20
123.0
 30
0.0
 11
130.5
 21
123.0
 31
0.0
  0
LINE
  5
299
330
C
100
AcDbEntity
  8
0
100
AcDbLine
 10
130.5
 20
123.0
 30
0.0
 11
130.5
 21
126.0
 31
0.0
  0
LINE
  5
29A
330
C
100
AcDbEntity
  8
0
100
AcDbLine
 10
130.5
 20
126.0
 30
0.0
 11
115.5
 21
126.0
 31
0.0
  0
LINE
  5
29B
330
C
100
AcDbEntity
  8
0
100
AcDbLine
 10
115.5
 20
126.0
 30
0.0
 11
115.5
 21
123.0
 31
0.0
  0
LINE
  5
29C
330
C
100
AcDbEntity
  8
0
100
AcDbLine
 10
115.5
 20
123.0
 30
0.0
 11
100.5
 21
123.0
 31
0.0
  0
LINE
  5
29D
330
C
100
AcDbEntity
  8
0
100
AcDbLine
 10
100.5
 20
123.0
 30
0.0
 11
100.5
 21
126.0
 31
0.0
  0
LINE
  5
29E
330
C
100
AcDbEntity
  8
0
100
AcDbLine
 10
100.5
 20
126.0
 30
0.0
 11
85.5
 21
126.0
 31
0.0
  0
LINE
  5
29F
330
C
100
AcDbEntity
  8
0
100
AcDbLine
 10
85.5
 20
126.0
 30
0.0
 11
85.5
 21
123.0
 31
0.0
  0
LINE
  5
2A0
330
C
100
AcDbEntity
  8
0
100
AcDbLine
 10
85.5
 20
123.0
 30
0.0
 11
70.5
 21
123.0
 31
0.0
  0
LINE
  5
2A1
330
C
100
AcDbEntity
  8
0
100
AcDbLine
 10
70.5
 20
123.0
 30
0.0
 11
70.5
 21
126.0
 31
0.0
  0
LINE
  5
2A2
330
C
100
AcDbEntity
  8
0
100
AcDbLine
 10
70.5
 20
126.0
 30
0.0
 11
55.5
 21
126.0
 31
0.0
  0
LINE
  5
2A3
330
C
100
AcDbEntity
  8
0
100
AcDbLine
 10
55.5
 20
126.0
 30
0.0
 11
55.5
 21
123.0
 31
0.0
  0
LINE
  5
2A4
330
C
100
AcDbEntity
  8
0
100
AcDbLine
 10
55.5
 20
123.0
 30
0.0
 11
40.49999999999999
 21
123.0
 31
0.0
  0
LINE
  5
2A5
330
C
100
AcDbEntity
  8
0
100
AcDbLine
 10
40.49999999999999
 20
123.0
 30
0.0
 11
40.49999999999999
 21
126.0
 31
0.0
  0
LINE
  5
2A6
330
C
100
AcDbEntity
  8
0
100
AcDbLine
 10
40.49999999999999
 20
126.0
 30
0.0
 11
25.5
 21
126.0
 31
0.0
  0
LINE
  5
2A7
330
C
100
AcDbEntity
  8
0
100
AcDbLine
 10
25.5
 20
126.0
 30
0.0
 11
25.5
 21
123.0
 31
0.0
  0
LINE
  5
2A8
330
C
100
AcDbEntity
  8
0
100
AcDbLine
 10
25.5
 20
123.0
 30
0.0
 11
10.5
 21
123.0
 31
0.0
  0
LINE
  5
2A9
330
C
100
AcDbEntity
  8
0
100
AcDbLine
 10
10.5
 20
123.0
 30
0.0
 11
10.5
 21
126.0
 31
0.0
  0
LINE
  5
2AA
330
C
100
AcDbEntity
  8
0
100
AcDbLine
 10
10.5
 20
126.0
 30
0.0
 11
6.0
 21
126.0
 31
0.0
  0
LINE
  5
2AB
330
C
100
AcDbEntity
  8
0
100
AcDbLine
 10
6.0
 20
126.0
 30
0.0
 11
6.0
 21
123.0
 31
0.0
  0
LINE
  5
2AC
330
C
100
AcDbEntity
  8
0
100
AcDbLine
 10
6.0
 20
123.0
 30
0.0
 11
6.0
 21
118.5
 31
0.0
  0
LINE
  5
2AD
330
C
100
AcDbEntity
  8
0
100
AcDbLine
 10
6.0
 20
118.5
 30
0.0
 11
3.0
 21
118.5
 31
0.0
  0
LINE
  5
2AE
330
C
100
AcDbEntity
  8
0
100
AcDbLine
 10
3.0
 20
118.5
 30
0.0
 11
3.0
 21
103.5
 31
0.0
  0
LINE
  5
2AF
330
C
100
AcDbEntity
  8
0
100
AcDbLine
 10
3.0
 20
103.5
 30
0.0
 11
6.0
 21
103.5
 31
0.0
  0
LINE
  5
2B0
330
C
100
AcDbEntity
  8
0
100
AcDbLine
 10
6.0
 20
103.5
 30
0.0
 11
6.0
 21
88.49999999999999
 31
0.0
  0
LINE
  5
2B1
330
C
100
AcDbEntity
  8
0
100
AcDbLine
 10
6.0
 20
88.49999999999999
 30
0.0
 11
3.0
 21
88.49999999999999
 31
0.0
  0
LINE
  5
2B2
330
C
100
AcDbEntity
  8
0
100
AcDbLine
 10
3.0
 20
88.49999999999999
 30
0.0
 11
3.0
 21
73.5
 31
0.0
  0
LINE
  5
2B3
330
C
100
AcDbEntity
  8
0
100
AcDbLine
 10
3.0
 20
73.5
 30
0.0
 11
6.0
 21
73.5
 31
0.0
  0
LINE
  5
2B4
330
C
100
AcDbEntity
  8
0
100
AcDbLine
 10
6.0
 20
73.5
 30
0.0
 11
6.0
 21
69.0
 31
0.0
  0
LINE
  5
2B5
330
C
100
AcDbEntity
  8
0
100
AcDbLine
 10
6.0
 20
69.0
 30
0.0
 11
6.0
 21
66.0
 31
0.0
  0
LINE
  5
2B6
330
C
100
AcDbEntity
  8
0
100
AcDbLine
 10
6.0
 20
66.0
 30
0.0
 11
10.5
 21
66.0
 31
0.0
  0
LINE
  5
2B7
330
C
100
AcDbEntity
  8
0
100
AcDbLine
 10
10.5
 20
66.0
 30
0.0
 11
10.5
 21
69.0
 31
0.0
  0
LINE
  5
2B8
330
C
100
AcDbEntity
  8
0
100
AcDbLine
 10
10.5
 20
69.0
 30
0.0
 11
25.5
 21
69.0
 31
0.0
  0
LINE
  5
2B9
330
C
100
AcDbEntity
  8
0
100
AcDbLine
 10
25.5
 20
69.0
 30
0.0
 11
25.5
 21
66.0
 31
0.0
  0
LINE
  5
2BA
330
C
100
AcDbEntity
  8
0
100
AcDbLine
 10
25.5
 20
66.0
 30
0.0
 11
40.49999999999999
 21
66.0
 31
0.0
  0
LINE
  5
2BB
330
C
100
AcDbEntity
  8
0
100
AcDbLine
 10
40.49999999999999
 20
66.0
 30
0.0
 11
40.49999999999999
 21
69.0
 31
0.0
  0
LINE
  5
2BC
330
C
100
AcDbEntity
  8
0
100
AcDbLine
 10
40.49999999999999
 20
69.0
 30
0.0
 11
55.5
 21
69.0
 31
0.0
  0
LINE
  5
2BD
330
C
100
AcDbEntity
  8
0
100
AcDbLine
 10
55.5
 20
69.0
 30
0.0
 11
55.5
 21
66.0
 31
0.0
  0
LINE
  5
2BE
330
C
100
AcDbEntity
  8
0
100
AcDbLine
 10
55.5
 20
66.0
 30
0.0
 11
70.5
 21
66.0
 31
0.0
  0
LINE
  5
2BF
330
C
100
AcDbEntity
  8
0
100
AcDbLine
 10
70.5
 20
66.0
 30
0.0
 11
70.5
 21
69.0
 31
0.0
  0
LINE
  5
2C0
330
C
100
AcDbEntity
  8
0
100
AcDbLine
 10
70.5
 20
69.0
 30
0.0
 11
85.5
 21
69.0
 31
0.0
  0
LINE
  5
2C1
330
C
100
AcDbEntity
  8
0
100
AcDbLine
 10
85.5
 20
69.0
 30
0.0
 11
85.5
 21
66.0
 31
0.0
  0
LINE
  5
2C2
330
C
100
AcDbEntity
  8
0
100
AcDbLine
 10
85.5
 20
66.0
 30
0.0
 11
100.5
 21
66.0
 31
0.0
  0
LINE
  5
2C3
330
C
100
AcDbEntity
  8
0
100
AcDbLine
 10
100.5
 20
66.0
 30
0.0
 11
100.5
 21
69.0
 31
0.0
  0
LINE
  5
2C4
330
C
100
AcDbEntity
  8
0
100
AcDbLine
 10
100.5
 20
69.0
 30
0.0
 11
115.5
 21
69.0
 31
0.0
  0
LINE
  5
2C5
330
C
100
AcDbEntity
  8
0
100
AcDbLine
 10
115.5
 20
69.0
 30
0.0
 11
115.5
 21
66.0
 31
0.0
  0
LINE
  5
2C6
330
C
100
AcDbEntity
  8
0
100
AcDbLine
 10
115.5
 20
66.0
 30
0.0
 11
130.5
 21
66.0
 31
0.0
  0
LINE
  5
2C7
330
C
100
AcDbEntity
  8
0
100
AcDbLine
 10
130.5
 20
66.0
 30
0.0
 11
130.5
 21
69.0
 31
0.0
  0
LINE
  5
2C8
330
C
100
AcDbEntity
  8
0
100
AcDbLine
 10
130.5
 20
69.0
 30
0.0
 11
145.5
 21
69.0
 31
0.0
  0
LINE
  5
2C9
330
C
100
AcDbEntity
  8
0
100
AcDbLine
 10
145.5
 20
69.0
 30
0.0
 11
145.5
 21
66.0
 31
0.0
  0
LINE
  5
2CA
330
C
100
AcDbEntity
  8
0
100
AcDbLine
 10
145.5
 20
66.0
 30
0.0
 11
150.0
 21
66.0
 31
0.0
  0
LINE
  5
2CB
330
C
100
AcDbEntity
  8
0
100
AcDbLine
 10
150.0
 20
66.0
 30
0.0
 11
150.0
 21
69.0
 31
0.0
  0
LINE
  5
2CC
330
C
100
AcDbEntity
  8
0
100
AcDbLine
 10
150.0
 20
69.0
 30
0.0
 11
150.0
 21
73.5
 31
0.0
  0
LINE
  5
2CD
330
C
100
AcDbEntity
  8
0
100
AcDbLine
 10
150.0
 20
73.5
 30
0.0
 11
153.0
 21
73.5
 31
0.0
  0
LINE
  5
2CE
330
C
100
AcDbEntity
  8
0
100
AcDbLine
 10
153.0
 20
73.5
 30
0.0
 11
153.0
 21
88.49999999999999
 31
0.0
  0
LINE
  5
2CF
330
C
100
AcDbEntity
  8
0
100
AcDbLine
 10
153.0
 20
88.49999999999999
 30
0.0
 11
150.0
 21
88.49999999999999
 31
0.0
  0
LINE
  5
2D0
330
C
100
AcDbEntity
  8
0
100
AcDbLine
 10
150.0
 20
88.49999999999999
 30
0.0
 11
150.0
 21
103.5
 31
0.0
  0
LINE
  5
2D1
330
C
100
AcDbEntity
  8
0
100
AcDbLine
 10
150.0
 20
103.5
 30
0.0
 11
153.0
 21
103.5
 31
0.0
  0
LINE
  5
2D2
330
C
100
AcDbEntity
  8
0
100
AcDbLine
 10
153.0
 20
103.5
 30
0.0
 11
153.0
 21
118.5
 31
0.0
  0
LINE
  5
2D3
330
C
100
AcDbEntity
  8
0
100
AcDbLine
 10
153.0
 20
118.5
 30
0.0
 11
150.0
 21
118.5
 31
0.0
  0
LINE
  5
2D4
330
C
100
AcDbEntity
  8
0
100
AcDbLine
 10
150.0
 20
118.5
 30
0.0
 11
150.0
 21
123.0
 31
0.0
  0
LINE
  5
2D5
330
C
100
AcDbEntity
  8
0
100
AcDbLine
 10
150.0
 20
123.0
 30
0.0
 11
150.0
 21
126.0
 31
0.0
  0
LINE
  5
5FD
330
C
100
AcDbEntity
  8
0
100
AcDbLine
 10
103.0
 20
269.0
 30
0.0
 11
100.0
 21
269.0
 31
0.0
  0
LINE
  5
5FE
330
C
100
AcDbEntity
  8
0
100
AcDbLine
 10
100.0
 20
269.0
 30
0.0
 11
90.5
 21
269.0
 31
0.0
  0
LINE
  5
5FF
330
C
100
AcDbEntity
  8
0
100
AcDbLine
 10
90.5
 20
269.0
 30
0.0
 11
90.5
 21
266.0
 31
0.0
  0
LINE
  5
600
330
C
100
AcDbEntity
  8
0
100
AcDbLine
 10
90.5
 20
266.0
 30
0.0
 11
75.5
 21
266.0
 31
0.0
  0
LINE
  5
601
330
C
100
AcDbEntity
  8
0
100
AcDbLine
 10
75.5
 20
266.0
 30
0.0
 11
75.5
 21
269.0
 31
0.0
  0
LINE
  5
602
330
C
100
AcDbEntity
  8
0
100
AcDbLine
 10
75.5
 20
269.0
 30
0.0
 11
60.5
 21
269.0
 31
0.0
  0
LINE
  5
603
330
C
100
AcDbEntity
  8
0
100
AcDbLine
 10
60.5
 20
269.0
 30
0.0
 11
60.5
 21
266.0
 31
0.0
  0
LINE
  5
604
330
C
100
AcDbEntity
  8
0
100
AcDbLine
 10
60.5
 20
266.0
 30
0.0
 11
45.49999999999999
 21
266.0
 31
0.0
  0
LINE
  5
605
330
C
100
AcDbEntity
  8
0
100
AcDbLine
 10
45.49999999999999
 20
266.0
 30
0.0
 11
45.49999999999999
 21
269.0
 31
0.0
  0
LINE
  5
606
330
C
100
AcDbEntity
  8
0
100
AcDbLine
 10
45.49999999999999
 20
269.0
 30
0.0
 11
30.5
 21
269.0
 31
0.0
  0
LINE
  5
607
330
C
100
AcDbEntity
  8
0
100
AcDbLine
 10
30.5
 20
269.0
 30
0.0
 11
30.5
 21
266.0
 31
0.0
  0
LINE
  5
608
330
C
100
AcDbEntity
  8
0
100
AcDbLine
 10
30.5
 20
266.0
 30
0.0
 11
15.5
 21
266.0
 31
0.0
  0
LINE
  5
609
330
C
100
AcDbEntity
  8
0
100
AcDbLine
 10
15.5
 20
266.0
 30
0.0
 11
15.5
 21
269.0
 31
0.0
  0
LINE
  5
60A
330
C
100
AcDbEntity
  8
0
100
AcDbLine
 10
15.5
 20
269.0
 30
0.0
 11
6.0
 21
269.0
 31
0.0
  0
LINE
  5
60B
330
C
100
AcDbEntity
  8
0
100
AcDbLine
 10
6.0
 20
269.0
 30
0.0
 11
3.0
 21
269.0
 31
0.0
  0
LINE
  5
60C
330
C
100
AcDbEntity
  8
0
100
AcDbLine
 10
3.0
 20
269.0
 30
0.0
 11
3.0
 21
266.0
 31
0.0
  0
LINE
  5
60D
330
C
100
AcDbEntity
  8
0
100
AcDbLine
 10
3.0
 20
266.0
 30
0.0
 11
3.0
 21
261.5
 31
0.0
  0
LINE
  5
60E
330
C
100
AcDbEntity
  8
0
100
AcDbLine
 10
3.0
 20
261.5
 30
0.0
 11
6.0
 21
261.5
 31
0.0
  0
LINE
  5
60F
330
C
100
AcDbEntity
  8
0
100
AcDbLine
 10
6.0
 20
261.5
 30
0.0
 11
6.0
 21
246.5
 31
0.0
  0
LINE
  5
610
330
C
100
AcDbEntity
  8
0
100
AcDbLine
 10
6.0
 20
246.5
 30
0.0
 11
3.0
 21
246.5
 31
0.0
  0
LINE
  5
611
330
C
100
AcDbEntity
  8
0
100
AcDbLine
 10
3.0
 20
246.5
 30
0.0
 11
3.0
 21
231.5
 31
0.0
  0
LINE
  5
612
330
C
100
AcDbEntity
  8
0
100
AcDbLine
 10
3.0
 20
231.5
 30
0.0
 11
6.0
 21
231.5
 31
0.0
  0
LINE
  5
613
330
C
100
AcDbEntity
  8
0
100
AcDbLine
 10
6.0
 20
231.5
 30
0.0
 11
6.0
 21
216.5
 31
0.0
  0
LINE
  5
614
330
C
100
AcDbEntity
  8
0
100
AcDbLine
 10
6.0
 20
216.5
 30
0.0
 11
3.0
 21
216.5
 31
0.0
  0
LINE
  5
615
330
C
100
AcDbEntity
  8
0
100
AcDbLine
 10
3.0
 20
216.5
 30
0.0
 11
3.0
 21
212.0
 31
0.0
  0
LINE
  5
616
330
C
100
AcDbEntity
  8
0
100
AcDbLine
 10
3.0
 20
212.0
 30
0.0
 11
3.0
 21
209.0
 31
0.0
  0
LINE
  5
617
330
C
100
AcDbEntity
  8
0
100
AcDbLine
 10
3.0
 20
209.0
 30
0.0
 11
6.0
 21
209.0
 31
0.0
  0
LINE
  5
618
330
C
100
AcDbEntity
  8
0
100
AcDbLine
 10
6.0
 20
209.0
 30
0.0
 11
15.5
 21
209.0
 31
0.0
  0
LINE
  5
619
330
C
100
AcDbEntity
  8
0
100
AcDbLine
 10
15.5
 20
209.0
 30
0.0
 11
15.5
 21
212.0
 31
0.0
  0
LINE
  5
61A
330
C
100
AcDbEntity
  8
0
100
AcDbLine
 10
15.5
 20
212.0
 30
0.0
 11
30.5
 21
212.0
 31
0.0
  0
LINE
  5
61B
330
C
100
AcDbEntity
  8
0
100
AcDbLine
 10
30.5
 20
212.0
 30
0.0
 11
30.5
 21
209.0
 31
0.0
  0
LINE
  5
61C
330
C
100
AcDbEntity
  8
0
100
AcDbLine
 10
30.5
 20
209.0
 30
0.0
 11
45.49999999999999
 21
209.0
 31
0.0
  0
LINE
  5
61D
330
C
100
AcDbEntity
  8
0
100
AcDbLine
 10
45.49999999999999
 20
209.0
 30
0.0
 11
45.49999999999999
 21
212.0
 31
0.0
  0
LINE
  5
61E
330
C
100
AcDbEntity
  8
0
100
AcDbLine
 10
45.49999999999999
 20
212.0
 30
0.0
 11
60.5
 21
212.0
 31
0.0
  0
LINE
  5
61F
330
C
100
AcDbEntity
  8
0
100
AcDbLine
 10
60.5
 20
212.0
 30
0.0
 11
60.5
 21
209.0
 31
0.0
  0
LINE
  5
620
330
C
100
AcDbEntity
  8
0
100
AcDbLine
 10
60.5
 20
209.0
 30
0.0
 11
75.5
 21
209.0
 31
0.0
  0
LINE
  5
621
330
C
100
AcDbEntity
  8
0
100
AcDbLine
 10
75.5
 20
209.0
 30
0.0
 11
75.5
 21
212.0
 31
0.0
  0
LINE
  5
622
330
C
100
AcDbEntity
  8
0
100
AcDbLine
 10
75.5
 20
212.0
 30
0.0
 11
90.5
 21
212.0
 31
0.0
  0
LINE
  5
623
330
C
100
AcDbEntity
  8
0
100
AcDbLine
 10
90.5
 20
212.0
 30
0.0
 11
90.5
 21
209.0
 31
0.0
  0
LINE
  5
624
330
C
100
AcDbEntity
  8
0
100
AcDbLine
 10
90.5
 20
209.0
 30
0.0
 11
100.0
 21
209.0
 31
0.0
  0
LINE
  5
625
330
C
100
AcDbEntity
  8
0
100
AcDbLine
 10
100.0
 20
209.0
 30
0.0
 11
103.0
 21
209.0
 31
0.0
  0
LINE
  5
626
330
C
100
AcDbEntity
  8
0
100
AcDbLine
 10
103.0
 20
209.0
 30
0.0
 11
103.0
 21
212.0
 31
0.0
  0
LINE
  5
627
330
C
100
AcDbEntity
  8
0
100
AcDbLine
 10
103.0
 20
212.0
 30
0.0
 11
103.0
 21
216.5
 31
0.0
  0
LINE
  5
628
330
C
100
AcDbEntity
  8
0
100
AcDbLine
 10
103.0
 20
216.5
 30
0.0
 11
100.0
 21
216.5
 31
0.0
  0
LINE
  5
629
330
C
100
AcDbEntity
  8
0
100
AcDbLine
 10
100.0
 20
216.5
 30
0.0
 11
100.0
 21
231.5
 31
0.0
  0
LINE
  5
62A
330
C
100
AcDbEntity
  8
0
100
AcDbLine
 10
100.0
 20
231.5
 30
0.0
 11
103.0
 21
231.5
 31
0.0
  0
LINE
  5
62B
330
C
100
AcDbEntity
  8
0
100
AcDbLine
 10
103.0
 20
231.5
 30
0.0
 11
103.0
 21
246.5
 31
0.0
  0
LINE
  5
62C
330
C
100
AcDbEntity
  8
0
100
AcDbLine
 10
103.0
 20
246.5
 30
0.0
 11
100.0
 21
246.5
 31
0.0
  0
LINE
  5
62D
330
C
100
AcDbEntity
  8
0
100
AcDbLine
 10
100.0
 20
246.5
 30
0.0
 11
100.0
 21
261.5
 31
0.0
  0
LINE
  5
62E
330
C
100
AcDbEntity
  8
0
100
AcDbLine
 10
100.0
 20
261.5
 30
0.0
 11
103.0
 21
261.5
 31
0.0
  0
LINE
  5
62F
330
C
100
AcDbEntity
  8
0
100
AcDbLine
 10
103.0
 20
261.5
 30
0.0
 11
103.0
 21
266.0
 31
0.0
  0
LINE
  5
630
330
C
100
AcDbEntity
  8
0
100
AcDbLine
 10
103.0
 20
266.0
 30
0.0
 11
103.0
 21
269.0
 31
0.0
  0
LINE
  5
C22
330
C
100
AcDbEntity
  8
0
100
AcDbLine
 10
298.5
 20
103.0
 30
0.0
 11
283.5
 21
103.0
 31
0.0
  0
LINE
  5
C23
330
C
100
AcDbEntity
  8
0
100
AcDbLine
 10
283.5
 20
103.0
 30
0.0
 11
283.5
 21
100.0
 31
0.0
  0
LINE
  5
C24
330
C
100
AcDbEntity
  8
0
100
AcDbLine
 10
283.5
 20
100.0
 30
0.0
 11
268.5
 21
100.0
 31
0.0
  0
LINE
  5
C25
330
C
100
AcDbEntity
  8
0
100
AcDbLine
 10
268.5
 20
100.0
 30
0.0
 11
268.5
 21
103.0
 31
0.0
  0
LINE
  5
C26
330
C
100
AcDbEntity
  8
0
100
AcDbLine
 10
268.5
 20
103.0
 30
0.0
 11
253.5
 21
103.0
 31
0.0
  0
LINE
  5
C27
330
C
100
AcDbEntity
  8
0
100
AcDbLine
 10
253.5
 20
103.0
 30
0.0
 11
253.5
 21
100.0
 31
0.0
  0
LINE
  5
C28
330
C
100
AcDbEntity
  8
0
100
AcDbLine
 10
253.5
 20
100.0
 30
0.0
 11
238.5
 21
100.0
 31
0.0
  0
LINE
  5
C29
330
C
100
AcDbEntity
  8
0
100
AcDbLine
 10
238.5
 20
100.0
 30
0.0
 11
238.5
 21
103.0
 31
0.0
  0
LINE
  5
C2A
330
C
100
AcDbEntity
  8
0
100
AcDbLine
 10
238.5
 20
103.0
 30
0.0
 11
223.5
 21
103.0
 31
0.0
  0
LINE
  5
C2B
330
C
100
AcDbEntity
  8
0
100
AcDbLine
 10
223.5
 20
103.0
 30
0.0
 11
223.5
 21
100.0
 31
0.0
  0
LINE
  5
C2C
330
C
100
AcDbEntity
  8
0
100
AcDbLine
 10
223.5
 20
100.0
 30
0.0
 11
208.5
 21
100.0
 31
0.0
  0
LINE
  5
C2D
330
C
100
AcDbEntity
  8
0
100
AcDbLine
 10
208.5
 20
100.0
 30
0.0
 11
208.5
 21
103.0
 31
0.0
  0
LINE
  5
C2E
330
C
100
AcDbEntity
  8
0
100
AcDbLine
 10
208.5
 20
103.0
 30
0.0
 11
193.5
 21
103.0
 31
0.0
  0
LINE
  5
C2F
330
C
100
AcDbEntity
  8
0
100
AcDbLine
 10
193.5
 20
103.0
 30
0.0
 11
193.5
 21
100.0
 31
0.0
  0
LINE
  5
C30
330
C
100
AcDbEntity
  8
0
100
AcDbLine
 10
193.5
 20
100.0
 30
0.0
 11
178.5
 21
100.0
 31
0.0
  0
LINE
  5
C31
330
C
100
AcDbEntity
  8
0
100
AcDbLine
 10
178.5
 20
100.0
 30
0.0
 11
178.5
 21
103.0
 31
0.0
  0
LINE
  5
C32
330
C
100
AcDbEntity
  8
0
100
AcDbLine
 10
178.5
 20
103.0
 30
0.0
 11
163.5
 21
103.0
 31
0.0
  0
LINE
  5
C33
330
C
100
AcDbEntity
  8
0
100
AcDbLine
 10
163.5
 20
103.0
 30
0.0
 11
163.5
 21
100.0
 31
0.0
  0
LINE
  5
C34
330
C
100
AcDbEntity
  8
0
100
AcDbLine
 10
163.5
 20
100.0
 30
0.0
 11
159.0
 21
100.0
 31
0.0
  0
LINE
  5
C35
330
C
100
AcDbEntity
  8
0
100
AcDbLine
 10
159.0
 20
100.0
 30
0.0
 11
159.0
 21
90.5
 31
0.0
  0
LINE
  5
C36
330
C
100
AcDbEntity
  8
0
100
AcDbLine
 10
159.0
 20
90.5
 30
0.0
 11
156.0
 21
90.5
 31
0.0
  0
LINE
  5
C37
330
C
100
AcDbEntity
  8
0
100
AcDbLine
 10
156.0
 20
90.5
 30
0.0
 11
156.0
 21
75.5
 31
0.0
  0
LINE
  5
C38
330
C
100
AcDbEntity
  8
0
100
AcDbLine
 10
156.0
 20
75.5
 30
0.0
 11
159.0
 21
75.5
 31
0.0
  0
LINE
  5
C39
330
C
100
AcDbEntity
  8
0
100
AcDbLine
 10
159.0
 20
75.5
 30
0.0
 11
159.0
 21
60.5
 31
0.0
  0
LINE
  5
C3A
330
C
100
AcDbEntity
  8
0
100
AcDbLine
 10
159.0
 20
60.5
 30
0.0
 11
156.0
 21
60.5
 31
0.0
  0
LINE
  5
C3B
330
C
100
AcDbEntity
  8
0
100
AcDbLine
 10
156.0
 20
60.5
 30
0.0
 11
156.0
 21
45.49999999999999
 31
0.0
  0
LINE
  5
C3C
330
C
100
AcDbEntity
  8
0
100
AcDbLine
 10
156.0
 20
45.49999999999999
 30
0.0
 11
159.0
 21
45.49999999999999
 31
0.0
  0
LINE
  5
C3D
330
C
100
AcDbEntity
  8
0
100
AcDbLine
 10
159.0
 20
45.49999999999999
 30
0.0
 11
159.0
 21
30.5
 31
0.0
  0
LINE
  5
C3E
330
C
100
AcDbEntity
  8
0
100
AcDbLine
 10
159.0
 20
30.5
 30
0.0
 11
156.0
 21
30.5
 31
0.0
  0
LINE
  5
C3F
330
C
100
AcDbEntity
  8
0
100
AcDbLine
 10
156.0
 20
30.5
 30
0.0
 11
156.0
 21
15.5
 31
0.0
  0
LINE
  5
C40
330
C
100
AcDbEntity
  8
0
100
AcDbLine
 10
156.0
 20
15.5
 30
0.0
 11
159.0
 21
15.5
 31
0.0
  0
LINE
  5
C41
330
C
100
AcDbEntity
  8
0
100
AcDbLine
 10
159.0
 20
15.5
 30
0.0
 11
159.0
 21
6.0
 31
0.0
  0
LINE
  5
C42
330
C
100
AcDbEntity
  8
0
100
AcDbLine
 10
159.0
 20
6.0
 30
0.0
 11
163.5
 21
6.0
 31
0.0
  0
LINE
  5
C43
330
C
100
AcDbEntity
  8
0
100
AcDbLine
 10
163.5
 20
6.0
 30
0.0
 11
163.5
 21
3.0
 31
0.0
  0
LINE
  5
C44
330
C
100
AcDbEntity
  8
0
100
AcDbLine
 10
163.5
 20
3.0
 30
0.0
 11
178.5
 21
3.0
 31
0.0
  0
LINE
  5
C45
330
C
100
AcDbEntity
  8
0
100
AcDbLine
 10
178.5
 20
3.0
 30
0.0
 11
178.5
 21
6.0
 31
0.0
  0
LINE
  5
C46
330
C
100
AcDbEntity
  8
0
100
AcDbLine
 10
178.5
 20
6.0
 30
0.0
 11
193.5
 21
6.0
 31
0.0
  0
LINE
  5
C47
330
C
100
AcDbEntity
  8
0
100
AcDbLine
 10
193.5
 20
6.0
 30
0.0
 11
193.5
 21
3.0
 31
0.0
  0
LINE
  5
C48
330
C
100
AcDbEntity
  8
0
100
AcDbLine
 10
193.5
 20
3.0
 30
0.0
 11
208.5
 21
3.0
 31
0.0
  0
LINE
  5
C49
330
C
100
AcDbEntity
  8
0
100
AcDbLine
 10
208.5
 20
3.0
 30
0.0
 11
208.5
 21
6.0
 31
0.0
  0
LINE
  5
C4A
330
C
100
AcDbEntity
  8
0
100
AcDbLine
 10
208.5
 20
6.0
 30
0.0
 11
223.5
 21
6.0
 31
0.0
  0
LINE
  5
C4B
330
C
100
AcDbEntity
  8
0
100
AcDbLine
 10
223.5
 20
6.0
 30
0.0
 11
223.5
 21
3.0
 31
0.0
  0
LINE
  5
C4C
330
C
100
AcDbEntity
  8
0
100
AcDbLine
 10
223.5
 20
3.0
 30
0.0
 11
238.5
 21
3.0
 31
0.0
  0
LINE
  5
C4D
330
C
100
AcDbEntity
  8
0
100
AcDbLine
 10
238.5
 20
3.0
 30
0.0
 11
238.5
 21
6.0
 31
0.0
  0
LINE
  5
C4E
330
C
100
AcDbEntity
  8
0
100
AcDbLine
 10
238.5
 20
6.0
 30
0.0
 11
253.5
 21
6.0
 31
0.0
  0
LINE
  5
C4F
330
C
100
AcDbEntity
  8
0
100
AcDbLine
 10
253.5
 20
6.0
 30
0.0
 11
253.5
 21
3.0
 31
0.0
  0
LINE
  5
C50
330
C
100
AcDbEntity
  8
0
100
AcDbLine
 10
253.5
 20
3.0
 30
0.0
 11
268.5
 21
3.0
 31
0.0
  0
LINE
  5
C51
330
C
100
AcDbEntity
  8
0
100
AcDbLine
 10
268.5
 20
3.0
 30
0.0
 11
268.5
 21
6.0
 31
0.0
  0
LINE
  5
C52
330
C
100
AcDbEntity
  8
0
100
AcDbLine
 10
268.5
 20
6.0
 30
0.0
 11
283.5
 21
6.0
 31
0.0
  0
LINE
  5
C53
330
C
100
AcDbEntity
  8
0
100
AcDbLine
 10
283.5
 20
6.0
 30
0.0
 11
283.5
 21
3.0
 31
0.0
  0
LINE
  5
C54
330
C
100
AcDbEntity
  8
0
100
AcDbLine
 10
283.5
 20
3.0
 30
0.0
 11
298.5
 21
3.0
 31
0.0
  0
LINE
  5
C55
330
C
100
AcDbEntity
  8
0
100
AcDbLine
 10
298.5
 20
3.0
 30
0.0
 11
298.5
 21
6.0
 31
0.0
  0
LINE
  5
C56
330
C
100
AcDbEntity
  8
0
100
AcDbLine
 10
298.5
 20
6.0
 30
0.0
 11
303.0
 21
6.0
 31
0.0
  0
LINE
  5
C57
330
C
100
AcDbEntity
  8
0
100
AcDbLine
 10
303.0
 20
6.0
 30
0.0
 11
303.0
 21
15.5
 31
0.0
  0
LINE
  5
C58
330
C
100
AcDbEntity
  8
0
100
AcDbLine
 10
303.0
 20
15.5
 30
0.0
 11
306.0
 21
15.5
 31
0.0
  0
LINE
  5
C59
330
C
100
AcDbEntity
  8
0
100
AcDbLine
 10
306.0
 20
15.5
 30
0.0
 11
306.0
 21
30.5
 31
0.0
  0
LINE
  5
C5A
330
C
100
AcDbEntity
  8
0
100
AcDbLine
 10
306.0
 20
30.5
 30
0.0
 11
303.0
 21
30.5
 31
0.0
  0
LINE
  5
C5B
330
C
100
AcDbEntity
  8
0
100
AcDbLine
 10
303.0
 20
30.5
 30
0.0
 11
303.0
 21
45.49999999999999
 31
0.0
  0
LINE
  5
C5C
330
C
100
AcDbEntity
  8
0
100
AcDbLine
 10
303.0
 20
45.49999999999999
 30
0.0
 11
306.0
 21
45.49999999999999
 31
0.0
  0
LINE
  5
C5D
330
C
100
AcDbEntity
  8
0
100
AcDbLine
 10
306.0
 20
45.49999999999999
 30
0.0
 11
306.0
 21
60.5
 31
0.0
  0
LINE
  5
C5E
330
C
100
AcDbEntity
  8
0
100
AcDbLine
 10
306.0
 20
60.5
 30
0.0
 11
303.0
 21
60.5
 31
0.0
  0
LINE
  5
C5F
330
C
100
AcDbEntity
  8
0
100
AcDbLine
 10
303.0
 20
60.5
 30
0.0
 11
303.0
 21
75.5
 31
0.0
  0
LINE
  5
C60
330
C
100
AcDbEntity
  8
0
100
AcDbLine
 10
303.0
 20
75.5
 30
0.0
 11
306.0
 21
75.5
 31
0.0
  0
LINE
  5
C61
330
C
100
AcDbEntity
  8
0
100
AcDbLine
 10
306.0
 20
75.5
 30
0.0
 11
306.0
 21
90.5
 31
0.0
  0
LINE
  5
C62
330
C
100
AcDbEntity
  8
0
100
AcDbLine
 10
306.0
 20
90.5
 30
0.0
 11
303.0
 21
90.5
 31
0.0
  0
LINE
  5
C63
330
C
100
AcDbEntity
  8
0
100
AcDbLine
 10
303.0
 20
90.5
 30
0.0
 11
303.0
 21
100.0
 31
0.0
  0
LINE
  5
C64
330
C
100
AcDbEntity
  8
0
100
AcDbLine
 10
303.0
 20
100.0
 30
0.0
 11
298.5
 21
100.0
 31
0.0
  0
LINE
  5
C65
330
C
100
AcDbEntity
  8
0
100
AcDbLine
 10
298.5
 20
100.0
 30
0.0
 11
298.5
 21
103.0
 31
0.0
  0
LINE
  5
10B2
330
C
100
AcDbEntity
  8
0
100
AcDbLine
 10
298.5
 20
206.0
 30
0.0
 11
283.5
 21
206.0
 31
0.0
  0
LINE
  5
10B3
330
C
100
AcDbEntity
  8
0
100
AcDbLine
 10
283.5
 20
206.0
 30
0.0
 11
283.5
 21
203.0
 31
0.0
  0
LINE
  5
10B4
330
C
100
AcDbEntity
  8
0
100
AcDbLine
 10
283.5
 20
203.0
 30
0.0
 11
268.5
 21
203.0
 31
0.0
  0
LINE
  5
10B5
330
C
100
AcDbEntity
  8
0
100
AcDbLine
 10
268.5
 20
203.0
 30
0.0
 11
268.5
 21
206.0
 31
0.0
  0
LINE
  5
10B6
330
C
100
AcDbEntity
  8
0
100
AcDbLine
 10
268.5
 20
206.0
 30
0.0
 11
253.5
 21
206.0
 31
0.0
  0
LINE
  5
10B7
330
C
100
AcDbEntity
  8
0
100
AcDbLine
 10
253.5
 20
206.0
 30
0.0
 11
253.5
 21
203.0
 31
0.0
  0
LINE
  5
10B8
330
C
100
AcDbEntity
  8
0
100
AcDbLine
 10
253.5
 20
203.0
 30
0.0
 11
238.5
 21
203.0
 31
0.0
  0
LINE
  5
10B9
330
C
100
AcDbEntity
  8
0
100
AcDbLine
 10
238.5
 20
203.0
 30
0.0
 11
238.5
 21
206.0
 31
0.0
  0
LINE
  5
10BA
330
C
100
AcDbEntity
  8
0
100
AcDbLine
 10
238.5
 20
206.0
 30
0.0
 11
223.5
 21
206.0
 31
0.0
  0
LINE
  5
10BB
330
C
100
AcDbEntity
  8
0
100
AcDbLine
 10
223.5
 20
206.0
 30
0.0
 11
223.5
 21
203.0
 31
0.0
  0
LINE
  5
10BC
330
C
100
AcDbEntity
  8
0
100
AcDbLine
 10
223.5
 20
203.0
 30
0.0
 11
208.5
 21
203.0
 31
0.0
  0
LINE
  5
10BD
330
C
100
AcDbEntity
  8
0
100
AcDbLine
 10
208.5
 20
203.0
 30
0.0
 11
208.5
 21
206.0
 31
0.0
  0
LINE
  5
10BE
330
C
100
AcDbEntity
  8
0
100
AcDbLine
 10
208.5
 20
206.0
 30
0.0
 11
193.5
 21
206.0
 31
0.0
  0
LINE
  5
10BF
330
C
100
AcDbEntity
  8
0
100
AcDbLine
 10
193.5
 20
206.0
 30
0.0
 11
193.5
 21
203.0
 31
0.0
  0
LINE
  5
10C0
330
C
100
AcDbEntity
  8
0
100
AcDbLine
 10
193.5
 20
203.0
 30
0.0
 11
178.5
 21
203.0
 31
0.0
  0
LINE
  5
10C1
330
C
100
AcDbEntity
  8
0
100
AcDbLine
 10
178.5
 20
203.0
 30
0.0
 11
178.5
 21
206.0
 31
0.0
  0
LINE
  5
10C2
330
C
100
AcDbEntity
  8
0
100
AcDbLine
 10
178.5
 20
206.0
 30
0.0
 11
163.5
 21
206.0
 31
0.0
  0
LINE
  5
10C3
330
C
100
AcDbEntity
  8
0
100
AcDbLine
 10
163.5
 20
206.0
 30
0.0
 11
163.5
 21
203.0
 31
0.0
  0
LINE
  5
10C4
330
C
100
AcDbEntity
  8
0
100
AcDbLine
 10
163.5
 20
203.0
 30
0.0
 11
159.0
 21
203.0
 31
0.0
  0
LINE
  5
10C5
330
C
100
AcDbEntity
  8
0
100
AcDbLine
 10
159.0
 20
203.0
 30
0.0
 11
159.0
 21
193.5
 31
0.0
  0
LINE
  5
10C6
330
C
100
AcDbEntity
  8
0
100
AcDbLine
 10
159.0
 20
193.5
 30
0.0
 11
156.0
 21
193.5
 31
0.0
  0
LINE
  5
10C7
330
C
100
AcDbEntity
  8
0
100
AcDbLine
 10
156.0
 20
193.5
 30
0.0
 11
156.0
 21
178.5
 31
0.0
  0
LINE
  5
10C8
330
C
100
AcDbEntity
  8
0
100
AcDbLine
 10
156.0
 20
178.5
 30
0.0
 11
159.0
 21
178.5
 31
0.0
  0
LINE
  5
10C9
330
C
100
AcDbEntity
  8
0
100
AcDbLine
 10
159.0
 20
178.5
 30
0.0
 11
159.0
 21
163.5
 31
0.0
  0
LINE
  5
10CA
330
C
100
AcDbEntity
  8
0
100
AcDbLine
 10
159.0
 20
163.5
 30
0.0
 11
156.0
 21
163.5
 31
0.0
  0
LINE
  5
10CB
330
C
100
AcDbEntity
  8
0
100
AcDbLine
 10
156.0
 20
163.5
 30
0.0
 11
156.0
 21
148.5
 31
0.0
  0
LINE
  5
10CC
330
C
100
AcDbEntity
  8
0
100
AcDbLine
 10
156.0
 20
148.5
 30
0.0
 11
159.0
 21
148.5
 31
0.0
  0
LINE
  5
10CD
330
C
100
AcDbEntity
  8
0
100
AcDbLine
 10
159.0
 20
148.5
 30
0.0
 11
159.0
 21
133.5
 31
0.0
  0
LINE
  5
10CE
330
C
100
AcDbEntity
  8
0
100
AcDbLine
 10
159.0
 20
133.5
 30
0.0
 11
156.0
 21
133.5
 31
0.0
  0
LINE
  5
10CF
330
C
100
AcDbEntity
  8
0
100
AcDbLine
 10
156.0
 20
133.5
 30
0.0
 11
156.0
 21
118.5
 31
0.0
  0
LINE
  5
10D0
330
C
100
AcDbEntity
  8
0
100
AcDbLine
 10
156.0
 20
118.5
 30
0.0
 11
159.0
 21
118.5
 31
0.0
  0
LINE
  5
10D1
330
C
100
AcDbEntity
  8
0
100
AcDbLine
 10
159.0
 20
118.5
 30
0.0
 11
159.0
 21
109.0
 31
0.0
  0
LINE
  5
10D2
330
C
100
AcDbEntity
  8
0
100
AcDbLine
 10
159.0
 20
109.0
 30
0.0
 11
163.5
 21
109.0
 31
0.0
  0
LINE
  5
10D3
330
C
100
AcDbEntity
  8
0
100
AcDbLine
 10
163.5
 20
109.0
 30
0.0
 11
163.5
 21
106.0
 31
0.0
  0
LINE
  5
10D4
330
C
100
AcDbEntity
  8
0
100
AcDbLine
 10
163.5
 20
106.0
 30
0.0
 11
178.5
 21
106.0
 31
0.0
  0
LINE
  5
10D5
330
C
100
AcDbEntity
  8
0
100
AcDbLine
 10
178.5
 20
106.0
 30
0.0
 11
178.5
 21
109.0
 31
0.0
  0
LINE
  5
10D6
330
C
100
AcDbEntity
  8
0
100
AcDbLine
 10
178.5
 20
109.0
 30
0.0
 11
193.5
 21
109.0
 31
0.0
  0
LINE
  5
10D7
330
C
100
AcDbEntity
  8
0
100
AcDbLine
 10
193.5
 20
109.0
 30
0.0
 11
193.5
 21
106.0
 31
0.0
  0
LINE
  5
10D8
330
C
100
AcDbEntity
  8
0
100
AcDbLine
 10
193.5
 20
106.0
 30
0.0
 11
208.5
 21
106.0
 31
0.0
  0
LINE
  5
10D9
330
C
100
AcDbEntity
  8
0
100
AcDbLine
 10
208.5
 20
106.0
 30
0.0
 11
208.5
 21
109.0
 31
0.0
  0
LINE
  5
10DA
330
C
100
AcDbEntity
  8
0
100
AcDbLine
 10
208.5
 20
109.0
 30
0.0
 11
213.5
 21
109.0
 31
0.0
  0
LINE
  5
10DE
330
C
100
AcDbEntity
  8
0
100
AcDbLine
 10
248.5
 20
109.0
 30
0.0
 11
253.5
 21
109.0
 31
0.0
  0
LINE
  5
10DF
330
C
100
AcDbEntity
  8
0
100
AcDbLine
 10
253.5
 20
109.0
 30
0.0
 11
253.5
 21
106.0
 31
0.0
  0
LINE
  5
10E0
330
C
100
AcDbEntity
  8
0
100
AcDbLine
 10
253.5
 20
106.0
 30
0.0
 11
268.5
 21
106.0
 31
0.0
  0
LINE
  5
10E1
330
C
100
AcDbEntity
  8
0
100
AcDbLine
 10
268.5
 20
106.0
 30
0.0
 11
268.5
 21
109.0
 31
0.0
  0
LINE
  5
10E2
330
C
100
AcDbEntity
  8
0
100
AcDbLine
 10
268.5
 20
109.0
 30
0.0
 11
283.5
 21
109.0
 31
0.0
  0
LINE
  5
10E3
330
C
100
AcDbEntity
  8
0
100
AcDbLine
 10
283.5
 20
109.0
 30
0.0
 11
283.5
 21
106.0
 31
0.0
  0
LINE
  5
10E4
330
C
100
AcDbEntity
  8
0
100
AcDbLine
 10
283.5
 20
106.0
 30
0.0
 11
298.5
 21
106.0
 31
0.0
  0
LINE
  5
10E5
330
C
100
AcDbEntity
  8
0
100
AcDbLine
 10
298.5
 20
106.0
 30
0.0
 11
298.5
 21
109.0
 31
0.0
  0
LINE
  5
10E6
330
C
100
AcDbEntity
  8
0
100
AcDbLine
 10
298.5
 20
109.0
 30
0.0
 11
303.0
 21
109.0
 31
0.0
  0
LINE
  5
10E7
330
C
100
AcDbEntity
  8
0
100
AcDbLine
 10
303.0
 20
109.0
 30
0.0
 11
303.0
 21
118.5
 31
0.0
  0
LINE
  5
10E8
330
C
100
AcDbEntity
  8
0
100
AcDbLine
 10
303.0
 20
118.5
 30
0.0
 11
306.0
 21
118.5
 31
0.0
  0
LINE
  5
10E9
330
C
100
AcDbEntity
  8
0
100
AcDbLine
 10
306.0
 20
118.5
 30
0.0
 11
306.0
 21
133.5
 31
0.0
  0
LINE
  5
10EA
330
C
100
AcDbEntity
  8
0
100
AcDbLine
 10
306.0
 20
133.5
 30
0.0
 11
303.0
 21
133.5
 31
0.0
  0
LINE
  5
10EB
330
C
100
AcDbEntity
  8
0
100
AcDbLine
 10
303.0
 20
133.5
 30
0.0
 11
303.0
 21
148.5
 31
0.0
  0
LINE
  5
10EC
330
C
100
AcDbEntity
  8
0
100
AcDbLine
 10
303.0
 20
148.5
 30
0.0
 11
306.0
 21
148.5
 31
0.0
  0
LINE
  5
10ED
330
C
100
AcDbEntity
  8
0
100
AcDbLine
 10
306.0
 20
148.5
 30
0.0
 11
306.0
 21
163.5
 31
0.0
  0
LINE
  5
10EE
330
C
100
AcDbEntity
  8
0
100
AcDbLine
 10
306.0
 20
163.5
 30
0.0
 11
303.0
 21
163.5
 31
0.0
  0
LINE
  5
10EF
330
C
100
AcDbEntity
  8
0
100
AcDbLine
 10
303.0
 20
163.5
 30
0.0
 11
303.0
 21
178.5
 31
0.0
  0
LINE
  5
10F0
330
C
100
AcDbEntity
  8
0
100
AcDbLine
 10
303.0
 20
178.5
 30
0.0
 11
306.0
 21
178.5
 31
0.0
  0
LINE
  5
10F1
330
C
100
AcDbEntity
  8
0
100
AcDbLine
 10
306.0
 20
178.5
 30
0.0
 11
306.0
 21
193.5
 31
0.0
  0
LINE
  5
10F2
330
C
100
AcDbEntity
  8
0
100
AcDbLine
 10
306.0
 20
193.5
 30
0.0
 11
303.0
 21
193.5
 31
0.0
  0
LINE
  5
10F3
330
C
100
AcDbEntity
  8
0
100
AcDbLine
 10
303.0
 20
193.5
 30
0.0
 11
303.0
 21
203.0
 31
0.0
  0
LINE
  5
10F4
330
C
100
AcDbEntity
  8
0
100
AcDbLine
 10
303.0
 20
203.0
 30
0.0
 11
298.5
 21
203.0
 31
0.0
  0
LINE
  5
10F5
330
C
100
AcDbEntity
  8
0
100
AcDbLine
 10
298.5
 20
203.0
 30
0.0
 11
298.5
 21
206.0
 31
0.0
  0
CIRCLE
  5
10109
330
C
100
AcDbEntity
  8
0
  6
Continuous
100
AcDbCircle
 10
88.0
 20
224.0
 30
0.0
 40
5.0
  0
CIRCLE
  5
1011E
330
C
100
AcDbEntity
  8
0
  6
Continuous
100
AcDbCircle
 10
13.0
 20
239.0
 30
0.0
 40
2.009999999999999
  0
LINE
  5
10343
330
C
100
AcDbEntity
  8
0
100
AcDbLine
 10
103.4758684981134
 20
201.5544140025083
 30
0.0
 11
100.4758684981134
 21
201.5544140025083
 31
0.0
  0
LINE
  5
10344
330
C
100
AcDbEntity
  8
0
100
AcDbLine
 10
100.4758684981134
 20
201.5544140025083
 30
0.0
 11
90.97586849811341
 21
201.5544140025083
 31
0.0
  0
LINE
  5
10345
330
C
100
AcDbEntity
  8
0
100
AcDbLine
 10
90.97586849811341
 20
201.5544140025083
 30
0.0
 11
90.97586849811341
 21
198.5544140025083
 31
0.0
  0
LINE
  5
10346
330
C
100
AcDbEntity
  8
0
100
AcDbLine
 10
90.97586849811341
 20
198.5544140025083
 30
0.0
 11
75.97586849811341
 21
198.5544140025083
 31
0.0
  0
LINE
  5
10347
330
C
100
AcDbEntity
  8
0
100
AcDbLine
 10
75.97586849811341
 20
198.5544140025083
 30
0.0
 11
75.97586849811341
 21
201.5544140025083
 31
0.0
  0
LINE
  5
10348
330
C
100
AcDbEntity
  8
0
100
AcDbLine
 10
75.97586849811341
 20
201.5544140025083
 30
0.0
 11
60.97586849811341
 21
201.5544140025083
 31
0.0
  0
LINE
  5
10349
330
C
100
AcDbEntity
  8
0
100
AcDbLine
 10
60.97586849811341
 20
201.5544140025083
 30
0.0
 11
60.97586849811341
 21
198.5544140025083
 31
0.0
  0
LINE
  5
1034A
330
C
100
AcDbEntity
  8
0
100
AcDbLine
 10
60.97586849811341
 20
198.5544140025083
 30
0.0
 11
45.97586849811341
 21
198.5544140025083
 31
0.0
  0
LINE
  5
1034B
330
C
100
AcDbEntity
  8
0
100
AcDbLine
 10
45.97586849811341
 20
198.5544140025083
 30
0.0
 11
45.97586849811341
 21
201.5544140025083
 31
0.0
  0
LINE
  5
1034C
330
C
100
AcDbEntity
  8
0
100
AcDbLine
 10
45.97586849811341
 20
201.5544140025083
 30
0.0
 11
30.97586849811341
 21
201.5544140025083
 31
0.0
  0
LINE
  5
1034D
330
C
100
AcDbEntity
  8
0
100
AcDbLine
 10
30.97586849811341
 20
201.5544140025083
 30
0.0
 11
30.97586849811341
 21
198.5544140025083
 31
0.0
  0
LINE
  5
1034E
330
C
100
AcDbEntity
  8
0
100
AcDbLine
 10
30.97586849811341
 20
198.5544140025083
 30
0.0
 11
15.97586849811341
 21
198.5544140025083
 31
0.0
  0
LINE
  5
1034F
330
C
100
AcDbEntity
  8
0
100
AcDbLine
 10
15.97586849811341
 20
198.5544140025083
 30
0.0
 11
15.97586849811341
 21
201.5544140025083
 31
0.0
  0
LINE
  5
10350
330
C
100
AcDbEntity
  8
0
100
AcDbLine
 10
15.97586849811341
 20
201.5544140025083
 30
0.0
 11
6.475868498113413
 21
201.5544140025083
 31
0.0
  0
LINE
  5
10351
330
C
100
AcDbEntity
  8
0
100
AcDbLine
 10
6.475868498113413
 20
201.5544140025083
 30
0.0
 11
3.475868498113413
 21
201.5544140025083
 31
0.0
  0
LINE
  5
10352
330
C
100
AcDbEntity
  8
0
100
AcDbLine
 10
3.475868498113413
 20
201.5544140025083
 30
0.0
 11
3.475868498113413
 21
198.5544140025083
 31
0.0
  0
LINE
  5
10353
330
C
100
AcDbEntity
  8
0
100
AcDbLine
 10
3.475868498113413
 20
198.5544140025083
 30
0.0
 11
3.475868498113413
 21
194.0544140025083
 31
0.0
  0
LINE
  5
10354
330
C
100
AcDbEntity
  8
0
100
AcDbLine
 10
3.475868498113413
 20
194.0544140025083
 30
0.0
 11
6.475868498113413
 21
194.0544140025083
 31
0.0
  0
LINE
  5
10355
330
C
100
AcDbEntity
  8
0
100
AcDbLine
 10
6.475868498113413
 20
194.0544140025083
 30
0.0
 11
6.475868498113413
 21
179.0544140025083
 31
0.0
  0
LINE
  5
10356
330
C
100
AcDbEntity
  8
0
100
AcDbLine
 10
6.475868498113413
 20
179.0544140025083
 30
0.0
 11
3.475868498113413
 21
179.0544140025083
 31
0.0
  0
LINE
  5
10357
330
C
100
AcDbEntity
  8
0
100
AcDbLine
 10
3.475868498113413
 20
179.0544140025083
 30
0.0
 11
3.475868498113413
 21
164.0544140025083
 31
0.0
  0
LINE
  5
10358
330
C
100
AcDbEntity
  8
0
100
AcDbLine
 10
3.475868498113413
 20
164.0544140025083
 30
0.0
 11
6.475868498113413
 21
164.0544140025083
 31
0.0
  0
LINE
  5
10359
330
C
100
AcDbEntity
  8
0
100
AcDbLine
 10
6.475868498113413
 20
164.0544140025083
 30
0.0
 11
6.475868498113413
 21
149.0544140025083
 31
0.0
  0
LINE
  5
1035A
330
C
100
AcDbEntity
  8
0
100
AcDbLine
 10
6.475868498113413
 20
149.0544140025083
 30
0.0
 11
3.475868498113413
 21
149.0544140025083
 31
0.0
  0
LINE
  5
1035B
330
C
100
AcDbEntity
  8
0
100
AcDbLine
 10
3.475868498113413
 20
149.0544140025083
 30
0.0
 11
3.475868498113413
 21
144.5544140025083
 31
0.0
  0
LINE
  5
1035C
330
C
100
AcDbEntity
  8
0
100
AcDbLine
 10
3.475868498113413
 20
144.5544140025083
 30
0.0
 11
3.475868498113413
 21
141.5544140025083
 31
0.0
  0
LINE
  5
1035D
330
C
100
AcDbEntity
  8
0
100
AcDbLine
 10
3.475868498113413
 20
141.5544140025083
 30
0.0
 11
6.475868498113413
 21
141.5544140025083
 31
0.0
  0
LINE
  5
1035E
330
C
100
AcDbEntity
  8
0
100
AcDbLine
 10
6.475868498113413
 20
141.5544140025083
 30
0.0
 11
15.97586849811341
 21
141.5544140025083
 31
0.0
  0
LINE
  5
1035F
330
C
100
AcDbEntity
  8
0
100
AcDbLine
 10
15.97586849811341
 20
141.5544140025083
 30
0.0
 11
15.97586849811341
 21
144.5544140025083
 31
0.0
  0
LINE
  5
10360
330
C
100
AcDbEntity
  8
0
100
AcDbLine
 10
15.97586849811341
 20
144.5544140025083
 30
0.0
 11
30.97586849811341
 21
144.5544140025083
 31
0.0
  0
LINE
  5
10361
330
C
100
AcDbEntity
  8
0
100
AcDbLine
 10
30.97586849811341
 20
144.5544140025083
 30
0.0
 11
30.97586849811341
 21
141.5544140025083
 31
0.0
  0
LINE
  5
10362
330
C
100
AcDbEntity
  8
0
100
AcDbLine
 10
30.97586849811341
 20
141.5544140025083
 30
0.0
 11
45.97586849811341
 21
141.5544140025083
 31
0.0
  0
LINE
  5
10363
330
C
100
AcDbEntity
  8
0
100
AcDbLine
 10
45.97586849811341
 20
141.5544140025083
 30
0.0
 11
45.97586849811341
 21
144.5544140025083
 31
0.0
  0
LINE
  5
10364
330
C
100
AcDbEntity
  8
0
100
AcDbLine
 10
45.97586849811341
 20
144.5544140025083
 30
0.0
 11
60.97586849811341
 21
144.5544140025083
 31
0.0
  0
LINE
  5
10365
330
C
100
AcDbEntity
  8
0
100
AcDbLine
 10
60.97586849811341
 20
144.5544140025083
 30
0.0
 11
60.97586849811341
 21
141.5544140025083
 31
0.0
  0
LINE
  5
10366
330
C
100
AcDbEntity
  8
0
100
AcDbLine
 10
60.97586849811341
 20
141.5544140025083
 30
0.0
 11
75.97586849811341
 21
141.5544140025083
 31
0.0
  0
LINE
  5
10367
330
C
100
AcDbEntity
  8
0
100
AcDbLine
 10
75.97586849811341
 20
141.5544140025083
 30
0.0
 11
75.97586849811341
 21
144.5544140025083
 31
0.0
  0
LINE
  5
10368
330
C
100
AcDbEntity
  8
0
100
AcDbLine
 10
75.97586849811341
 20
144.5544140025083
 30
0.0
 11
90.97586849811341
 21
144.5544140025083
 31
0.0
  0
LINE
  5
10369
330
C
100
AcDbEntity
  8
0
100
AcDbLine
 10
90.97586849811341
 20
144.5544140025083
 30
0.0
 11
90.97586849811341
 21
141.5544140025083
 31
0.0
  0
LINE
  5
1036A
330
C
100
AcDbEntity
  8
0
100
AcDbLine
 10
90.97586849811341
 20
141.5544140025083
 30
0.0
 11
100.4758684981134
 21
141.5544140025083
 31
0.0
  0
LINE
  5
1036B
330
C
100
AcDbEntity
  8
0
100
AcDbLine
 10
100.4758684981134
 20
141.5544140025083
 30
0.0
 11
103.4758684981134
 21
141.5544140025083
 31
0.0
  0
LINE
  5
1036C
330
C
100
AcDbEntity
  8
0
100
AcDbLine
 10
103.4758684981134
 20
141.5544140025083
 30
0.0
 11
103.4758684981134
 21
144.5544140025083
 31
0.0
  0
LINE
  5
1036D
330
C
100
AcDbEntity
  8
0
100
AcDbLine
 10
103.4758684981134
 20
144.5544140025083
 30
0.0
 11
103.4758684981134
 21
149.0544140025083
 31
0.0
  0
LINE
  5
1036E
330
C
100
AcDbEntity
  8
0
100
AcDbLine
 10
103.4758684981134
 20
149.0544140025083
 30
0.0
 11
100.4758684981134
 21
149.0544140025083
 31
0.0
  0
LINE
  5
1036F
330
C
100
AcDbEntity
  8
0
100
AcDbLine
 10
100.4758684981134
 20
149.0544140025083
 30
0.0
 11
100.4758684981134
 21
164.0544140025083
 31
0.0
  0
LINE
  5
10370
330
C
100
AcDbEntity
  8
0
100
AcDbLine
 10
100.4758684981134
 20
164.0544140025083
 30
0.0
 11
103.4758684981134
 21
164.0544140025083
 31
0.0
  0
LINE
  5
10371
330
C
100
AcDbEntity
  8
0
100
AcDbLine
 10
103.4758684981134
 20
164.0544140025083
 30
0.0
 11
103.4758684981134
 21
179.0544140025083
 31
0.0
  0
LINE
  5
10372
330
C
100
AcDbEntity
  8
0
100
AcDbLine
 10
103.4758684981134
 20
179.0544140025083
 30
0.0
 11
100.4758684981134
 21
179.0544140025083
 31
0.0
  0
LINE
  5
10373
330
C
100
AcDbEntity
  8
0
100
AcDbLine
 10
100.4758684981134
 20
179.0544140025083
 30
0.0
 11
100.4758684981134
 21
194.0544140025083
 31
0.0
  0
LINE
  5
10374
330
C
100
AcDbEntity
  8
0
100
AcDbLine
 10
100.4758684981134
 20
194.0544140025083
 30
0.0
 11
103.4758684981134
 21
194.0544140025083
 31
0.0
  0
LINE
  5
10375
330
C
100
AcDbEntity
  8
0
100
AcDbLine
 10
103.4758684981134
 20
194.0544140025083
 30
0.0
 11
103.4758684981134
 21
198.5544140025083
 31
0.0
  0
LINE
  5
10376
330
C
100
AcDbEntity
  8
0
100
AcDbLine
 10
103.4758684981134
 20
198.5544140025083
 30
0.0
 11
103.4758684981134
 21
201.5544140025083
 31
0.0
  0
CIRCLE
  5
10557
330
C
100
AcDbEntity
  8
0
  6
Continuous
100
AcDbCircle
 10
88.47586849811341
 20
156.5544140025083
 30
0.0
 40
5.0
  0
CIRCLE
  5
10558
330
C
100
AcDbEntity
  8
0
  6
Continuous
100
AcDbCircle
 10
13.47586849811341
 20
171.5544140025083
 30
0.0
 40
2.009999999999999
  0
LINE
  5
10559
330
C
100
AcDbEntity
  8
0
  6
Continuous
100
AcDbLine
 10
3.0
 20
10.5
 30
0.0
 11
2.999999999999998
 21
25.5
 31
0.0
  0
LWPOLYLINE
  5
10560
330
C
100
AcDbEntity
  8
0
  6
Continuous
100
AcDbPolyline
 90
        2
 70
     0
 43
0.0
 10
59.0
 20
33.0
 10
59.0
 20
63.0
  0
LWPOLYLINE
  5
10561
330
C
100
AcDbEntity
  8
0
  6
Continuous
100
AcDbPolyline
 90
        2
 70
     0
 43
0.0
 10
94.0
 20
33.0
 10
94.0
 20
63.06936309006506
  0
LWPOLYLINE
  5
1056C
330
C
100
AcDbEntity
  8
0
  6
Continuous
100
AcDbPolyline
 90
        2
 70
     0
 43
0.0
 10
93.0
 20
9.0
 10
76.5
 20
9.0
  0
LWPOLYLINE
  5
1056D
330
C
100
AcDbEntity
  8
0
  6
Continuous
100
AcDbPolyline
 90
        3
 70
     0
 43
0.0
 10
63.0
 20
9.0
 10
59.0
 20
9.0
 10
59.0
 20
33.0
  0
LWPOLYLINE
  5
1056E
330
C
100
AcDbEntity
  8
0
  6
Continuous
100
AcDbPolyline
 90
        3
 70
     0
 43
0.0
 10
93.0
 20
9.0
 10
94.0
 20
9.0
 10
94.0
 20
33.0
  0
LWPOLYLINE
  5
10570
330
C
100
AcDbEntity
  8
0
  6
Continuous
100
AcDbPolyline
 90
        2
 70
     0
 43
0.0
 10
63.0
 20
9.0
 10
76.5
 20
9.0
  0
LINE
  5
10573
330
C
100
AcDbEntity
  8
0
  6
Continuous
100
AcDbLine
 10
163.5
 20
106.0
 30
0.0
 11
178.5
 21
106.0
 31
0.0
  0
LINE
  5
10576
330
C
100
AcDbEntity
  8
0
  6
Continuous
100
AcDbLine
 10
163.5
 20
106.0
 30
0.0
 11
178.5
 21
106.0
 31
0.0
  0
LWPOLYLINE
  5
10577
330
C
100
AcDbEntity
  8
0
  6
Continuous
100
AcDbPolyline
 90
        3
 70
     0
 43
0.0
 10
248.5
 20
109.0
 10
248.5
 20
136.0
 10
231.0
 20
136.0
  0
LWPOLYLINE
  5
1057B
330
C
100
AcDbEntity
  8
0
  6
Continuous
100
AcDbPolyline
 90
        3
 70
     0
 43
0.0
 10
213.5
 20
109.0
 10
213.5
 20
136.0
 10
231.0
 20
136.0
  0
LINE
  5
1057C
330
C
100
AcDbEntity
  8
0
  6
Continuous
100
AcDbLine
 10
193.5
 20
106.0
 30
0.0
 11
208.5
 21
106.0
 31
0.0
  0
LINE
  5
1057D
330
C
100
AcDbEntity
  8
0
  6
Continuous
100
AcDbLine
 10
193.5
 20
106.0
 30
0.0
 11
208.5
 21
106.0
 31
0.0
  0
LINE
  5
1057F
330
C
100
AcDbEntity
  8
0
  6
Continuous
100
AcDbLine
 10
174.5
 20
156.0
 30
0.0
 11
171.0
 21
156.0
 31
0.0
  0
CIRCLE
  5
10582
330
C
100
AcDbEntity
  8
0
  6
Continuous
100
AcDbCircle
 10
171.0
 20
166.0
 30
0.0
 40
2.75
  0
LWPOLYLINE
  5
10586
330
C
100
AcDbEntity
  8
0
  6
Continuous
100
AcDbPolyline
 90
        4
 70
     0
 43
0.0
 10
171.0
 20
156.0
 10
174.5
 20
156.0
 10
174.5
 20
144.6
 10
171.0
 20
144.6
  0
LWPOLYLINE
  5
10587
330
C
100
AcDbEntity
  8
0
  6
Continuous
100
AcDbPolyline
 90
        4
 70
     0
 43
0.0
 10
171.0
 20
156.0
 10
167.5
 20
156.0
 10
167.5
 20
144.6
 10
171.0
 20
144.6
  0
LWPOLYLINE
  5
1058B
330
C
100
AcDbEntity
  8
0
  6
Continuous
100
AcDbPolyline
 90
        2
 70
     0
 43
0.0
 10
213.5
 20
136.0
 10
248.5
 20
136.0
  0
LWPOLYLINE
  5
1058C
330
C
100
AcDbEntity
  8
0
  6
Continuous
100
AcDbPolyline
 90
        4
 70
     1
 43
0.0
 10
213.5
 20
196.0
 10
248.5
 20
196.0
 10
248.5
 20
161.0
 10
213.5
 20
161.0
  0
LWPOLYLINE
  5
1058D
330
C
100
AcDbEntity
  8
0
  6
Continuous
100
AcDbPolyline
 90
        4
 70
     0
 43
0.0
 10
248.5
 20
161.0
 10
248.5
 20
196.0
 10
213.5
 20
196.0
 10
213.5
 20
161.0
  0
ENDSEC
  0
SECTION
  2
OBJECTS
  0
DICTIONARY
  5
A
330
0
100
AcDbDictionary
281
     1
  3
ACAD_CIP_PREVIOUS_PRODUCT_INFO
350
10078
  3
ACAD_COLOR
350
10055
  3
ACAD_DETAILVIEWSTYLE
350
10071
  3
ACAD_GROUP
350
B
  3
ACAD_LAST_SAVED_VERSION_INFO
350
10592
  3
ACAD_LAYOUT
350
10056
  3
ACAD_MATERIAL
350
10023
  3
ACAD_MLEADERSTYLE
350
1006D
  3
ACAD_MLINESTYLE
350
10059
  3
ACAD_PLOTSETTINGS
350
10073
  3
ACAD_PLOTSTYLENAME
350
10021
  3
ACAD_SCALELIST
350
1005B
  3
ACAD_SECTIONVIEWSTYLE
350
1006F
  3
ACAD_TABLESTYLE
350
10057
  3
ACAD_VISUALSTYLE
350
1003C
  3
ACDB_RECOMPOSE_DATA
350
10597
  3
AcDbVariableDictionary
350
1011F
  0
DICTIONARY
  5
10593
330
15
100
AcDbDictionary
280
     1
281
     1
  3
ADSK_XREC_LAYER_RECONCILED
360
10594
  0
DICTIONARY
  5
10563
330
C
100
AcDbDictionary
280
     1
281
     1
  3
ACAD_SORTENTS
360
10564
  0
XRECORD
  5
10078
102
{ACAD_REACTORS
330
A
102
}
330
A
100
AcDbXrecord
280
     1
300
ACD
300
2025
300

  0
DICTIONARY
  5
10055
102
{ACAD_REACTORS
330
A
102
}
330
A
100
AcDbDictionary
281
     1
  0
DICTIONARY
  5
10071
102
{ACAD_REACTORS
330
A
102
}
330
A
100
AcDbDictionary
281
     1
  3
Imperial24
350
10072
  0
DICTIONARY
  5
B
330
A
100
AcDbDictionary
281
     0
  0
XRECORD
  5
10592
102
{ACAD_REACTORS
330
A
102
}
330
A
100
AcDbXrecord
280
     1
300
{A6AD438D-361A-7548-8F52-7F38B3604CEE}
301
{A7570216-822E-6C49-891C-201FA6EBB363}
302
{A6AD438D-361A-7548-8F52-7F38B3604CEE}
303
C:\Users\Pedro\Downloads\Cupim2.0.dxf
  0
DICTIONARY
  5
10056
102
{ACAD_REACTORS
330
A
102
}
330
A
100
AcDbDictionary
281
     1
  3
Layout1
350
10075
  3
Model
350
10074
  0
DICTIONARY
  5
10023
102
{ACAD_REACTORS
330
A
102
}
330
A
100
AcDbDictionary
281
     1
  3
ByBlock
350
1002C
  3
ByLayer
350
10024
  3
Global
350
10034
  0
DICTIONARY
  5
1006D
102
{ACAD_REACTORS
330
A
102
}
330
A
100
AcDbDictionary
281
     1
  3
Standard
350
1006E
  0
DICTIONARY
  5
10059
102
{ACAD_REACTORS
330
A
102
}
330
A
100
AcDbDictionary
281
     1
  3
Standard
350
1005A
  0
DICTIONARY
  5
10073
102
{ACAD_REACTORS
330
A
102
}
330
A
100
AcDbDictionary
281
     1
  0
ACDBDICTIONARYWDFLT
  5
10021
102
{ACAD_REACTORS
330
A
102
}
330
A
100
AcDbDictionary
281
     1
  3
Normal
350
10022
100
AcDbDictionaryWithDefault
340
10022
  0
DICTIONARY
  5
1005B
102
{ACAD_REACTORS
330
A
102
}
330
A
100
AcDbDictionary
281
     1
  3
A0
350
1005C
  3
A1
350
1005D
  3
A2
350
1005E
  3
A3
350
1005F
  3
A4
350
10060
  3
A5
350
10061
  3
A6
350
10062
  3
A7
350
10063
  3
A8
350
10064
  3
A9
350
10065
  3
B0
350
10066
  3
B1
350
10067
  3
B2
350
10068
  3
B3
350
10069
  3
B4
350
1006A
  3
B5
350
1006B
  3
B6
350
1006C
  0
DICTIONARY
  5
1006F
102
{ACAD_REACTORS
330
A
102
}
330
A
100
AcDbDictionary
281
     1
  3
Imperial24
350
10070
  0
DICTIONARY
  5
10057
102
{ACAD_REACTORS
330
A
102
}
330
A
100
AcDbDictionary
281
     1
  3
Standard
350
10058
  0
DICTIONARY
  5
1003C
102
{ACAD_REACTORS
330
A
102
}
330
A
100
AcDbDictionary
281
     1
  3
2dWireframe
350
10042
  3
Basic
350
10041
  3
Brighten
350
10048
  3
ColorChange
350
1004C
  3
Conceptual
350
10045
  3
Dim
350
10047
  3
EdgeColorOff
350
10054
  3
Facepattern
350
1004B
  3
Flat
350
1003D
  3
FlatWithEdges
350
1003E
  3
Gouraud
350
1003F
  3
GouraudWithEdges
350
10040
  3
Hidden
350
10044
  3
JitterOff
350
10052
  3
Linepattern
350
1004A
  3
OverhangOff
350
10053
  3
Realistic
350
10046
  3
Shaded
350
10051
  3
Shaded with edges
350
10050
  3
Shades of Gray
350
1004D
  3
Sketchy
350
1004E
  3
Thicken
350
10049
  3
Wireframe
350
10043
  3
X-Ray
350
1004F
  0
XRECORD
  5
10597
102
{ACAD_REACTORS
330
A
102
}
330
A
100
AcDbXrecord
280
     1
 90
        1
330
10058
  0
DICTIONARY
  5
1011F
102
{ACAD_REACTORS
330
A
102
}
330
A
100
AcDbDictionary
281
     1
  3
CANNOSCALE
350
10125
  3
CMLEADERSTYLE
350
10121
  3
CTABLESTYLE
350
10120
  3
CVIEWDETAILSTYLE
350
10122
  3
CVIEWSECTIONSTYLE
350
10123
  3
LAYEREVAL
350
10127
  3
LAYERNOTIFY
350
10128
  3
LIGHTINGUNITS
350
10126
  3
MSLTSCALE
350
10124
  0
XRECORD
  5
10594
102
{ACAD_REACTORS
330
10593
102
}
330
10593
100
AcDbXrecord
280
     1
290
     1
  0
SORTENTSTABLE
  5
10564
102
{ACAD_REACTORS
330
10563
102
}
330
10563
100
AcDbSortentsTable
330
C
331
10B2
  5
10B4
331
10B3
  5
10B5
331
10B4
  5
10B6
331
10B5
  5
10B7
331
10B6
  5
10B8
331
10B7
  5
10B9
331
10B8
  5
10BA
331
10B9
  5
10BB
331
10BA
  5
10BC
331
10BB
  5
10BD
331
10BC
  5
10BE
331
10BD
  5
10BF
331
10BE
  5
10C0
331
10BF
  5
10C1
331
10C0
  5
10C2
331
10C1
  5
10C3
331
10C2
  5
10C4
331
10C3
  5
10C5
331
10C4
  5
10C6
331
10C5
  5
10C7
331
10C6
  5
10C8
331
10C7
  5
10C9
331
10C8
  5
10CA
331
10C9
  5
10CB
331
10CA
  5
10CC
331
10CB
  5
10CD
331
10CC
  5
10CE
331
10CD
  5
10CF
331
10CE
  5
10D0
331
10CF
  5
10D1
331
10D0
  5
10D2
331
10D1
  5
10D3
331
10D2
  5
10D4
331
10D3
  5
10D5
331
10D4
  5
10D6
331
10D5
  5
10D7
331
10D6
  5
10D8
331
10D7
  5
10D9
331
10D8
  5
10DA
331
10D9
  5
10DE
331
10DA
  5
10DF
331
10DE
  5
10E0
331
10DF
  5
10E1
331
10E0
  5
10E2
331
10E1
  5
10E3
331
10E2
  5
10E4
331
10E3
  5
10E5
331
10E4
  5
10E6
331
10E5
  5
10E7
331
10E6
  5
10E8
331
10E7
  5
10E9
331
10E8
  5
10EA
331
10E9
  5
10EB
331
10EA
  5
10EC
331
10EB
  5
10ED
331
10EC
  5
10EE
331
10ED
  5
10EF
331
10EE
  5
10F0
331
10EF
  5
10F1
331
10F0
  5
10F2
331
10F1
  5
10F3
331
10F2
  5
10F4
331
10F3
  5
10F5
331
10F4
  5
10109
331
10F5
  5
1011E
331
10109
  5
10343
331
1011E
  5
10344
331
10343
  5
10345
331
10344
  5
10346
331
10345
  5
10347
331
10346
  5
10348
331
10347
  5
10349
331
10348
  5
1034A
331
10349
  5
1034B
331
1034A
  5
1034C
331
1034B
  5
1034D
331
1034C
  5
1034E
331
1034D
  5
1034F
331
1034E
  5
10350
331
1034F
  5
10351
331
10350
  5
10352
331
10351
  5
10353
331
10352
  5
10354
331
10353
  5
10355
331
10354
  5
10356
331
10355
  5
10357
331
10356
  5
10358
331
10357
  5
10359
331
10358
  5
1035A
331
10359
  5
1035B
331
1035A
  5
1035C
331
1035B
  5
1035D
331
1035C
  5
1035E
331
1035D
  5
1035F
331
1035E
  5
10360
331
1035F
  5
10361
331
10360
  5
10362
331
10361
  5
10363
331
10362
  5
10364
331
10363
  5
10365
331
10364
  5
10366
331
10365
  5
10367
331
10366
  5
10368
331
10367
  5
10369
331
10368
  5
1036A
331
10369
  5
1036B
331
1036A
  5
1036C
331
1036B
  5
1036D
331
1036C
  5
1036E
331
1036D
  5
1036F
331
1036E
  5
10370
331
1036F
  5
10371
331
10370
  5
10372
331
10371
  5
10373
331
10372
  5
10374
331
10373
  5
10375
331
10374
  5
10376
331
10375
  5
10377
331
10376
  5
10378
331
10557
  5
10560
331
10558
  5
10562
331
10559
  5
1056B
331
10560
  5
1056F
331
10561
  5
10570
331
1056C
  5
10577
331
1056D
  5
10579
331
1056E
  5
1057B
331
10570
  5
10573
331
10573
  5
1057C
331
10576
  5
1057F
331
10577
  5
10586
331
1057B
  5
10587
331
1057C
  5
10582
331
1057F
  5
10588
331
10582
  5
10589
331
10586
  5
1058B
331
10587
  5
1058C
331
1058B
  5
1058D
331
1058C
  5
1058F
331
1058D
  5
1058E
  0
ACDBDETAILVIEWSTYLE
  5
10072
102
{ACAD_REACTORS
330
10071
102
}
330
10071
100
AcDbModelDocViewStyle
 70
     0
  3
Imperial24
290
     0
300
Imperial24
 90
        0
100
AcDbDetailViewStyle
 70
     0
 71
     0
 90
        3
 71
     1
340
16
 62
   256
 40
0.24
340
0
 62
   256
 40
0.24
300

 40
0.36
280
     3
 71
     2
340
14
 90
       25
 62
   256
 71
     3
340
16
 62
   256
 40
0.24
 90
        1
 40
0.75
 90
        1
300
%<\AcVar ViewType \f "%tc1">% %<\AcVar ViewDetailId>%\PESCALA %<\AcVar ViewScale \f "%sn">%
 71
     4
340
14
 90
       25
 62
   256
340
14
 90
       25
 62
   256
280
     0
  0
LAYOUT
  5
10075
102
{ACAD_REACTORS
330
10056
102
}
330
10056
100
AcDbPlotSettings
  1

  2
OKI B410
  4

  6

 40
0.0
 41
0.0
 42
0.0
 43
0.0
 44
0.0
 45
0.0
 46
0.0
 47
0.0
 48
0.0
 49
0.0
140
0.0
141
0.0
142
1.0
143
1.0
 70
   688
 72
     0
 73
     0
 74
     5
  7

 75
    16
147
1.0
 76
     0
 77
     2
 78
   300
148
0.0
149
0.0
100
AcDbLayout
  1
Layout1
 70
     1
 71
     1
 10
0.0
 20
0.0
 11
12.0
 21
9.0
 12
0.0
 22
0.0
 32
0.0
 14
1.000000000000000E+20
 24
1.000000000000000E+20
 34
1.000000000000000E+20
 15
-1.000000000000000E+20
 25
-1.000000000000000E+20
 35
-1.000000000000000E+20
146
0.0
 13
0.0
 23
0.0
 33
0.0
 16
1.0
 26
0.0
 36
0.0
 17
0.0
 27
1.0
 37
0.0
 76
     0
330
F
  0
LAYOUT
  5
10074
102
{ACAD_REACTORS
330
10056
102
}
330
10056
100
AcDbPlotSettings
  1

  2
OKI B410
  4

  6

 40
0.0
 41
0.0
 42
0.0
 43
0.0
 44
0.0
 45
0.0
 46
0.0
 47
0.0
 48
0.0
 49
0.0
140
0.0
141
0.0
142
1.0
143
1.0
 70
  1712
 72
     0
 73
     0
 74
     0
  7

 75
     0
147
1.0
 76
     0
 77
     2
 78
   300
148
0.0
149
0.0
100
AcDbLayout
  1
Model
 70
     1
 71
     0
 10
0.0
 20
0.0
 11
12.0
 21
9.0
 12
0.0
 22
0.0
 32
0.0
 14
0.0
 24
0.0
 34
0.0
 15
0.0
 25
0.0
 35
0.0
146
0.0
 13
0.0
 23
0.0
 33
0.0
 16
1.0
 26
0.0
 36
0.0
 17
0.0
 27
1.0
 37
0.0
 76
     0
330
C
331
19
  0
MATERIAL
  5
1002C
102
{ACAD_XDICTIONARY
360
1002D
102
}
102
{ACAD_REACTORS
330
10023
102
}
330
10023
100
AcDbMaterial
  1
ByBlock
 72
     0
 43
0.0208333333333333
 43
0.0
 43
0.0
 43
0.0
 43
0.0
 43
0.0208333333333333
 43
0.0
 43
0.0
 43
0.0
 43
0.0
 43
1.0
 43
0.0
 43
0.0
 43
0.0
 43
0.0
 43
1.0
 77
     0
 47
0.0208333333333333
 47
0.0
 47
0.0
 47
0.0
 47
0.0
 47
0.0208333333333333
 47
0.0
 47
0.0
 47
0.0
 47
0.0
 47
1.0
 47
0.0
 47
0.0
 47
0.0
 47
0.0
 47
1.0
171
     0
 49
0.0208333333333333
 49
0.0
 49
0.0
 49
0.0
 49
0.0
 49
0.0208333333333333
 49
0.0
 49
0.0
 49
0.0
 49
0.0
 49
1.0
 49
0.0
 49
0.0
 49
0.0
 49
0.0
 49
1.0
175
     0
142
0.0208333333333333
142
0.0
142
0.0
142
0.0
142
0.0
142
0.0208333333333333
142
0.0
142
0.0
142
0.0
142
0.0
142
1.0
142
0.0
142
0.0
142
0.0
142
0.0
142
1.0
179
     0
144
0.0208333333333333
144
0.0
144
0.0
144
0.0
144
0.0
144
0.0208333333333333
144
0.0
144
0.0
144
0.0
144
0.0
144
1.0
144
0.0
144
0.0
144
0.0
144
0.0
144
1.0
147
0.0208333333333333
147
0.0
147
0.0
147
0.0
147
0.0
147
0.0208333333333333
147
0.0
147
0.0
147
0.0
147
0.0
147
1.0
147
0.0
147
0.0
147
0.0
147
0.0
147
1.0
  0
MATERIAL
  5
10024
102
{ACAD_XDICTIONARY
360
10025
102
}
102
{ACAD_REACTORS
330
10023
102
}
330
10023
100
AcDbMaterial
  1
ByLayer
 72
     0
 43
0.0208333333333333
 43
0.0
 43
0.0
 43
0.0
 43
0.0
 43
0.0208333333333333
 43
0.0
 43
0.0
 43
0.0
 43
0.0
 43
1.0
 43
0.0
 43
0.0
 43
0.0
 43
0.0
 43
1.0
 77
     0
 47
0.0208333333333333
 47
0.0
 47
0.0
 47
0.0
 47
0.0
 47
0.0208333333333333
 47
0.0
 47
0.0
 47
0.0
 47
0.0
 47
1.0
 47
0.0
 47
0.0
 47
0.0
 47
0.0
 47
1.0
171
     0
 49
0.0208333333333333
 49
0.0
 49
0.0
 49
0.0
 49
0.0
 49
0.0208333333333333
 49
0.0
 49
0.0
 49
0.0
 49
0.0
 49
1.0
 49
0.0
 49
0.0
 49
0.0
 49
0.0
 49
1.0
175
     0
142
0.0208333333333333
142
0.0
142
0.0
142
0.0
142
0.0
142
0.0208333333333333
142
0.0
142
0.0
142
0.0
142
0.0
142
1.0
142
0.0
142
0.0
142
0.0
142
0.0
142
1.0
179
     0
144
0.0208333333333333
144
0.0
144
0.0
144
0.0
144
0.0
144
0.0208333333333333
144
0.0
144
0.0
144
0.0
144
0.0
144
1.0
144
0.0
144
0.0
144
0.0
144
0.0
144
1.0
147
0.0208333333333333
147
0.0
147
0.0
147
0.0
147
0.0
147
0.0208333333333333
147
0.0
147
0.0
147
0.0
147
0.0
147
1.0
147
0.0
147
0.0
147
0.0
147
0.0
147
1.0
  0
MATERIAL
  5
10034
102
{ACAD_XDICTIONARY
360
10035
102
}
102
{ACAD_REACTORS
330
10023
102
}
330
10023
100
AcDbMaterial
  1
Global
 72
     0
 43
0.0208333333333333
 43
0.0
 43
0.0
 43
0.0
 43
0.0
 43
0.0208333333333333
 43
0.0
 43
0.0
 43
0.0
 43
0.0
 43
1.0
 43
0.0
 43
0.0
 43
0.0
 43
0.0
 43
1.0
 77
     0
 47
0.0208333333333333
 47
0.0
 47
0.0
 47
0.0
 47
0.0
 47
0.0208333333333333
 47
0.0
 47
0.0
 47
0.0
 47
0.0
 47
1.0
 47
0.0
 47
0.0
 47
0.0
 47
0.0
 47
1.0
171
     0
 49
0.0208333333333333
 49
0.0
 49
0.0
 49
0.0
 49
0.0
 49
0.0208333333333333
 49
0.0
 49
0.0
 49
0.0
 49
0.0
 49
1.0
 49
0.0
 49
0.0
 49
0.0
 49
0.0
 49
1.0
175
     0
142
0.0208333333333333
142
0.0
142
0.0
142
0.0
142
0.0
142
0.0208333333333333
142
0.0
142
0.0
142
0.0
142
0.0
142
1.0
142
0.0
142
0.0
142
0.0
142
0.0
142
1.0
179
     0
144
0.0208333333333333
144
0.0
144
0.0
144
0.0
144
0.0
144
0.0208333333333333
144
0.0
144
0.0
144
0.0
144
0.0
144
1.0
144
0.0
144
0.0
144
0.0
144
0.0
144
1.0
147
0.0208333333333333
147
0.0
147
0.0
147
0.0
147
0.0
147
0.0208333333333333
147
0.0
147
0.0
147
0.0
147
0.0
147
1.0
147
0.0
147
0.0
147
0.0
147
0.0
147
1.0
  0
MLEADERSTYLE
  5
1006E
102
{ACAD_REACTORS
330
1006D
102
}
330
1006D
100
AcDbMLeaderStyle
179
     2
170
     2
171
     1
172
     0
 90
        2
 40
0.0
 41
0.0
173
     1
 91
-1056964608
340
12
 92
       -2
290
     1
 42
0.09
291
     1
 43
0.36
  3
Standard
 44
0.18
300

342
16
174
     1
178
     6
175
     1
176
     0
 93
-1056964608
 45
0.18
292
     0
297
     0
 46
0.18
 94
-1056964608
 47
1.0
 49
1.0
140
1.0
293
     1
141
0.0
294
     1
177
     0
142
1.0
295
     0
296
     0
143
0.125
271
     0
272
     9
273
     9
298
     0
  0
MLINESTYLE
  5
1005A
102
{ACAD_REACTORS
330
10059
102
}
330
10059
100
AcDbMlineStyle
  2
STANDARD
 70
     0
  3

 62
   256
 51
90.0
 52
90.0
 71
     2
 49
0.5
 62
   256
  6
BYLAYER
 49
-0.5
 62
   256
  6
BYLAYER
  0
ACDBPLACEHOLDER
  5
10022
102
{ACAD_REACTORS
330
10021
102
}
330
10021
  0
SCALE
  5
1005C
102
{ACAD_REACTORS
330
1005B
102
}
330
1005B
100
AcDbScale
 70
     0
300
1:1
140
1.0
141
1.0
290
     1
  0
SCALE
  5
1005D
102
{ACAD_REACTORS
330
1005B
102
}
330
1005B
100
AcDbScale
 70
     0
300
1/128" = 1'-0"
140
0.0078125
141
12.0
290
     0
  0
SCALE
  5
1005E
102
{ACAD_REACTORS
330
1005B
102
}
330
1005B
100
AcDbScale
 70
     0
300
1/64" = 1'-0"
140
0.015625
141
12.0
290
     0
  0
SCALE
  5
1005F
102
{ACAD_REACTORS
330
1005B
102
}
330
1005B
100
AcDbScale
 70
     0
300
1/32" = 1'-0"
140
0.03125
141
12.0
290
     0
  0
SCALE
  5
10060
102
{ACAD_REACTORS
330
1005B
102
}
330
1005B
100
AcDbScale
 70
     0
300
1/16" = 1'-0"
140
0.0625
141
12.0
290
     0
  0
SCALE
  5
10061
102
{ACAD_REACTORS
330
1005B
102
}
330
1005B
100
AcDbScale
 70
     0
300
3/32" = 1'-0"
140
0.09375
141
12.0
290
     0
  0
SCALE
  5
10062
102
{ACAD_REACTORS
330
1005B
102
}
330
1005B
100
AcDbScale
 70
     0
300
1/8" = 1'-0"
140
0.125
141
12.0
290
     0
  0
SCALE
  5
10063
102
{ACAD_REACTORS
330
1005B
102
}
330
1005B
100
AcDbScale
 70
     0
300
3/16" = 1'-0"
140
0.1875
141
12.0
290
     0
  0
SCALE
  5
10064
102
{ACAD_REACTORS
330
1005B
102
}
330
1005B
100
AcDbScale
 70
     0
300
1/4" = 1'-0"
140
0.25
141
12.0
290
     0
  0
SCALE
  5
10065
102
{ACAD_REACTORS
330
1005B
102
}
330
1005B
100
AcDbScale
 70
     0
300
3/8" = 1'-0"
140
0.375
141
12.0
290
     0
  0
SCALE
  5
10066
102
{ACAD_REACTORS
330
1005B
102
}
330
1005B
100
AcDbScale
 70
     0
300
1/2" = 1'-0"
140
0.5
141
12.0
290
     0
  0
SCALE
  5
10067
102
{ACAD_REACTORS
330
1005B
102
}
330
1005B
100
AcDbScale
 70
     0
300
3/4" = 1'-0"
140
0.75
141
12.0
290
     0
  0
SCALE
  5
10068
102
{ACAD_REACTORS
330
1005B
102
}
330
1005B
100
AcDbScale
 70
     0
300
1" = 1'-0"
140
1.0
141
12.0
290
     0
  0
SCALE
  5
10069
102
{ACAD_REACTORS
330
1005B
102
}
330
1005B
100
AcDbScale
 70
     0
300
1-1/2" = 1'-0"
140
1.5
141
12.0
290
     0
  0
SCALE
  5
1006A
102
{ACAD_REACTORS
330
1005B
102
}
330
1005B
100
AcDbScale
 70
     0
300
3" = 1'-0"
140
3.0
141
12.0
290
     0
  0
SCALE
  5
1006B
102
{ACAD_REACTORS
330
1005B
102
}
330
1005B
100
AcDbScale
 70
     0
300
6" = 1'-0"
140
6.0
141
12.0
290
     0
  0
SCALE
  5
1006C
102
{ACAD_REACTORS
330
1005B
102
}
330
1005B
100
AcDbScale
 70
     0
300
1'-0" = 1'-0"
140
12.0
141
12.0
290
     0
  0
ACDBSECTIONVIEWSTYLE
  5
10070
102
{ACAD_REACTORS
330
1006F
102
}
330
1006F
100
AcDbModelDocViewStyle
 70
     0
  3
Imperial24
290
     0
300
Imperial24
 90
        0
100
AcDbSectionViewStyle
 70
     0
 71
     0
 90
       78
 71
     1
340
16
 62
   256
 40
0.24
340
0
340
0
 62
   256
 40
0.24
300
I, O, Q, S, X, Z
 40
0.48
 90
        3
 40
0.18
 90
        1
 71
     2
340
14
 90
       25
 62
   256
340
14
 90
       50
 62
   256
 40
0.24
 40
0.0
 40
0.24
 71
     3
340
16
 62
   256
 40
0.24
 90
        1
 40
0.75
 90
        1
300
%<\AcVar ViewType \f "%tc1">% %<\AcVar ViewSectionStartId>%-%<\AcVar ViewSectionEndId>%\PESCALA %<\AcVar ViewScale \f "%sn">%
 71
     4
 62
   256
 62
   257
300
ANSI31
 40
1.0
 90
        0
290
     0
290
     0
 90
        6
 40
0.0
 40
1.570796326794896
 40
0.2617993877991494
 40
1.308996938995747
 40
-0.2617993877991494
 40
1.832595714594046
  0
TABLESTYLE
  5
10058
102
{ACAD_XDICTIONARY
360
10595
102
}
102
{ACAD_REACTORS
330
10057
102
}
330
10057
100
AcDbTableStyle
280
     0
  3
Standard
 70
     0
 71
     0
 40
0.06
 41
0.06
280
     0
281
     0
  7
Standard
140
0.18
170
     2
 62
     0
 63
     7
283
     0
 90
      512
 91
        0
  1

274
    -2
284
     1
 64
     0
275
    -2
285
     1
 65
     0
276
    -2
286
     1
 66
     0
277
    -2
287
     1
 67
     0
278
    -2
288
     1
 68
     0
279
    -2
289
     1
 69
     0
  7
Standard
140
0.25
170
     5
 62
     0
 63
     7
283
     0
 90
      512
 91
        0
  1

274
    -2
284
     1
 64
     0
275
    -2
285
     1
 65
     0
276
    -2
286
     1
 66
     0
277
    -2
287
     1
 67
     0
278
    -2
288
     1
 68
     0
279
    -2
289
     1
 69
     0
  7
Standard
140
0.18
170
     5
 62
     0
 63
     7
283
     0
 90
      512
 91
        0
  1

274
    -2
284
     1
 64
     0
275
    -2
285
     1
 65
     0
276
    -2
286
     1
 66
     0
277
    -2
287
     1
 67
     0
278
    -2
288
     1
 68
     0
279
    -2
289
     1
 69
     0
  0
VISUALSTYLE
  5
10042
102
{ACAD_REACTORS
330
1003C
102
}
330
1003C
100
AcDbVisualStyle
  2
2dWireframe
 70
     4
177
     3
291
     0
 70
    58
 90
        0
176
     1
 90
        2
176
     1
 90
        0
176
     1
 90
        0
176
     1
 40
0.6
176
     1
 40
30.0
176
     1
 62
     7
420
 16777215
176
     1
 90
        1
176
     1
 90
        4
176
     1
 62
     7
176
     1
 62
   257
176
     1
 90
        1
176
     1
 90
        1
176
     1
 40
1.0
176
     1
 90
        0
176
     1
 62
   257
176
     1
 40
1.0
176
     1
 90
        1
176
     1
 90
        6
176
     1
 90
        2
176
     1
 62
     7
176
     1
 90
        5
176
     1
 90
        0
176
     1
 90
        0
176
     1
290
     0
176
     1
 90
        1
176
     1
 40
0.0
176
     1
 90
        0
176
     1
290
     1
176
     1
290
     1
176
     1
290
     0
176
     1
290
     0
176
     1
290
     0
176
     1
290
     0
176
     1
290
     0
176
     1
290
     0
176
     1
290
     0
176
     1
 90
       50
176
     1
 40
0.0
176
     1
 40
1.0
176
     1
 90
        0
176
     1
 62
    18
420
        0
176
     1
 90
       50
176
     1
 90
        3
176
     1
 62
     5
420
      255
176
     1
290
     0
176
     1
 90
       50
176
     1
 90
       50
176
     1
 90
       50
176
     1
290
     0
176
     1
 90
       50
176
     1
 62
   256
176
     0
 40
1.0
176
     0
 90
        2
176
     1
  1
strokes_ogs.tif
176
     1
290
     0
176
     1
 40
1.0
176
     1
 40
1.0
176
     1
  0
VISUALSTYLE
  5
10041
102
{ACAD_REACTORS
330
1003C
102
}
330
1003C
100
AcDbVisualStyle
  2
Basic
 70
     7
177
     3
291
     1
 70
    58
 90
        1
176
     1
 90
        0
176
     1
 90
        1
176
     1
 90
        0
176
     1
 40
0.6
176
     1
 40
30.0
176
     1
 62
     7
420
 16777215
176
     1
 90
        0
176
     1
 90
        4
176
     1
 62
     7
176
     1
 62
   257
176
     1
 90
        1
176
     1
 90
        1
176
     1
 40
1.0
176
     1
 90
        8
176
     1
 62
     7
176
     1
 40
1.0
176
     1
 90
        1
176
     1
 90
        6
176
     1
 90
        2
176
     1
 62
     7
176
     1
 90
        5
176
     1
 90
        0
176
     1
 90
        0
176
     1
290
     0
176
     1
 90
        1
176
     1
 40
0.0
176
     1
 90
        0
176
     1
290
     0
176
     1
290
     1
176
     1
290
     1
176
     1
290
     0
176
     1
290
     0
176
     1
290
     0
176
     1
290
     0
176
     1
290
     0
176
     1
290
     0
176
     1
 90
       50
176
     1
 40
0.0
176
     1
 40
1.0
176
     1
 90
        0
176
     1
 62
    18
420
        0
176
     1
 90
       50
176
     1
 90
        3
176
     1
 62
     5
420
      255
176
     1
290
     0
176
     1
 90
       50
176
     1
 90
       50
176
     1
 90
       50
176
     1
290
     0
176
     1
 90
       50
176
     1
 62
   256
176
     0
 40
1.0
176
     0
 90
        2
176
     1
  1
strokes_ogs.tif
176
     1
290
     0
176
     1
 40
1.0
176
     1
 40
1.0
176
     1
  0
VISUALSTYLE
  5
10048
102
{ACAD_REACTORS
330
1003C
102
}
330
1003C
100
AcDbVisualStyle
  2
Brighten
 70
    12
177
     3
291
     1
 70
    58
 90
        2
176
     1
 90
        2
176
     1
 90
        0
176
     1
 90
        0
176
     1
 40
0.6
176
     1
 40
30.0
176
     1
 62
     7
420
 16777215
176
     1
 90
        1
176
     1
 90
        4
176
     1
 62
     7
176
     1
 62
   257
176
     1
 90
        1
176
     1
 90
        1
176
     1
 40
1.0
176
     1
 90
        8
176
     1
 62
     7
176
     1
 40
1.0
176
     1
 90
        1
176
     1
 90
        6
176
     1
 90
        2
176
     1
 62
     7
176
     1
 90
        5
176
     1
 90
        0
176
     1
 90
        0
176
     1
290
     0
176
     1
 90
        1
176
     1
 40
50.0
176
     1
 90
        0
176
     1
290
     0
176
     1
290
     1
176
     1
290
     1
176
     1
290
     0
176
     1
290
     0
176
     1
290
     0
176
     1
290
     0
176
     1
290
     0
176
     1
290
     0
176
     1
 90
       50
176
     1
 40
0.0
176
     1
 40
1.0
176
     1
 90
        0
176
     1
 62
    18
420
        0
176
     1
 90
       50
176
     1
 90
        3
176
     1
 62
     5
420
      255
176
     1
290
     0
176
     1
 90
       50
176
     1
 90
       50
176
     1
 90
       50
176
     1
290
     0
176
     1
 90
       50
176
     1
 62
   256
176
     0
 40
1.0
176
     0
 90
        2
176
     1
  1
strokes_ogs.tif
176
     1
290
     0
176
     1
 40
1.0
176
     1
 40
1.0
176
     1
  0
VISUALSTYLE
  5
1004C
102
{ACAD_REACTORS
330
1003C
102
}
330
1003C
100
AcDbVisualStyle
  2
ColorChange
 70
    16
177
     3
291
     1
 70
    58
 90
        2
176
     1
 90
        2
176
     1
 90
        3
176
     1
 90
        0
176
     1
 40
0.6
176
     1
 40
30.0
176
     1
 62
     8
420
  8421504
176
     1
 90
        1
176
     1
 90
        4
176
     1
 62
     7
176
     1
 62
   257
176
     1
 90
        1
176
     1
 90
        1
176
     1
 40
1.0
176
     1
 90
        8
176
     1
 62
     8
420
  8421504
176
     1
 40
1.0
176
     1
 90
        1
176
     1
 90
        6
176
     1
 90
        2
176
     1
 62
     7
176
     1
 90
        5
176
     1
 90
        0
176
     1
 90
        0
176
     1
290
     0
176
     1
 90
        1
176
     1
 40
0.0
176
     1
 90
        0
176
     1
290
     0
176
     1
290
     1
176
     1
290
     1
176
     1
290
     0
176
     1
290
     0
176
     1
290
     0
176
     1
290
     0
176
     1
290
     0
176
     1
290
     0
176
     1
 90
       50
176
     1
 40
0.0
176
     1
 40
1.0
176
     1
 90
        0
176
     1
 62
    18
420
        0
176
     1
 90
       50
176
     1
 90
        3
176
     1
 62
     5
420
      255
176
     1
290
     0
176
     1
 90
       50
176
     1
 90
       50
176
     1
 90
       50
176
     1
290
     0
176
     1
 90
       50
176
     1
 62
   256
176
     0
 40
1.0
176
     0
 90
        2
176
     1
  1
strokes_ogs.tif
176
     1
290
     0
176
     1
 40
1.0
176
     1
 40
1.0
176
     1
  0
VISUALSTYLE
  5
10045
102
{ACAD_REACTORS
330
1003C
102
}
330
1003C
100
AcDbVisualStyle
  2
Conceptual
 70
     9
177
     3
291
     0
 70
    58
 90
        3
176
     1
 90
        2
176
     1
 90
        0
176
     1
 90
        0
176
     1
 40
0.6
176
     1
 40
30.0
176
     1
 62
     7
420
 16777215
176
     1
 90
        2
176
     1
 90
        2
176
     1
 62
     7
176
     1
 62
   257
176
     1
 90
        1
176
     1
 90
        1
176
     1
 40
179.0
176
     1
 90
        8
176
     1
 62
     7
176
     1
 40
1.0
176
     1
 90
        1
176
     1
 90
        6
176
     1
 90
        2
176
     1
 62
     7
176
     1
 90
        3
176
     1
 90
        0
176
     1
 90
        0
176
     1
290
     0
176
     1
 90
        1
176
     1
 40
0.0
176
     1
 90
        0
176
     1
290
     0
176
     1
290
     1
176
     1
290
     1
176
     1
290
     0
176
     1
290
     0
176
     1
290
     0
176
     1
290
     0
176
     1
290
     0
176
     1
290
     0
176
     1
 90
       50
176
     1
 40
0.0
176
     1
 40
1.0
176
     1
 90
        0
176
     1
 62
    18
420
        0
176
     1
 90
       50
176
     1
 90
        3
176
     1
 62
     5
420
      255
176
     1
290
     0
176
     1
 90
       50
176
     1
 90
       50
176
     1
 90
       50
176
     1
290
     0
176
     1
 90
       50
176
     1
 62
   256
176
     0
 40
1.0
176
     0
 90
        2
176
     1
  1
strokes_ogs.tif
176
     1
290
     0
176
     1
 40
1.0
176
     1
 40
1.0
176
     1
  0
VISUALSTYLE
  5
10047
102
{ACAD_REACTORS
330
1003C
102
}
330
1003C
100
AcDbVisualStyle
  2
Dim
 70
    11
177
     3
291
     1
 70
    58
 90
        2
176
     1
 90
        2
176
     1
 90
        0
176
     1
 90
        0
176
     1
 40
0.6
176
     1
 40
30.0
176
     1
 62
     7
420
 16777215
176
     1
 90
        1
176
     1
 90
        4
176
     1
 62
     7
176
     1
 62
   257
176
     1
 90
        1
176
     1
 90
        1
176
     1
 40
1.0
176
     1
 90
        8
176
     1
 62
     7
176
     1
 40
1.0
176
     1
 90
        1
176
     1
 90
        6
176
     1
 90
        2
176
     1
 62
     7
176
     1
 90
        5
176
     1
 90
        0
176
     1
 90
        0
176
     1
290
     0
176
     1
 90
        1
176
     1
 40
-50.0
176
     1
 90
        0
176
     1
290
     0
176
     1
290
     1
176
     1
290
     1
176
     1
290
     0
176
     1
290
     0
176
     1
290
     0
176
     1
290
     0
176
     1
290
     0
176
     1
290
     0
176
     1
 90
       50
176
     1
 40
0.0
176
     1
 40
1.0
176
     1
 90
        0
176
     1
 62
    18
420
        0
176
     1
 90
       50
176
     1
 90
        3
176
     1
 62
     5
420
      255
176
     1
290
     0
176
     1
 90
       50
176
     1
 90
       50
176
     1
 90
       50
176
     1
290
     0
176
     1
 90
       50
176
     1
 62
   256
176
     0
 40
1.0
176
     0
 90
        2
176
     1
  1
strokes_ogs.tif
176
     1
290
     0
176
     1
 40
1.0
176
     1
 40
1.0
176
     1
  0
VISUALSTYLE
  5
10054
102
{ACAD_REACTORS
330
1003C
102
}
330
1003C
100
AcDbVisualStyle
  2
EdgeColorOff
 70
    22
177
     3
291
     1
 70
    58
 90
        2
176
     0
 90
        2
176
     0
 90
        0
176
     0
 90
        0
176
     0
 40
0.6
176
     0
 40
30.0
176
     0
 62
     7
420
 16777215
176
     0
 90
        1
176
     0
 90
        4
176
     0
 62
     7
176
     0
 62
   257
176
     0
 90
        1
176
     0
 90
        1
176
     0
 40
1.0
176
     0
 90
        8
176
     2
 62
     7
176
     0
 40
1.0
176
     0
 90
        1
176
     0
 90
        6
176
     0
 90
        2
176
     0
 62
     7
176
     0
 90
        5
176
     0
 90
        0
176
     0
 90
        0
176
     0
290
     0
176
     0
 90
        1
176
     0
 40
0.0
176
     0
 90
        0
176
     0
290
     0
176
     1
290
     1
176
     1
290
     1
176
     1
290
     0
176
     1
290
     0
176
     1
290
     0
176
     1
290
     0
176
     1
290
     0
176
     1
290
     0
176
     1
 90
       50
176
     0
 40
0.0
176
     0
 40
1.0
176
     0
 90
        0
176
     0
 62
    18
420
        0
176
     0
 90
       50
176
     0
 90
        3
176
     0
 62
     5
420
      255
176
     0
290
     0
176
     1
 90
       50
176
     0
 90
       50
176
     0
 90
       50
176
     0
290
     0
176
     1
 90
       50
176
     0
 62
   256
176
     0
 40
1.0
176
     0
 90
        2
176
     0
  1
strokes_ogs.tif
176
     0
290
     0
176
     1
 40
1.0
176
     0
 40
1.0
176
     0
  0
VISUALSTYLE
  5
1004B
102
{ACAD_REACTORS
330
1003C
102
}
330
1003C
100
AcDbVisualStyle
  2
Facepattern
 70
    15
177
     3
291
     1
 70
    58
 90
        2
176
     1
 90
        2
176
     1
 90
        0
176
     1
 90
        0
176
     1
 40
0.6
176
     1
 40
30.0
176
     1
 62
     7
420
 16777215
176
     1
 90
        1
176
     1
 90
        4
176
     1
 62
     7
176
     1
 62
   257
176
     1
 90
        1
176
     1
 90
        1
176
     1
 40
1.0
176
     1
 90
        8
176
     1
 62
     7
176
     1
 40
1.0
176
     1
 90
        1
176
     1
 90
        6
176
     1
 90
        2
176
     1
 62
     7
176
     1
 90
        5
176
     1
 90
        0
176
     1
 90
        0
176
     1
290
     0
176
     1
 90
        1
176
     1
 40
0.0
176
     1
 90
        0
176
     1
290
     0
176
     1
290
     1
176
     1
290
     1
176
     1
290
     0
176
     1
290
     0
176
     1
290
     0
176
     1
290
     0
176
     1
290
     0
176
     1
290
     0
176
     1
 90
       50
176
     1
 40
0.0
176
     1
 40
1.0
176
     1
 90
        0
176
     1
 62
    18
420
        0
176
     1
 90
       50
176
     1
 90
        3
176
     1
 62
     5
420
      255
176
     1
290
     0
176
     1
 90
       50
176
     1
 90
       50
176
     1
 90
       50
176
     1
290
     0
176
     1
 90
       50
176
     1
 62
   256
176
     0
 40
1.0
176
     0
 90
        2
176
     1
  1
strokes_ogs.tif
176
     1
290
     0
176
     1
 40
1.0
176
     1
 40
1.0
176
     1
  0
VISUALSTYLE
  5
1003D
102
{ACAD_REACTORS
330
1003C
102
}
330
1003C
100
AcDbVisualStyle
  2
Flat
 70
     0
177
     3
291
     1
 70
    58
 90
        2
176
     1
 90
        1
176
     1
 90
        1
176
     1
 90
        2
176
     1
 40
0.6
176
     1
 40
30.0
176
     1
 62
     7
420
 16777215
176
     1
 90
        0
176
     1
 90
        0
176
     1
 62
     7
176
     1
 62
   257
176
     1
 90
        1
176
     1
 90
        1
176
     1
 40
1.0
176
     1
 90
        8
176
     1
 62
     7
176
     1
 40
1.0
176
     1
 90
        1
176
     1
 90
        6
176
     1
 90
        2
176
     1
 62
     7
176
     1
 90
        5
176
     1
 90
        0
176
     1
 90
        0
176
     1
290
     0
176
     1
 90
       13
176
     1
 40
0.0
176
     1
 90
        0
176
     1
290
     0
176
     1
290
     1
176
     1
290
     1
176
     1
290
     0
176
     1
290
     0
176
     1
290
     0
176
     1
290
     0
176
     1
290
     0
176
     1
290
     0
176
     1
 90
       50
176
     1
 40
0.0
176
     1
 40
1.0
176
     1
 90
        0
176
     1
 62
    18
420
        0
176
     1
 90
       50
176
     1
 90
        3
176
     1
 62
     5
420
      255
176
     1
290
     0
176
     1
 90
       50
176
     1
 90
       50
176
     1
 90
       50
176
     1
290
     0
176
     1
 90
       50
176
     1
 62
   256
176
     0
 40
1.0
176
     0
 90
        2
176
     1
  1
strokes_ogs.tif
176
     1
290
     0
176
     1
 40
1.0
176
     1
 40
1.0
176
     1
  0
VISUALSTYLE
  5
1003E
102
{ACAD_REACTORS
330
1003C
102
}
330
1003C
100
AcDbVisualStyle
  2
FlatWithEdges
 70
     1
177
     3
291
     1
 70
    58
 90
        2
176
     1
 90
        1
176
     1
 90
        1
176
     1
 90
        2
176
     1
 40
0.6
176
     1
 40
30.0
176
     1
 62
     7
420
 16777215
176
     1
 90
        1
176
     1
 90
        0
176
     1
 62
     7
176
     1
 62
   257
176
     1
 90
        1
176
     1
 90
        1
176
     1
 40
1.0
176
     1
 90
        0
176
     1
 62
   257
176
     1
 40
1.0
176
     1
 90
        1
176
     1
 90
        6
176
     1
 90
        2
176
     1
 62
     7
176
     1
 90
        5
176
     1
 90
        0
176
     1
 90
        0
176
     1
290
     0
176
     1
 90
       13
176
     1
 40
0.0
176
     1
 90
        0
176
     1
290
     0
176
     1
290
     1
176
     1
290
     1
176
     1
290
     0
176
     1
290
     0
176
     1
290
     0
176
     1
290
     0
176
     1
290
     0
176
     1
290
     0
176
     1
 90
       50
176
     1
 40
0.0
176
     1
 40
1.0
176
     1
 90
        0
176
     1
 62
    18
420
        0
176
     1
 90
       50
176
     1
 90
        3
176
     1
 62
     5
420
      255
176
     1
290
     0
176
     1
 90
       50
176
     1
 90
       50
176
     1
 90
       50
176
     1
290
     0
176
     1
 90
       50
176
     1
 62
   256
176
     0
 40
1.0
176
     0
 90
        2
176
     1
  1
strokes_ogs.tif
176
     1
290
     0
176
     1
 40
1.0
176
     1
 40
1.0
176
     1
  0
VISUALSTYLE
  5
1003F
102
{ACAD_REACTORS
330
1003C
102
}
330
1003C
100
AcDbVisualStyle
  2
Gouraud
 70
     2
177
     3
291
     1
 70
    58
 90
        2
176
     1
 90
        2
176
     1
 90
        1
176
     1
 90
        2
176
     1
 40
0.6
176
     1
 40
30.0
176
     1
 62
     7
420
 16777215
176
     1
 90
        0
176
     1
 90
        0
176
     1
 62
     7
176
     1
 62
   257
176
     1
 90
        1
176
     1
 90
        1
176
     1
 40
1.0
176
     1
 90
        0
176
     1
 62
     7
176
     1
 40
1.0
176
     1
 90
        1
176
     1
 90
        6
176
     1
 90
        2
176
     1
 62
     7
176
     1
 90
        5
176
     1
 90
        0
176
     1
 90
        0
176
     1
290
     0
176
     1
 90
       13
176
     1
 40
0.0
176
     1
 90
        0
176
     1
290
     0
176
     1
290
     1
176
     1
290
     1
176
     1
290
     0
176
     1
290
     0
176
     1
290
     0
176
     1
290
     0
176
     1
290
     0
176
     1
290
     0
176
     1
 90
       50
176
     1
 40
0.0
176
     1
 40
1.0
176
     1
 90
        0
176
     1
 62
    18
420
        0
176
     1
 90
       50
176
     1
 90
        3
176
     1
 62
     5
420
      255
176
     1
290
     0
176
     1
 90
       50
176
     1
 90
       50
176
     1
 90
       50
176
     1
290
     0
176
     1
 90
       50
176
     1
 62
   256
176
     0
 40
1.0
176
     0
 90
        2
176
     1
  1
strokes_ogs.tif
176
     1
290
     0
176
     1
 40
1.0
176
     1
 40
1.0
176
     1
  0
VISUALSTYLE
  5
10040
102
{ACAD_REACTORS
330
1003C
102
}
330
1003C
100
AcDbVisualStyle
  2
GouraudWithEdges
 70
     3
177
     3
291
     1
 70
    58
 90
        2
176
     1
 90
        2
176
     1
 90
        1
176
     1
 90
        2
176
     1
 40
0.6
176
     1
 40
30.0
176
     1
 62
     7
420
 16777215
176
     1
 90
        1
176
     1
 90
        0
176
     1
 62
     7
176
     1
 62
   257
176
     1
 90
        1
176
     1
 90
        1
176
     1
 40
1.0
176
     1
 90
        0
176
     1
 62
   257
176
     1
 40
1.0
176
     1
 90
        1
176
     1
 90
        6
176
     1
 90
        2
176
     1
 62
     7
176
     1
 90
        5
176
     1
 90
        0
176
     1
 90
        0
176
     1
290
     0
176
     1
 90
       13
176
     1
 40
0.0
176
     1
 90
        0
176
     1
290
     0
176
     1
290
     1
176
     1
290
     1
176
     1
290
     0
176
     1
290
     0
176
     1
290
     0
176
     1
290
     0
176
     1
290
     0
176
     1
290
     0
176
     1
 90
       50
176
     1
 40
0.0
176
     1
 40
1.0
176
     1
 90
        0
176
     1
 62
    18
420
        0
176
     1
 90
       50
176
     1
 90
        3
176
     1
 62
     5
420
      255
176
     1
290
     0
176
     1
 90
       50
176
     1
 90
       50
176
     1
 90
       50
176
     1
290
     0
176
     1
 90
       50
176
     1
 62
   256
176
     0
 40
1.0
176
     0
 90
        2
176
     1
  1
strokes_ogs.tif
176
     1
290
     0
176
     1
 40
1.0
176
     1
 40
1.0
176
     1
  0
VISUALSTYLE
  5
10044
102
{ACAD_REACTORS
330
1003C
102
}
330
1003C
100
AcDbVisualStyle
  2
Hidden
 70
     6
177
     3
291
     0
 70
    58
 90
        1
176
     1
 90
        2
176
     1
 90
        2
176
     1
 90
        0
176
     1
 40
0.6
176
     1
 40
30.0
176
     1
 62
     7
420
 16777215
176
     1
 90
        2
176
     1
 90
        2
176
     1
 62
     7
176
     1
 62
   257
176
     1
 90
        2
176
     1
 90
        1
176
     1
 40
40.0
176
     1
 90
        0
176
     1
 62
   257
176
     1
 40
1.0
176
     1
 90
        1
176
     1
 90
        6
176
     1
 90
        2
176
     1
 62
     7
176
     1
 90
        3
176
     1
 90
        0
176
     1
 90
        0
176
     1
290
     0
176
     1
 90
        1
176
     1
 40
0.0
176
     1
 90
        0
176
     1
290
     0
176
     1
290
     1
176
     1
290
     1
176
     1
290
     0
176
     1
290
     0
176
     1
290
     0
176
     1
290
     0
176
     1
290
     0
176
     1
290
     0
176
     1
 90
       50
176
     1
 40
0.0
176
     1
 40
1.0
176
     1
 90
        0
176
     1
 62
    18
420
        0
176
     1
 90
       50
176
     1
 90
        3
176
     1
 62
     5
420
      255
176
     1
290
     0
176
     1
 90
       50
176
     1
 90
       50
176
     1
 90
       50
176
     1
290
     0
176
     1
 90
       50
176
     1
 62
   256
176
     0
 40
1.0
176
     0
 90
        2
176
     1
  1
strokes_ogs.tif
176
     1
290
     0
176
     1
 40
1.0
176
     1
 40
1.0
176
     1
  0
VISUALSTYLE
  5
10052
102
{ACAD_REACTORS
330
1003C
102
}
330
1003C
100
AcDbVisualStyle
  2
JitterOff
 70
    20
177
     3
291
     1
 70
    58
 90
        2
176
     0
 90
        2
176
     0
 90
        0
176
     0
 90
        0
176
     0
 40
0.6
176
     0
 40
30.0
176
     0
 62
     7
420
 16777215
176
     0
 90
        1
176
     0
 90
        4
176
     0
 62
     7
176
     0
 62
   257
176
     0
 90
        1
176
     0
 90
        1
176
     0
 40
1.0
176
     0
 90
       10
176
     2
 62
     7
176
     0
 40
1.0
176
     0
 90
        1
176
     0
 90
        6
176
     0
 90
        2
176
     0
 62
     7
176
     0
 90
        5
176
     0
 90
        0
176
     0
 90
        0
176
     0
290
     0
176
     0
 90
        1
176
     0
 40
0.0
176
     0
 90
        0
176
     0
290
     0
176
     1
290
     1
176
     1
290
     1
176
     1
290
     0
176
     1
290
     0
176
     1
290
     0
176
     1
290
     0
176
     1
290
     0
176
     1
290
     0
176
     1
 90
       50
176
     0
 40
0.0
176
     0
 40
1.0
176
     0
 90
        0
176
     0
 62
    18
420
        0
176
     0
 90
       50
176
     0
 90
        3
176
     0
 62
     5
420
      255
176
     0
290
     0
176
     1
 90
       50
176
     0
 90
       50
176
     0
 90
       50
176
     0
290
     0
176
     1
 90
       50
176
     0
 62
   256
176
     0
 40
1.0
176
     0
 90
        2
176
     0
  1
strokes_ogs.tif
176
     0
290
     0
176
     1
 40
1.0
176
     0
 40
1.0
176
     0
  0
VISUALSTYLE
  5
1004A
102
{ACAD_REACTORS
330
1003C
102
}
330
1003C
100
AcDbVisualStyle
  2
Linepattern
 70
    14
177
     3
291
     1
 70
    58
 90
        2
176
     1
 90
        2
176
     1
 90
        0
176
     1
 90
        0
176
     1
 40
0.6
176
     1
 40
30.0
176
     1
 62
     7
420
 16777215
176
     1
 90
        1
176
     1
 90
        4
176
     1
 62
     7
176
     1
 62
   257
176
     1
 90
        7
176
     1
 90
        7
176
     1
 40
1.0
176
     1
 90
        8
176
     1
 62
     7
176
     1
 40
1.0
176
     1
 90
        1
176
     1
 90
        6
176
     1
 90
        2
176
     1
 62
     7
176
     1
 90
        5
176
     1
 90
        0
176
     1
 90
        0
176
     1
290
     0
176
     1
 90
        1
176
     1
 40
0.0
176
     1
 90
        0
176
     1
290
     0
176
     1
290
     1
176
     1
290
     1
176
     1
290
     0
176
     1
290
     0
176
     1
290
     0
176
     1
290
     0
176
     1
290
     0
176
     1
290
     0
176
     1
 90
       50
176
     1
 40
0.0
176
     1
 40
1.0
176
     1
 90
        0
176
     1
 62
    18
420
        0
176
     1
 90
       50
176
     1
 90
        3
176
     1
 62
     5
420
      255
176
     1
290
     0
176
     1
 90
       50
176
     1
 90
       50
176
     1
 90
       50
176
     1
290
     0
176
     1
 90
       50
176
     1
 62
   256
176
     0
 40
1.0
176
     0
 90
        2
176
     1
  1
strokes_ogs.tif
176
     1
290
     0
176
     1
 40
1.0
176
     1
 40
1.0
176
     1
  0
VISUALSTYLE
  5
10053
102
{ACAD_REACTORS
330
1003C
102
}
330
1003C
100
AcDbVisualStyle
  2
OverhangOff
 70
    21
177
     3
291
     1
 70
    58
 90
        2
176
     0
 90
        2
176
     0
 90
        0
176
     0
 90
        0
176
     0
 40
0.6
176
     0
 40
30.0
176
     0
 62
     7
420
 16777215
176
     0
 90
        1
176
     0
 90
        4
176
     0
 62
     7
176
     0
 62
   257
176
     0
 90
        1
176
     0
 90
        1
176
     0
 40
1.0
176
     0
 90
        9
176
     2
 62
     7
176
     0
 40
1.0
176
     0
 90
        1
176
     0
 90
        6
176
     0
 90
        2
176
     0
 62
     7
176
     0
 90
        5
176
     0
 90
        0
176
     0
 90
        0
176
     0
290
     0
176
     0
 90
        1
176
     0
 40
0.0
176
     0
 90
        0
176
     0
290
     0
176
     1
290
     1
176
     1
290
     1
176
     1
290
     0
176
     1
290
     0
176
     1
290
     0
176
     1
290
     0
176
     1
290
     0
176
     1
290
     0
176
     1
 90
       50
176
     0
 40
0.0
176
     0
 40
1.0
176
     0
 90
        0
176
     0
 62
    18
420
        0
176
     0
 90
       50
176
     0
 90
        3
176
     0
 62
     5
420
      255
176
     0
290
     0
176
     1
 90
       50
176
     0
 90
       50
176
     0
 90
       50
176
     0
290
     0
176
     1
 90
       50
176
     0
 62
   256
176
     0
 40
1.0
176
     0
 90
        2
176
     0
  1
strokes_ogs.tif
176
     0
290
     0
176
     1
 40
1.0
176
     0
 40
1.0
176
     0
  0
VISUALSTYLE
  5
10046
102
{ACAD_REACTORS
330
1003C
102
}
330
1003C
100
AcDbVisualStyle
  2
Realistic
 70
     8
177
     3
291
     0
 70
    58
 90
        2
176
     1
 90
        3
176
     1
 90
        0
176
     1
 90
        2
176
     1
 40
0.6
176
     1
 40
30.0
176
     1
 62
     7
420
 16777215
176
     1
 90
        0
176
     1
 90
        0
176
     1
 62
     7
176
     1
 62
   257
176
     1
 90
        1
176
     1
 90
        1
176
     1
 40
1.0
176
     1
 90
        8
176
     1
 62
   257
176
     1
 40
1.0
176
     1
 90
        1
176
     1
 90
        6
176
     1
 90
        2
176
     1
 62
     7
176
     1
 90
        3
176
     1
 90
        0
176
     1
 90
        0
176
     1
290
     0
176
     1
 90
       13
176
     1
 40
0.0
176
     1
 90
        0
176
     1
290
     0
176
     1
290
     1
176
     1
290
     1
176
     1
290
     0
176
     1
290
     0
176
     1
290
     0
176
     1
290
     0
176
     1
290
     0
176
     1
290
     0
176
     1
 90
       50
176
     1
 40
0.0
176
     1
 40
1.0
176
     1
 90
        0
176
     1
 62
    18
420
        0
176
     1
 90
       50
176
     1
 90
        3
176
     1
 62
     5
420
      255
176
     1
290
     0
176
     1
 90
       50
176
     1
 90
       50
176
     1
 90
       50
176
     1
290
     0
176
     1
 90
       50
176
     1
 62
   256
176
     0
 40
1.0
176
     0
 90
        2
176
     1
  1
strokes_ogs.tif
176
     1
290
     0
176
     1
 40
1.0
176
     1
 40
1.0
176
     1
  0
VISUALSTYLE
  5
10051
102
{ACAD_REACTORS
330
1003C
102
}
330
1003C
100
AcDbVisualStyle
  2
Shaded
 70
    27
177
     3
291
     0
 70
    58
 90
        2
176
     1
 90
        2
176
     1
 90
        1
176
     1
 90
        2
176
     1
 40
0.6
176
     1
 40
30.0
176
     1
 62
     7
420
 16777215
176
     1
 90
        0
176
     1
 90
        4
176
     1
 62
     7
176
     1
 62
   257
176
     1
 90
        1
176
     1
 90
        1
176
     1
 40
1.0
176
     1
 90
        8
176
     1
 62
   257
176
     1
 40
1.0
176
     1
 90
        1
176
     1
 90
        6
176
     1
 90
        2
176
     1
 62
     8
420
  7895160
176
     1
 90
        3
176
     1
 90
        0
176
     1
 90
        0
176
     1
290
     0
176
     1
 90
        5
176
     1
 40
0.0
176
     1
 90
        0
176
     1
290
     0
176
     1
290
     1
176
     1
290
     1
176
     1
290
     0
176
     1
290
     0
176
     1
290
     0
176
     1
290
     0
176
     1
290
     0
176
     1
290
     0
176
     1
 90
       50
176
     1
 40
0.0
176
     1
 40
1.0
176
     1
 90
        0
176
     1
 62
    18
420
        0
176
     1
 90
       50
176
     1
 90
        3
176
     1
 62
     5
420
      255
176
     1
290
     0
176
     1
 90
       50
176
     1
 90
       50
176
     1
 90
       50
176
     1
290
     0
176
     1
 90
       50
176
     1
 62
   256
176
     0
 40
1.0
176
     0
 90
        2
176
     1
  1
strokes_ogs.tif
176
     1
290
     0
176
     1
 40
1.0
176
     1
 40
1.0
176
     1
  0
VISUALSTYLE
  5
10050
102
{ACAD_REACTORS
330
1003C
102
}
330
1003C
100
AcDbVisualStyle
  2
Shaded with edges
 70
    26
177
     3
291
     0
 70
    58
 90
        2
176
     1
 90
        2
176
     1
 90
        1
176
     1
 90
        2
176
     1
 40
0.6
176
     1
 40
30.0
176
     1
 62
     7
420
 16777215
176
     1
 90
        1
176
     1
 90
        2
176
     1
 62
     7
176
     1
 62
   257
176
     1
 90
        2
176
     1
 90
        1
176
     1
 40
1.0
176
     1
 90
        8
176
     1
 62
   257
176
     1
 40
1.0
176
     1
 90
        1
176
     1
 90
        6
176
     1
 90
        2
176
     1
 62
     7
176
     1
 90
        3
176
     1
 90
        0
176
     1
 90
        0
176
     1
290
     0
176
     1
 90
        5
176
     1
 40
0.0
176
     1
 90
        0
176
     1
290
     0
176
     1
290
     1
176
     1
290
     1
176
     1
290
     0
176
     1
290
     0
176
     1
290
     0
176
     1
290
     0
176
     1
290
     0
176
     1
290
     0
176
     1
 90
       50
176
     1
 40
0.0
176
     1
 40
1.0
176
     1
 90
        0
176
     1
 62
    18
420
        0
176
     1
 90
       50
176
     1
 90
        3
176
     1
 62
     5
420
      255
176
     1
290
     0
176
     1
 90
       50
176
     1
 90
       50
176
     1
 90
       50
176
     1
290
     0
176
     1
 90
       50
176
     1
 62
   256
176
     0
 40
1.0
176
     0
 90
        2
176
     1
  1
strokes_ogs.tif
176
     1
290
     0
176
     1
 40
1.0
176
     1
 40
1.0
176
     1
  0
VISUALSTYLE
  5
1004D
102
{ACAD_REACTORS
330
1003C
102
}
330
1003C
100
AcDbVisualStyle
  2
Shades of Gray
 70
    23
177
     3
291
     0
 70
    58
 90
        2
176
     1
 90
        2
176
     1
 90
        3
176
     1
 90
        0
176
     1
 40
0.6
176
     1
 40
30.0
176
     1
 62
     7
420
 16777215
176
     1
 90
        2
176
     1
 90
        2
176
     1
 62
     7
176
     1
 62
     7
176
     1
 90
        1
176
     1
 90
        1
176
     1
 40
40.0
176
     1
 90
        8
176
     1
 62
     7
176
     1
 40
1.0
176
     1
 90
        1
176
     1
 90
        6
176
     1
 90
        2
176
     1
 62
     7
176
     1
 90
        3
176
     1
 90
        0
176
     1
 90
        0
176
     1
290
     0
176
     1
 90
        1
176
     1
 40
0.0
176
     1
 90
        0
176
     1
290
     0
176
     1
290
     1
176
     1
290
     1
176
     1
290
     0
176
     1
290
     0
176
     1
290
     0
176
     1
290
     0
176
     1
290
     0
176
     1
290
     0
176
     1
 90
       50
176
     1
 40
0.0
176
     1
 40
1.0
176
     1
 90
        0
176
     1
 62
    18
420
        0
176
     1
 90
       50
176
     1
 90
        3
176
     1
 62
     5
420
      255
176
     1
290
     0
176
     1
 90
       50
176
     1
 90
       50
176
     1
 90
       50
176
     1
290
     0
176
     1
 90
       50
176
     1
 62
   256
176
     0
 40
1.0
176
     0
 90
        2
176
     1
  1
strokes_ogs.tif
176
     1
290
     0
176
     1
 40
1.0
176
     1
 40
1.0
176
     1
  0
VISUALSTYLE
  5
1004E
102
{ACAD_REACTORS
330
1003C
102
}
330
1003C
100
AcDbVisualStyle
  2
Sketchy
 70
    24
177
     3
291
     0
 70
    58
 90
        1
176
     1
 90
        2
176
     1
 90
        2
176
     1
 90
        0
176
     1
 40
0.6
176
     1
 40
30.0
176
     1
 62
     7
420
 16777215
176
     1
 90
        2
176
     1
 90
        2
176
     1
 62
     7
176
     1
 62
     7
176
     1
 90
        1
176
     1
 90
        1
176
     1
 40
40.0
176
     1
 90
       11
176
     1
 62
     7
176
     1
 40
1.0
176
     1
 90
        1
176
     1
 90
        6
176
     1
 90
        2
176
     1
 62
     7
176
     1
 90
        6
176
     1
 90
        0
176
     1
 90
        0
176
     1
290
     0
176
     1
 90
        1
176
     1
 40
0.0
176
     1
 90
        0
176
     1
290
     0
176
     1
290
     1
176
     1
290
     1
176
     1
290
     0
176
     1
290
     0
176
     1
290
     0
176
     1
290
     0
176
     1
290
     0
176
     1
290
     0
176
     1
 90
       50
176
     1
 40
0.0
176
     1
 40
1.0
176
     1
 90
        0
176
     1
 62
    18
420
        0
176
     1
 90
       50
176
     1
 90
        3
176
     1
 62
     5
420
      255
176
     1
290
     0
176
     1
 90
       50
176
     1
 90
       50
176
     1
 90
       50
176
     1
290
     0
176
     1
 90
       50
176
     1
 62
   256
176
     0
 40
1.0
176
     0
 90
        2
176
     1
  1
strokes_ogs.tif
176
     1
290
     0
176
     1
 40
1.0
176
     1
 40
1.0
176
     1
  0
VISUALSTYLE
  5
10049
102
{ACAD_REACTORS
330
1003C
102
}
330
1003C
100
AcDbVisualStyle
  2
Thicken
 70
    13
177
     3
291
     1
 70
    58
 90
        2
176
     1
 90
        2
176
     1
 90
        0
176
     1
 90
        0
176
     1
 40
0.6
176
     1
 40
30.0
176
     1
 62
     7
420
 16777215
176
     1
 90
        1
176
     1
 90
        4
176
     1
 62
     7
176
     1
 62
   257
176
     1
 90
        1
176
     1
 90
        1
176
     1
 40
1.0
176
     1
 90
       12
176
     1
 62
     7
176
     1
 40
1.0
176
     1
 90
        1
176
     1
 90
        6
176
     1
 90
        2
176
     1
 62
     7
176
     1
 90
        5
176
     1
 90
        0
176
     1
 90
        0
176
     1
290
     0
176
     1
 90
        1
176
     1
 40
0.0
176
     1
 90
        0
176
     1
290
     0
176
     1
290
     1
176
     1
290
     1
176
     1
290
     0
176
     1
290
     0
176
     1
290
     0
176
     1
290
     0
176
     1
290
     0
176
     1
290
     0
176
     1
 90
       50
176
     1
 40
0.0
176
     1
 40
1.0
176
     1
 90
        0
176
     1
 62
    18
420
        0
176
     1
 90
       50
176
     1
 90
        3
176
     1
 62
     5
420
      255
176
     1
290
     0
176
     1
 90
       50
176
     1
 90
       50
176
     1
 90
       50
176
     1
290
     0
176
     1
 90
       50
176
     1
 62
   256
176
     0
 40
1.0
176
     0
 90
        2
176
     1
  1
strokes_ogs.tif
176
     1
290
     0
176
     1
 40
1.0
176
     1
 40
1.0
176
     1
  0
VISUALSTYLE
  5
10043
102
{ACAD_REACTORS
330
1003C
102
}
330
1003C
100
AcDbVisualStyle
  2
Wireframe
 70
     5
177
     3
291
     0
 70
    58
 90
        0
176
     1
 90
        2
176
     1
 90
        0
176
     1
 90
        0
176
     1
 40
0.6
176
     1
 40
30.0
176
     1
 62
     7
420
 16777215
176
     1
 90
        1
176
     1
 90
        4
176
     1
 62
     7
176
     1
 62
   257
176
     1
 90
        1
176
     1
 90
        1
176
     1
 40
1.0
176
     1
 90
        0
176
     1
 62
   257
176
     1
 40
1.0
176
     1
 90
        1
176
     1
 90
        6
176
     1
 90
        2
176
     1
 62
     7
176
     1
 90
        3
176
     1
 90
        0
176
     1
 90
        0
176
     1
290
     0
176
     1
 90
        1
176
     1
 40
0.0
176
     1
 90
        0
176
     1
290
     0
176
     1
290
     1
176
     1
290
     1
176
     1
290
     0
176
     1
290
     0
176
     1
290
     0
176
     1
290
     0
176
     1
290
     0
176
     1
290
     0
176
     1
 90
       50
176
     1
 40
0.0
176
     1
 40
1.0
176
     1
 90
        0
176
     1
 62
    18
420
        0
176
     1
 90
       50
176
     1
 90
        3
176
     1
 62
     5
420
      255
176
     1
290
     0
176
     1
 90
       50
176
     1
 90
       50
176
     1
 90
       50
176
     1
290
     0
176
     1
 90
       50
176
     1
 62
   256
176
     0
 40
1.0
176
     0
 90
        2
176
     1
  1
strokes_ogs.tif
176
     1
290
     0
176
     1
 40
1.0
176
     1
 40
1.0
176
     1
  0
VISUALSTYLE
  5
1004F
102
{ACAD_REACTORS
330
1003C
102
}
330
1003C
100
AcDbVisualStyle
  2
X-Ray
 70
    25
177
     3
291
     0
 70
    58
 90
        2
176
     1
 90
        2
176
     1
 90
        1
176
     1
 90
        1
176
     1
 40
0.5
176
     1
 40
30.0
176
     1
 62
     7
420
 16777215
176
     1
 90
        1
176
     1
 90
        0
176
     1
 62
     7
176
     1
 62
   257
176
     1
 90
        1
176
     1
 90
        1
176
     1
 40
1.0
176
     1
 90
        8
176
     1
 62
     7
176
     1
 40
1.0
176
     1
 90
        1
176
     1
 90
        6
176
     1
 90
        2
176
     1
 62
     7
176
     1
 90
        3
176
     1
 90
        0
176
     1
 90
        0
176
     1
290
     0
176
     1
 90
       13
176
     1
 40
0.0
176
     1
 90
        0
176
     1
290
     0
176
     1
290
     1
176
     1
290
     1
176
     1
290
     0
176
     1
290
     0
176
     1
290
     0
176
     1
290
     0
176
     1
290
     0
176
     1
290
     0
176
     1
 90
       50
176
     1
 40
0.0
176
     1
 40
1.0
176
     1
 90
        0
176
     1
 62
    18
420
        0
176
     1
 90
       50
176
     1
 90
        3
176
     1
 62
     5
420
      255
176
     1
290
     0
176
     1
 90
       50
176
     1
 90
       50
176
     1
 90
       50
176
     1
290
     0
176
     1
 90
       50
176
     1
 62
   256
176
     0
 40
1.0
176
     0
 90
        2
176
     1
  1
strokes_ogs.tif
176
     1
290
     0
176
     1
 40
1.0
176
     1
 40
1.0
176
     1
  0
DICTIONARYVAR
  5
10125
102
{ACAD_REACTORS
330
1011F
102
}
330
1011F
100
DictionaryVariables
280
     0
  1
1:1
  0
DICTIONARYVAR
  5
10121
102
{ACAD_REACTORS
330
1011F
102
}
330
1011F
100
DictionaryVariables
280
     0
  1
STANDARD
  0
DICTIONARYVAR
  5
10120
102
{ACAD_REACTORS
330
1011F
102
}
330
1011F
100
DictionaryVariables
280
     0
  1
STANDARD
  0
DICTIONARYVAR
  5
10122
102
{ACAD_REACTORS
330
1011F
102
}
330
1011F
100
DictionaryVariables
280
     0
  1
Imperial24
  0
DICTIONARYVAR
  5
10123
102
{ACAD_REACTORS
330
1011F
102
}
330
1011F
100
DictionaryVariables
280
     0
  1
Imperial24
  0
DICTIONARYVAR
  5
10127
102
{ACAD_REACTORS
330
1011F
102
}
330
1011F
100
DictionaryVariables
280
     0
  1
1
  0
DICTIONARYVAR
  5
10128
102
{ACAD_REACTORS
330
1011F
102
}
330
1011F
100
DictionaryVariables
280
     0
  1
15
  0
DICTIONARYVAR
  5
10126
102
{ACAD_REACTORS
330
1011F
102
}
330
1011F
100
DictionaryVariables
280
     0
  1
0
  0
DICTIONARYVAR
  5
10124
102
{ACAD_REACTORS
330
1011F
102
}
330
1011F
100
DictionaryVariables
280
     0
  1
0
  0
DICTIONARY
  5
1002D
330
1002C
100
AcDbDictionary
280
     1
281
     1
  3
BUMPTILE
360
1002F
  3
DIFFUSETILE
360
1002E
  3
OPACITYTILE
360
10032
  3
REFLECTIONTILE
360
10031
  3
REFRACTIONTILE
360
10033
  3
SPECULARTILE
360
10030
  0
DICTIONARY
  5
10025
330
10024
100
AcDbDictionary
280
     1
281
     1
  3
BUMPTILE
360
10027
  3
DIFFUSETILE
360
10026
  3
OPACITYTILE
360
1002A
  3
REFLECTIONTILE
360
10029
  3
REFRACTIONTILE
360
1002B
  3
SPECULARTILE
360
10028
  0
DICTIONARY
  5
10035
330
10034
100
AcDbDictionary
280
     1
281
     1
  3
BUMPTILE
360
10037
  3
DIFFUSETILE
360
10036
  3
OPACITYTILE
360
1003A
  3
REFLECTIONTILE
360
10039
  3
REFRACTIONTILE
360
1003B
  3
SPECULARTILE
360
10038
  0
DICTIONARY
  5
10595
330
10058
100
AcDbDictionary
280
     1
281
     1
  3
ACAD_ROUNDTRIP_2008_TABLESTYLE_CELLSTYLEMAP
360
10596
  0
XRECORD
  5
1002F
102
{ACAD_REACTORS
330
1002D
102
}
330
1002D
100
AcDbXrecord
280
     1
270
     1
271
     1
  0
XRECORD
  5
1002E
102
{ACAD_REACTORS
330
1002D
102
}
330
1002D
100
AcDbXrecord
280
     1
270
     1
271
     1
  0
XRECORD
  5
10032
102
{ACAD_REACTORS
330
1002D
102
}
330
1002D
100
AcDbXrecord
280
     1
270
     1
271
     1
  0
XRECORD
  5
10031
102
{ACAD_REACTORS
330
1002D
102
}
330
1002D
100
AcDbXrecord
280
     1
270
     1
271
     1
  0
XRECORD
  5
10033
102
{ACAD_REACTORS
330
1002D
102
}
330
1002D
100
AcDbXrecord
280
     1
270
     1
271
     1
  0
XRECORD
  5
10030
102
{ACAD_REACTORS
330
1002D
102
}
330
1002D
100
AcDbXrecord
280
     1
270
     1
271
     1
  0
XRECORD
  5
10027
102
{ACAD_REACTORS
330
10025
102
}
330
10025
100
AcDbXrecord
280
     1
270
     1
271
     1
  0
XRECORD
  5
10026
102
{ACAD_REACTORS
330
10025
102
}
330
10025
100
AcDbXrecord
280
     1
270
     1
271
     1
  0
XRECORD
  5
1002A
102
{ACAD_REACTORS
330
10025
102
}
330
10025
100
AcDbXrecord
280
     1
270
     1
271
     1
  0
XRECORD
  5
10029
102
{ACAD_REACTORS
330
10025
102
}
330
10025
100
AcDbXrecord
280
     1
270
     1
271
     1
  0
XRECORD
  5
1002B
102
{ACAD_REACTORS
330
10025
102
}
330
10025
100
AcDbXrecord
280
     1
270
     1
271
     1
  0
XRECORD
  5
10028
102
{ACAD_REACTORS
330
10025
102
}
330
10025
100
AcDbXrecord
280
     1
270
     1
271
     1
  0
XRECORD
  5
10037
102
{ACAD_REACTORS
330
10035
102
}
330
10035
100
AcDbXrecord
280
     1
270
     1
271
     1
  0
XRECORD
  5
10036
102
{ACAD_REACTORS
330
10035
102
}
330
10035
100
AcDbXrecord
280
     1
270
     1
271
     1
  0
XRECORD
  5
1003A
102
{ACAD_REACTORS
330
10035
102
}
330
10035
100
AcDbXrecord
280
     1
270
     1
271
     1
  0
XRECORD
  5
10039
102
{ACAD_REACTORS
330
10035
102
}
330
10035
100
AcDbXrecord
280
     1
270
     1
271
     1
  0
XRECORD
  5
1003B
102
{ACAD_REACTORS
330
10035
102
}
330
10035
100
AcDbXrecord
280
     1
270
     1
271
     1
  0
XRECORD
  5
10038
102
{ACAD_REACTORS
330
10035
102
}
330
10035
100
AcDbXrecord
280
     1
270
     1
271
     1
  0
CELLSTYLEMAP
  5
10596
102
{ACAD_REACTORS
330
10595
102
}
330
10595
100
AcDbCellStyleMap
 90
        3
300
CELLSTYLE
  1
TABLEFORMAT_BEGIN
 90
        5
170
     1
 91
        0
 92
    32768
 62
   257
 93
        1
300
CONTENTFORMAT
  1
CONTENTFORMAT_BEGIN
 90
        0
 91
        0
 92
      512
 93
        0
300

 40
0.0
140
1.0
 94
        5
 62
     0
340
16
144
0.25
309
CONTENTFORMAT_END
171
     0
 94
        0
309
TABLEFORMAT_END
  1
CELLSTYLE_BEGIN
 90
        1
 91
        1
300
_TITLE
309
CELLSTYLE_END
300
CELLSTYLE
  1
TABLEFORMAT_BEGIN
 90
        5
170
     1
 91
        0
 92
        0
 62
   257
 93
        1
300
CONTENTFORMAT
  1
CONTENTFORMAT_BEGIN
 90
        0
 91
        0
 92
      512
 93
        0
300

 40
0.0
140
1.0
 94
        5
 62
     0
340
16
144
0.18
309
CONTENTFORMAT_END
171
     0
 94
        0
309
TABLEFORMAT_END
  1
CELLSTYLE_BEGIN
 90
        2
 91
        1
300
_HEADER
309
CELLSTYLE_END
300
CELLSTYLE
  1
TABLEFORMAT_BEGIN
 90
        5
170
     1
 91
        0
 92
        0
 62
   257
 93
        1
300
CONTENTFORMAT
  1
CONTENTFORMAT_BEGIN
 90
        0
 91
        0
 92
      512
 93
        0
300

 40
0.0
140
1.0
 94
        2
 62
     0
340
16
144
0.18
309
CONTENTFORMAT_END
171
     0
 94
        0
309
TABLEFORMAT_END
  1
CELLSTYLE_BEGIN
 90
        3
 91
        2
300
_DATA
309
CELLSTYLE_END
  0
ENDSEC
  0
EOF
